0
SECTION
2
HEADER
9
$INSUNITS
70
4
9
$ACADVER
1
AC1014
9
$HANDSEED
5
FFFF
0
ENDSEC
0
SECTION
2
TABLES
0
TABLE
2
VPORT
5
8
100
AcDbSymbolTable
0
ENDTAB
0
TABLE
2
LTYPE
5
5
100
AcDbSymbolTable
0
LTYPE
5
14
100
AcDbSymbolTableRecord
100
AcDbLinetypeTableRecord
2
BYBLOCK
70
0
0
LTYPE
5
15
100
AcDbSymbolTableRecord
100
AcDbLinetypeTableRecord
2
BYLAYER
70
0
0
LTYPE
5
16
100
AcDbSymbolTableRecord
100
AcDbLinetypeTableRecord
2
DASHED
70
0
3
Dashed __ __ __ __ __ __ __ __ __ __ __ __ __ _
72
65
73
2
40
0.75
49
0.5
74
0
49
-0.25
74
0
0
ENDTAB
0
TABLE
2
LAYER
5
2
100
AcDbSymbolTable
70
2
0
LAYER
5
50
100
AcDbSymbolTableRecord
100
AcDbLayerTableRecord
2
0
70
0
62
7
6
CONTINUOUS
0
ENDTAB
0
TABLE
2
STYLE
5
3
100
AcDbSymbolTable
70
1
0
STYLE
5
11
100
AcDbSymbolTableRecord
100
AcDbTextStyleTableRecord
2
STANDARD
70
0
0
ENDTAB
0
TABLE
2
VIEW
5
6
100
AcDbSymbolTable
70
0
0
ENDTAB
0
TABLE
2
UCS
5
7
100
AcDbSymbolTable
70
0
0
ENDTAB
0
TABLE
2
APPID
5
9
100
AcDbSymbolTable
70
2
0
APPID
5
12
100
AcDbSymbolTableRecord
100
AcDbRegAppTableRecord
2
ACAD
70
0
0
ENDTAB
0
TABLE
2
DIMSTYLE
5
A
100
AcDbSymbolTable
70
1
0
ENDTAB
0
TABLE
2
BLOCK_RECORD
5
1
100
AcDbSymbolTable
70
1
0
BLOCK_RECORD
5
1F
100
AcDbSymbolTableRecord
100
AcDbBlockTableRecord
2
*MODEL_SPACE
0
BLOCK_RECORD
5
1B
100
AcDbSymbolTableRecord
100
AcDbBlockTableRecord
2
*PAPER_SPACE
0
ENDTAB
0
ENDSEC
0
SECTION
2
BLOCKS
0
BLOCK
5
20
100
AcDbEntity
100
AcDbBlockBegin
2
*MODEL_SPACE
0
ENDBLK
5
21
100
AcDbEntity
100
AcDbBlockEnd
0
BLOCK
5
1C
100
AcDbEntity
100
AcDbBlockBegin
2
*PAPER_SPACE
0
ENDBLK
5
1D
100
AcDbEntity
100
AcDbBlockEnd
0
ENDSEC
0
SECTION
2
ENTITIES
0
LWPOLYLINE
5
100
100
AcDbEntity
8
0
100
AcDbPolyline
90
8
70
1
43
0.0
10
-30
20
40.719999999999999
10
-30
20
-39.720000000000006
42
0.41421356237309553
10
-24.5
20
-45.219999999999999
10
24.5
20
-45.219999999999999
42
0.41421356237309576
10
30.000000000000004
20
-39.720000000000006
10
30
20
40.719999999999999
42
0.41421356237309531
10
24.5
20
46.219999999999999
10
-24.5
20
46.219999999999999
42
0.41421356237309553
0
LINE
5
101
100
AcDbEntity
8
0
100
AcDbLine
10
-4.1370428823875489
20
8.2644185382998501
30
0
11
15.999654600451521
21
1.2323638582371812
31
0
0
LINE
5
102
100
AcDbEntity
8
0
100
AcDbLine
10
3.0514410083782777
20
-35.845598687474919
30
0
11
-17.085256474460767
21
-28.813544007412251
31
2.2204460492503131e-15
0
LWPOLYLINE
5
103
100
AcDbEntity
8
0
100
AcDbPolyline
90
8
70
1
43
0.0
10
-10.553526586375209
20
-10.294685633778769
10
9.4679247123659334
20
-17.28649451539631
42
0.41421356237309598
10
14.470542326144463
20
-14.873519620032422
10
17.056649395949236
20
-7.4680516462786226
42
0.41421356237309692
10
14.643674500585352
20
-2.465434032500081
10
-5.3777767981557867
20
4.5263748491174569
42
0.41421356237309553
10
-10.380394411934331
20
2.1133999537535706
10
-12.966501481739085
20
-5.2920680200002304
42
0.41421356237309415
0
LWPOLYLINE
5
104
100
AcDbEntity
8
0
100
AcDbPolyline
90
8
70
1
43
0.0
10
-15.729276374594601
20
-25.115746116674984
42
-0.41421356237309592
10
-18.142251269958468
20
-20.113128502896458
10
-15.556144200153707
20
-12.70766052914265
42
-0.41421356237309293
10
-10.553526586375209
20
-10.294685633778769
10
9.4679247123659334
20
-17.28649451539631
42
-0.41421356237309637
10
11.880899607729823
20
-22.289112129174846
10
9.2947925379250691
20
-29.694580102928654
42
-0.41421356237309631
10
4.2921749241465221
20
-32.107554998292535
0
LINE
5
105
100
AcDbEntity
8
0
100
AcDbLine
10
-17.085256474460767
20
-28.813544007412251
30
2.2204460492503131e-15
11
-15.786743091587086
21
-25.095175428385215
31
2.2204460492503131e-15
0
LINE
5
106
100
AcDbEntity
8
0
100
AcDbLine
10
4.3499543912519352
20
-32.12723010844789
30
0
11
3.0514410083782777
21
-35.845598687474919
31
0
0
LINE
5
107
100
AcDbEntity
8
0
100
AcDbLine
10
38.265217269091842
20
27.602699923390777
30
0
11
38.265217269091842
21
27.601492227399831
31
0
0
LINE
5
108
100
AcDbEntity
8
0
100
AcDbLine
10
-5.4355562652612033
20
4.5460499592728336
30
0
11
-4.1370428823875489
21
8.2644185382998501
31
0
0
LINE
5
109
100
AcDbEntity
8
0
100
AcDbLine
10
15.999654600451521
20
1.2323638582371812
30
0
11
14.701141217577851
21
-2.486004720789837
31
0
0
LINE
5
110
100
AcDbEntity
8
0
100
AcDbLine
10
12.825707339840735
20
23.400351406088351
30
-2.2204460492503131e-15
11
12.825707339840735
21
23.401848263743137
31
-2.2204460492503131e-15
0
LWPOLYLINE
5
111
100
AcDbEntity
8
0
100
AcDbPolyline
90
8
70
1
43
0.0
10
8.9499961686830112
20
-18.769613017224792
10
-11.071455130058116
20
-11.777804135607253
42
0.31783724519578138
10
-13.68682997363339
20
-12.528461066619187
10
8.4320676250000766
20
-20.252731519053278
42
-0.41421356237310347
10
8.9146626040728467
20
-21.253255041808991
10
5.5960939634515299
20
-30.756169315455093
42
0.3178372451957841
10
7.8116740360965951
20
-29.176651559245734
10
10.397781105901334
20
-21.771183585491912
42
0.41421356237309626
0
LWPOLYLINE
5
112
100
AcDbEntity
8
0
100
AcDbPolyline
90
8
70
1
43
0.0
10
12.987423824315965
20
-14.355591076349492
10
15.573530894120749
20
-6.9501231025956924
42
0.41421356237309881
10
14.125745956902415
20
-3.9485525343285675
10
-5.8957053418387044
20
3.0432563472889687
42
0.31783724519578571
10
-8.5110801854139702
20
2.2925994162770249
10
13.607817413219482
20
-5.4316710361570495
42
-0.41421356237310658
10
14.090412392292265
20
-6.4321945589127596
10
10.771843751670964
20
-15.935108832558861
42
0.31783724519578177
0
LINE
5
113
100
AcDbEntity
8
0
100
AcDbLine
10
2.4960562639663224
20
-31.479819428844227
30
0
11
1.8449535606963181
21
-33.344289880585656
31
0
0
LINE
5
114
100
AcDbEntity
8
0
100
AcDbLine
10
1.8449535606963181
20
-33.344289880585656
30
0
11
-14.583947667571504
21
-27.607056559730296
31
2.2204460492503131e-15
0
LINE
5
115
100
AcDbEntity
8
0
100
AcDbLine
10
-14.583947667571504
20
-27.607056559730296
30
2.2204460492503131e-15
11
-13.932844964301514
21
-25.742586107988885
31
0
0
LINE
5
116
100
AcDbEntity
8
0
100
AcDbLine
10
-3.581658137975575
20
3.8986392796691711
30
0
11
-2.930555434705568
21
5.763109731410589
31
0
0
LINE
5
117
100
AcDbEntity
8
0
100
AcDbLine
10
-2.930555434705568
20
5.763109731410589
30
0
11
13.498345793562249
21
0.025876410555235041
31
0
0
LINE
5
118
100
AcDbEntity
8
0
100
AcDbLine
10
13.498345793562249
20
0.025876410555235041
30
0
11
12.847243090292245
21
-1.8385940411861779
31
0
0
SPLINE
5
119
100
AcDbEntity
8
0
100
AcDbSpline
70
4
71
3
72
8
73
4
74
0
42
0.000000001
43
0.0000000001
44
0.0000000001
40
0
40
0
40
0
40
0
40
1
40
1
40
1
40
1
41
1
41
1
41
1
41
1
10
-5.0271572893168699
20
24.82478400218357
30
2.2204460492503131e-15
10
-5.0099733514082541
20
25.030685236822489
30
2.2204460492503131e-15
10
-4.8922779576997835
20
25.122122291721723
30
2.2204460492503131e-15
10
-4.7082949744724809
20
25.147030541128959
30
2.2204460492503131e-15
0
SPLINE
5
120
100
AcDbEntity
8
0
100
AcDbSpline
70
4
71
3
72
8
73
4
74
0
42
0.000000001
43
0.0000000001
44
0.0000000001
40
0
40
0
40
0
40
0
40
1
40
1
40
1
40
1
41
1
41
1
41
1
41
1
10
-12.766251366833066
20
21.968313448657362
30
2.2204460492503131e-15
10
-12.717802958612603
20
22.29716102471891
30
2.2204460492503131e-15
10
-12.714231522114517
20
22.634730178317362
30
2.2204460492503131e-15
10
-12.823009125293005
20
22.959811905006941
30
2.2204460492503131e-15
0
SPLINE
5
121
100
AcDbEntity
8
0
100
AcDbSpline
70
4
71
3
72
8
73
4
74
0
42
0.000000001
43
0.0000000001
44
0.0000000001
40
0
40
0
40
0
40
0
40
1
40
1
40
1
40
1
41
1
41
1
41
1
41
1
10
-23.198975414683417
20
17.140102127806234
30
2.2204460492503131e-15
10
-23.731623486274387
20
16.901783446506172
30
2.2204460492503131e-15
10
-24.277300820654219
20
16.866294096425687
30
4.4408920985006262e-15
10
-24.766371606587143
20
17.22774183124745
30
4.4408920985006262e-15
0
SPLINE
5
122
100
AcDbEntity
8
0
100
AcDbSpline
70
4
71
3
72
8
73
4
74
0
42
0.000000001
43
0.0000000001
44
0.0000000001
40
0
40
0
40
0
40
0
40
1
40
1
40
1
40
1
41
1
41
1
41
1
41
1
10
-20.243921333023419
20
23.516262952814717
30
2.2204460492503131e-15
10
-20.120947989812738
20
23.900534399007043
30
2.2204460492503131e-15
10
-20.05632731067557
20
24.298238334689625
30
2.2204460492503131e-15
10
-20.002564950568864
20
24.696968338317731
30
2.2204460492503131e-15
0
SPLINE
5
123
100
AcDbEntity
8
0
100
AcDbSpline
70
4
71
3
72
8
73
4
74
0
42
0.000000001
43
0.0000000001
44
0.0000000001
40
0
40
0
40
0
40
0
40
1
40
1
40
1
40
1
41
1
41
1
41
1
41
1
10
13.597975854260131
20
30.967688981149482
30
0
10
13.523839745017703
20
30.686443757283129
30
0
10
13.455559423541519
20
30.649820332104966
30
2.2204460492503131e-15
10
13.188029307880241
20
30.766691271218612
30
2.2204460492503131e-15
0
SPLINE
5
124
100
AcDbEntity
8
0
100
AcDbSpline
70
4
71
3
72
8
73
4
74
0
42
0.000000001
43
0.0000000001
44
0.0000000001
40
0
40
0
40
0
40
0
40
1
40
1
40
1
40
1
41
1
41
1
41
1
41
1
10
18.096662754229513
20
12.861552705190052
30
0
10
17.425310997775426
20
13.320977327974315
30
0
10
17.111252301023335
20
14.016188764400098
30
0
10
16.916675616288373
20
14.774460176614358
30
0
0
SPLINE
5
125
100
AcDbEntity
8
0
100
AcDbSpline
70
4
71
3
72
8
73
4
74
0
42
0.000000001
43
0.0000000001
44
0.0000000001
40
0
40
0
40
0
40
0
40
1
40
1
40
1
40
1
41
1
41
1
41
1
41
1
10
-13.80197875199206
20
24.651461324874425
30
2.2204460492503131e-15
10
-13.45120752416128
20
24.961749671956536
30
2.2204460492503131e-15
10
-13.043433721658994
20
25.144251157080049
30
2.2204460492503131e-15
10
-12.58231158646662
20
25.189619561344742
30
2.2204460492503131e-15
0
SPLINE
5
126
100
AcDbEntity
8
0
100
AcDbSpline
70
4
71
3
72
8
73
4
74
0
42
0.000000001
43
0.0000000001
44
0.0000000001
40
0
40
0
40
0
40
0
40
1
40
1
40
1
40
1
41
1
41
1
41
1
41
1
10
18.736389116471635
20
16.647570612706222
30
0
10
18.693085448932422
20
15.914100342806638
30
0
10
18.673425447060534
20
15.171343257940531
30
0
10
19.022212943529965
20
14.483325997908182
30
-6.6613381477509392e-15
0
SPLINE
5
127
100
AcDbEntity
8
0
100
AcDbSpline
70
4
71
3
72
8
73
4
74
0
42
0.000000001
43
0.0000000001
44
0.0000000001
40
0
40
0
40
0
40
0
40
1
40
1
40
1
40
1
41
1
41
1
41
1
41
1
10
23.465989007341328
20
17.897390674935846
30
-4.4408920985006262e-15
10
23.989180152701106
20
19.034390966317414
30
-4.4408920985006262e-15
10
24.266148293341942
20
20.238134277376112
30
-4.4408920985006262e-15
10
24.381638991056931
20
21.473932311076606
30
-4.4408920985006262e-15
0
SPLINE
5
128
100
AcDbEntity
8
0
100
AcDbSpline
70
4
71
3
72
8
73
4
74
0
42
0.000000001
43
0.0000000001
44
0.0000000001
40
0
40
0
40
0
40
0
40
1
40
1
40
1
40
1
41
1
41
1
41
1
41
1
10
11.280550995971161
20
27.089443766404102
30
2.2204460492503131e-15
10
9.6927612536204943
20
27.184940090105336
30
2.2204460492503131e-15
10
8.1202455227043977
20
27.42762316041226
30
2.2204460492503131e-15
10
6.5572434217743805
20
27.731254666682922
30
2.2204460492503131e-15
0
SPLINE
5
129
100
AcDbEntity
8
0
100
AcDbSpline
70
4
71
3
72
8
73
4
74
0
42
0.000000001
43
0.0000000001
44
0.0000000001
40
0
40
0
40
0
40
0
40
1
40
1
40
1
40
1
41
1
41
1
41
1
41
1
10
7.0039736039414766
20
26.761660060791336
30
2.2204460492503131e-15
10
8.3892805380190829
20
26.344295223177269
30
2.2204460492503131e-15
10
9.2152544334454749
20
25.008363758709482
30
2.2204460492503131e-15
10
9.1405674877270133
20
23.530989728011704
30
2.2204460492503131e-15
0
SPLINE
5
130
100
AcDbEntity
8
0
100
AcDbSpline
70
4
71
3
72
8
73
4
74
0
42
0.000000001
43
0.0000000001
44
0.0000000001
40
0
40
0
40
0
40
0
40
1
40
1
40
1
40
1
41
1
41
1
41
1
41
1
10
8.1070740504985235
20
21.037603217662483
30
2.2204460492503131e-15
10
7.5739345463652361
20
20.534309689909339
30
2.2204460492503131e-15
10
6.940557204550883
20
20.276700031173938
30
2.2204460492503131e-15
10
6.1903899289870168
20
20.495853743382867
30
2.2204460492503131e-15
0
SPLINE
5
131
100
AcDbEntity
8
0
100
AcDbSpline
70
4
71
3
72
8
73
4
74
0
42
0.000000001
43
0.0000000001
44
0.0000000001
40
0
40
0
40
0
40
0
40
1
40
1
40
1
40
1
41
1
41
1
41
1
41
1
10
4.3165288431876565
20
30.150420462187171
30
2.2204460492503131e-15
10
6.5119236207281652
20
29.581782607377374
30
2.2204460492503131e-15
10
8.7154657377799101
20
29.039430093164857
30
2.2204460492503131e-15
10
10.970516465696626
20
28.767923514184908
30
2.2204460492503131e-15
0
SPLINE
5
132
100
AcDbEntity
8
0
100
AcDbSpline
70
4
71
3
72
8
73
4
74
0
42
0.000000001
43
0.0000000001
44
0.0000000001
40
0
40
0
40
0
40
0
40
1
40
1
40
1
40
1
41
1
41
1
41
1
41
1
10
12.669116145805599
20
14.811381521520559
30
2.2204460492503131e-15
10
12.152154312946617
20
14.093336473068593
30
2.2204460492503131e-15
10
11.608831534483897
20
13.394549099846722
30
2.2204460492503131e-15
10
10.877115480747296
20
12.840821632392586
30
2.2204460492503131e-15
0
SPLINE
5
133
100
AcDbEntity
8
0
100
AcDbSpline
70
4
71
3
72
8
73
4
74
0
42
0.000000001
43
0.0000000001
44
0.0000000001
40
0
40
0
40
0
40
0
40
1
40
1
40
1
40
1
41
1
41
1
41
1
41
1
10
14.025781383249644
20
31.867257149938297
30
0
10
13.829919413403978
20
31.591630098103458
30
0
10
13.683909944756824
20
31.29368696851321
30
0
10
13.597975854260131
20
30.967688981149482
30
0
0
SPLINE
5
134
100
AcDbEntity
8
0
100
AcDbSpline
70
4
71
3
72
8
73
4
74
0
42
0.000000001
43
0.0000000001
44
0.0000000001
40
0
40
0
40
0
40
0
40
1
40
1
40
1
40
1
41
1
41
1
41
1
41
1
10
21.642641066487865
20
24.504897419512872
30
-4.4408920985006262e-15
10
20.945288388270519
20
23.775640328607128
30
-4.4408920985006262e-15
10
20.496957000072669
20
22.891004148604388
30
-4.4408920985006262e-15
10
20.08290618191069
20
21.986908680020871
30
-4.4408920985006262e-15
0
SPLINE
5
135
100
AcDbEntity
8
0
100
AcDbSpline
70
4
71
3
72
8
73
4
74
0
42
0.000000001
43
0.0000000001
44
0.0000000001
40
0
40
0
40
0
40
0
40
1
40
1
40
1
40
1
41
1
41
1
41
1
41
1
10
12.234466563607569
20
20.503174828180089
30
2.2204460492503131e-15
10
12.865150927094726
20
20.689724781390385
30
2.2204460492503131e-15
10
13.492917297354367
20
20.886166389619319
30
2.2204460492503131e-15
10
14.135037818136034
20
21.03168442572413
30
2.2204460492503131e-15
0
SPLINE
5
136
100
AcDbEntity
8
0
100
AcDbSpline
70
4
71
3
72
8
73
4
74
0
42
0.000000001
43
0.0000000001
44
0.0000000001
40
0
40
0
40
0
40
0
40
1
40
1
40
1
40
1
41
1
41
1
41
1
41
1
10
9.518677125888626
20
24.968703532436422
30
2.2204460492503131e-15
10
9.4640255068957924
20
25.105649400898159
30
2.2204460492503131e-15
10
9.53984652771193
20
25.172124202814071
30
2.2204460492503131e-15
10
9.6323960562784059
20
25.234123908392171
30
2.2204460492503131e-15
0
SPLINE
5
137
100
AcDbEntity
8
0
100
AcDbSpline
70
4
71
3
72
8
73
4
74
0
42
0.000000001
43
0.0000000001
44
0.0000000001
40
0
40
0
40
0
40
0
40
1
40
1
40
1
40
1
41
1
41
1
41
1
41
1
10
9.4779134265443403
20
19.789065740364748
30
2.2204460492503131e-15
10
9.6785403119194502
20
19.820956652159111
30
2.2204460492503131e-15
10
9.7925292601896512
20
19.91166645890047
30
2.2204460492503131e-15
10
9.8126779944250337
20
20.125817639845192
30
2.2204460492503131e-15
0
SPLINE
5
138
100
AcDbEntity
8
0
100
AcDbSpline
70
4
71
3
72
8
73
4
74
0
42
0.000000001
43
0.0000000001
44
0.0000000001
40
0
40
0
40
0
40
0
40
1
40
1
40
1
40
1
41
1
41
1
41
1
41
1
10
20.003403017265498
20
25.333364480034945
30
-4.4408920985006262e-15
10
20.877018867509545
20
26.274603608246196
30
-4.4408920985006262e-15
10
21.912891162264366
20
26.93826795564533
30
-4.4408920985006262e-15
10
23.241607298938071
20
26.904796539191025
30
-4.4408920985006262e-15
0
SPLINE
5
139
100
AcDbEntity
8
0
100
AcDbSpline
70
4
71
3
72
8
73
4
74
0
42
0.000000001
43
0.0000000001
44
0.0000000001
40
0
40
0
40
0
40
0
40
1
40
1
40
1
40
1
41
1
41
1
41
1
41
1
10
-17.810271778414545
20
24.451484282531474
30
2.2204460492503131e-15
10
-17.36451546073609
20
24.881779376378258
30
2.2204460492503131e-15
10
-16.850693035766572
20
25.166263014690202
30
2.2204460492503131e-15
10
-16.218275157487255
20
25.19445108128469
30
2.2204460492503131e-15
0
SPLINE
5
140
100
AcDbEntity
8
0
100
AcDbSpline
70
4
71
3
72
8
73
4
74
0
42
0.000000001
43
0.0000000001
44
0.0000000001
40
0
40
0
40
0
40
0
40
1
40
1
40
1
40
1
41
1
41
1
41
1
41
1
10
9.8126779944250337
20
20.125817639845192
30
2.2204460492503131e-15
10
9.9103632630767109
20
21.164194800470511
30
2.2204460492503131e-15
10
9.9560898910627316
20
22.203637631663806
30
2.2204460492503131e-15
10
9.8667607757498228
20
23.244353147133374
30
2.2204460492503131e-15
0
SPLINE
5
141
100
AcDbEntity
8
0
100
AcDbSpline
70
4
71
3
72
8
73
4
74
0
42
0.000000001
43
0.0000000001
44
0.0000000001
40
0
40
0
40
0
40
0
40
1
40
1
40
1
40
1
41
1
41
1
41
1
41
1
10
-19.44654413125054
20
25.188429682551785
30
2.2204460492503131e-15
10
-18.757505303570667
20
25.195901977362034
30
2.2204460492503131e-15
10
-18.392253916873671
20
24.925158648924025
30
2.2204460492503131e-15
10
-18.113530660010259
20
24.187604808613209
30
2.2204460492503131e-15
0
SPLINE
5
142
100
AcDbEntity
8
0
100
AcDbSpline
70
4
71
3
72
8
73
4
74
0
42
0.000000001
43
0.0000000001
44
0.0000000001
40
0
40
0
40
0
40
0
40
1
40
1
40
1
40
1
41
1
41
1
41
1
41
1
10
-24.100856736647664
20
22.622244551527693
30
2.2204460492503131e-15
10
-24.053283186359707
20
22.886062821393072
30
2.2204460492503131e-15
10
-23.981775251153149
20
23.208602779768498
30
2.2204460492503131e-15
10
-24.284018865518561
20
23.364748719645828
30
2.2204460492503131e-15
0
SPLINE
5
143
100
AcDbEntity
8
0
100
AcDbSpline
70
4
71
3
72
8
73
4
74
0
42
0.000000001
43
0.0000000001
44
0.0000000001
40
0
40
0
40
0
40
0
40
1
40
1
40
1
40
1
41
1
41
1
41
1
41
1
10
20.08290618191069
20
21.986908680020871
30
-4.4408920985006262e-15
10
19.97380095703733
20
21.748677304502145
30
-4.4408920985006262e-15
10
19.858380013941428
20
21.508865424323467
30
-4.4408920985006262e-15
10
19.806542881321974
20
21.224959624275584
30
-4.4408920985006262e-15
0
SPLINE
5
144
100
AcDbEntity
8
0
100
AcDbSpline
70
4
71
3
72
8
73
4
74
0
42
0.000000001
43
0.0000000001
44
0.0000000001
40
0
40
0
40
0
40
0
40
1
40
1
40
1
40
1
41
1
41
1
41
1
41
1
10
-13.522459842441055
20
23.221896660080148
30
2.2204460492503131e-15
10
-13.71198359257415
20
23.111731164996424
30
2.2204460492503131e-15
10
-13.855949925926277
20
22.950049858570903
30
2.2204460492503131e-15
10
-13.985295691114372
20
22.775117874694587
30
2.2204460492503131e-15
0
SPLINE
5
145
100
AcDbEntity
8
0
100
AcDbSpline
70
4
71
3
72
8
73
4
74
0
42
0.000000001
43
0.0000000001
44
0.0000000001
40
0
40
0
40
0
40
0
40
1
40
1
40
1
40
1
41
1
41
1
41
1
41
1
10
-14.652268657607992
20
24.033491203315673
30
2.2204460492503131e-15
10
-14.627913044795982
20
23.93978599822109
30
2.2204460492503131e-15
10
-14.607989325460913
20
23.844930516956001
30
2.2204460492503131e-15
10
-14.572080547606214
20
23.6907719086784
30
2.2204460492503131e-15
0
SPLINE
5
146
100
AcDbEntity
8
0
100
AcDbSpline
70
4
71
3
72
8
73
4
74
0
42
0.000000001
43
0.0000000001
44
0.0000000001
40
0
40
0
40
0
40
0
40
1
40
1
40
1
40
1
41
1
41
1
41
1
41
1
10
8.018239967966343
20
19.61190520891553
30
2.2204460492503131e-15
10
8.5116958442769377
20
19.604479717204555
30
2.2204460492503131e-15
10
8.9932709338499723
20
19.712024238729203
30
2.2204460492503131e-15
10
9.4779134265443403
20
19.789065740364748
30
2.2204460492503131e-15
0
SPLINE
5
147
100
AcDbEntity
8
0
100
AcDbSpline
70
4
71
3
72
8
73
4
74
0
42
0.000000001
43
0.0000000001
44
0.0000000001
40
0
40
0
40
0
40
0
40
1
40
1
40
1
40
1
41
1
41
1
41
1
41
1
10
10.659437866284563
20
14.730894591731127
30
2.2204460492503131e-15
10
11.25808910856035
20
15.395532803618895
30
2.2204460492503131e-15
10
11.726717740827812
20
16.13062318080086
30
2.2204460492503131e-15
10
12.206665522641629
20
16.909982989474312
30
2.2204460492503131e-15
0
SPLINE
5
148
100
AcDbEntity
8
0
100
AcDbSpline
70
4
71
3
72
8
73
4
74
0
42
0.000000001
43
0.0000000001
44
0.0000000001
40
0
40
0
40
0
40
0
40
1
40
1
40
1
40
1
41
1
41
1
41
1
41
1
10
17.942812866395176
20
29.725754341087097
30
2.2204460492503131e-15
10
18.674441614350421
20
30.462555731571204
30
2.2204460492503131e-15
10
18.628510672834892
20
31.578788047711658
30
2.2204460492503131e-15
10
17.836353816749721
20
32.250608735218051
30
2.2204460492503131e-15
0
SPLINE
5
149
100
AcDbEntity
8
0
100
AcDbSpline
70
4
71
3
72
8
73
4
74
0
42
0.000000001
43
0.0000000001
44
0.0000000001
40
0
40
0
40
0
40
0
40
1
40
1
40
1
40
1
41
1
41
1
41
1
41
1
10
17.689252575806176
20
21.575747053179178
30
0
10
17.798028378865457
20
21.587770049333766
30
0
10
17.819292286946904
20
21.737950394173478
30
0
10
17.859281935034041
20
21.836191899658772
30
0
0
SPLINE
5
150
100
AcDbEntity
8
0
100
AcDbSpline
70
4
71
3
72
8
73
4
74
0
42
0.000000001
43
0.0000000001
44
0.0000000001
40
0
40
0
40
0
40
0
40
1
40
1
40
1
40
1
41
1
41
1
41
1
41
1
10
11.587109496065352
20
18.554621396304654
30
2.2204460492503131e-15
10
11.379739364157064
20
17.37612835730172
30
2.2204460492503131e-15
10
11.0838789724843
20
16.218577005042938
30
2.2204460492503131e-15
10
10.746830053335419
20
15.071104520199885
30
2.2204460492503131e-15
0
SPLINE
5
151
100
AcDbEntity
8
0
100
AcDbSpline
70
4
71
3
72
8
73
4
74
0
42
0.000000001
43
0.0000000001
44
0.0000000001
40
0
40
0
40
0
40
0
40
1
40
1
40
1
40
1
41
1
41
1
41
1
41
1
10
16.478755217499092
20
26.666035928626712
30
0
10
17.29951506765498
20
26.723839556343407
30
0
10
18.188095308830739
20
26.087095991620082
30
0
10
17.872584815941718
20
24.994614448239545
30
0
0
SPLINE
5
152
100
AcDbEntity
8
0
100
AcDbSpline
70
4
71
3
72
8
73
4
74
0
42
0.000000001
43
0.0000000001
44
0.0000000001
40
0
40
0
40
0
40
0
40
1
40
1
40
1
40
1
41
1
41
1
41
1
41
1
10
-26.754282844709572
20
22.591836937956327
30
4.4408920985006262e-15
10
-26.367152809223434
20
23.34037870588018
30
4.4408920985006262e-15
10
-25.889030348281107
20
24.021799429094383
30
4.4408920985006262e-15
10
-25.244141244165739
20
24.571183208912501
30
2.2204460492503131e-15
0
SPLINE
5
153
100
AcDbEntity
8
0
100
AcDbSpline
70
4
71
3
72
8
73
4
74
0
42
0.000000001
43
0.0000000001
44
0.0000000001
40
0
40
0
40
0
40
0
40
1
40
1
40
1
40
1
41
1
41
1
41
1
41
1
10
19.022212943529965
20
14.483325997908182
30
-6.6613381477509392e-15
10
19.255165469486897
20
14.023805068746565
30
-6.6613381477509392e-15
10
19.669227088364071
20
13.906406694706543
30
-6.6613381477509392e-15
10
20.10210175302829
20
14.176557783926885
30
-6.6613381477509392e-15
0
SPLINE
5
154
100
AcDbEntity
8
0
100
AcDbSpline
70
4
71
3
72
8
73
4
74
0
42
0.000000001
43
0.0000000001
44
0.0000000001
40
0
40
0
40
0
40
0
40
1
40
1
40
1
40
1
41
1
41
1
41
1
41
1
10
23.856127042015114
20
15.21644164432483
30
-4.4408920985006262e-15
10
23.597372957496638
20
15.076906304390064
30
-4.4408920985006262e-15
10
23.317932803160769
20
14.996327568521295
30
-4.4408920985006262e-15
10
23.034171012649082
20
15.088988704478332
30
-4.4408920985006262e-15
0
SPLINE
5
155
100
AcDbEntity
8
0
100
AcDbSpline
70
4
71
3
72
8
73
4
74
0
42
0.000000001
43
0.0000000001
44
0.0000000001
40
0
40
0
40
0
40
0
40
1
40
1
40
1
40
1
41
1
41
1
41
1
41
1
10
-14.572080547606214
20
23.6907719086784
30
2.2204460492503131e-15
10
-14.339886771893207
20
24.069234370203741
30
2.2204460492503131e-15
10
-14.102033421407022
20
24.386039148799483
30
2.2204460492503131e-15
10
-13.80197875199206
20
24.651461324874425
30
2.2204460492503131e-15
0
SPLINE
5
156
100
AcDbEntity
8
0
100
AcDbSpline
70
4
71
3
72
8
73
4
74
0
42
0.000000001
43
0.0000000001
44
0.0000000001
40
0
40
0
40
0
40
0
40
1
40
1
40
1
40
1
41
1
41
1
41
1
41
1
10
15.542518620552048
20
27.250876656379653
30
0
10
14.129788670541064
20
27.007421334934794
30
2.2204460492503131e-15
10
12.702612763928725
20
27.003914702728011
30
2.2204460492503131e-15
10
11.280550995971161
20
27.089443766404102
30
2.2204460492503131e-15
0
SPLINE
5
157
100
AcDbEntity
8
0
100
AcDbSpline
70
4
71
3
72
8
73
4
74
0
42
0.000000001
43
0.0000000001
44
0.0000000001
40
0
40
0
40
0
40
0
40
1
40
1
40
1
40
1
41
1
41
1
41
1
41
1
10
12.622156436165747
20
32.588723324934918
30
2.2204460492503131e-15
10
13.029442406364085
20
33.471204762252071
30
0
10
13.772992443738978
20
33.942735186674241
30
0
10
14.676420068098324
20
34.164936500693265
30
0
0
SPLINE
5
158
100
AcDbEntity
8
0
100
AcDbSpline
70
4
71
3
72
8
73
4
74
0
42
0.000000001
43
0.0000000001
44
0.0000000001
40
0
40
0
40
0
40
0
40
1
40
1
40
1
40
1
41
1
41
1
41
1
41
1
10
-25.082353730707275
20
28.837492721010189
30
2.2204460492503131e-15
10
-22.628560842220608
20
31.046091372902225
30
2.2204460492503131e-15
10
-19.678572295996911
20
32.214192323748193
30
2.2204460492503131e-15
10
-16.477967554140129
20
32.826432665884866
30
2.2204460492503131e-15
0
SPLINE
5
159
100
AcDbEntity
8
0
100
AcDbSpline
70
4
71
3
72
8
73
4
74
0
42
0.000000001
43
0.0000000001
44
0.0000000001
40
0
40
0
40
0
40
0
40
1
40
1
40
1
40
1
41
1
41
1
41
1
41
1
10
20.07320443946794
20
31.404550909847579
30
-4.4408920985006262e-15
10
20.274000536048113
20
30.088742977946346
30
-4.4408920985006262e-15
10
19.720045353514834
20
29.090632683765385
30
-4.4408920985006262e-15
10
18.654904920643929
20
28.356184049079168
30
2.2204460492503131e-15
0
SPLINE
5
160
100
AcDbEntity
8
0
100
AcDbSpline
70
4
71
3
72
8
73
4
74
0
42
0.000000001
43
0.0000000001
44
0.0000000001
40
0
40
0
40
0
40
0
40
1
40
1
40
1
40
1
41
1
41
1
41
1
41
1
10
-21.539413119603395
20
18.27989350401154
30
2.2204460492503131e-15
10
-21.425141552618395
20
18.581518777430837
30
2.2204460492503131e-15
10
-21.317865248854933
20
18.885794726376048
30
2.2204460492503131e-15
10
-21.233043632025481
20
19.203949594373782
30
2.2204460492503131e-15
0
SPLINE
5
161
100
AcDbEntity
8
0
100
AcDbSpline
70
4
71
3
72
8
73
4
74
0
42
0.000000001
43
0.0000000001
44
0.0000000001
40
0
40
0
40
0
40
0
40
1
40
1
40
1
40
1
41
1
41
1
41
1
41
1
10
26.304776314895086
20
19.876330118952215
30
-4.4408920985006262e-15
10
26.043100411895772
20
18.594755953987622
30
-4.4408920985006262e-15
10
25.612738263608676
20
17.380562950957476
30
-4.4408920985006262e-15
10
24.895854742072231
20
16.278878298153337
30
-4.4408920985006262e-15
0
SPLINE
5
162
100
AcDbEntity
8
0
100
AcDbSpline
70
4
71
3
72
8
73
4
74
0
42
0.000000001
43
0.0000000001
44
0.0000000001
40
0
40
0
40
0
40
0
40
1
40
1
40
1
40
1
41
1
41
1
41
1
41
1
10
-4.8953309598674961
20
32.508393005516098
30
2.2204460492503131e-15
10
-1.7902261419503684
20
31.856866861900532
30
2.2204460492503131e-15
10
1.2481428567664561
20
30.945174890281777
30
2.2204460492503131e-15
10
4.3165288431876565
20
30.150420462187171
30
2.2204460492503131e-15
0
SPLINE
5
163
100
AcDbEntity
8
0
100
AcDbSpline
70
4
71
3
72
8
73
4
74
0
42
0.000000001
43
0.0000000001
44
0.0000000001
40
0
40
0
40
0
40
0
40
1
40
1
40
1
40
1
41
1
41
1
41
1
41
1
10
-23.163779484032965
20
19.159665761928686
30
2.2204460492503131e-15
10
-23.161410527162264
20
19.039047874694695
30
2.2204460492503131e-15
10
-23.161230515241993
20
18.917098799310338
30
2.2204460492503131e-15
10
-23.032158368172702
20
18.855720134857158
30
2.2204460492503131e-15
0
SPLINE
5
164
100
AcDbEntity
8
0
100
AcDbSpline
70
4
71
3
72
8
73
4
74
0
42
0.000000001
43
0.0000000001
44
0.0000000001
40
0
40
0
40
0
40
0
40
1
40
1
40
1
40
1
41
1
41
1
41
1
41
1
10
-21.918190601989195
20
19.822042124038312
30
2.2204460492503131e-15
10
-21.199096984101679
20
20.979461167535689
30
2.2204460492503131e-15
10
-20.658701199462467
20
22.220114122725761
30
2.2204460492503131e-15
10
-20.243921333023419
20
23.516262952814717
30
2.2204460492503131e-15
0
SPLINE
5
165
100
AcDbEntity
8
0
100
AcDbSpline
70
4
71
3
72
8
73
4
74
0
42
0.000000001
43
0.0000000001
44
0.0000000001
40
0
40
0
40
0
40
0
40
1
40
1
40
1
40
1
41
1
41
1
41
1
41
1
10
-26.579174449151392
20
20.453669749987668
30
4.4408920985006262e-15
10
-26.682972922615306
20
20.242654376693984
30
4.4408920985006262e-15
10
-26.849645959589811
20
20.112763175387478
30
4.4408920985006262e-15
10
-27.089846665516255
20
20.114991722960379
30
4.4408920985006262e-15
0
SPLINE
5
166
100
AcDbEntity
8
0
100
AcDbSpline
70
4
71
3
72
8
73
4
74
0
42
0.000000001
43
0.0000000001
44
0.0000000001
40
0
40
0
40
0
40
0
40
1
40
1
40
1
40
1
41
1
41
1
41
1
41
1
10
15.521936957648395
20
19.522813709337377
30
2.2204460492503131e-15
10
14.651068989367225
20
17.903849502634991
30
2.2204460492503131e-15
10
13.744861980958969
20
16.3055659653924
30
2.2204460492503131e-15
10
12.669116145805599
20
14.811381521520559
30
2.2204460492503131e-15
0
SPLINE
5
167
100
AcDbEntity
8
0
100
AcDbSpline
70
4
71
3
72
8
73
4
74
0
42
0.000000001
43
0.0000000001
44
0.0000000001
40
0
40
0
40
0
40
0
40
1
40
1
40
1
40
1
41
1
41
1
41
1
41
1
10
14.419273039998009
20
21.305909184700099
30
2.2204460492503131e-15
10
15.095115193803148
20
22.930691376665479
30
0
10
15.702257598357885
20
24.57872570837166
30
0
10
16.062594659631603
20
26.30616869846488
30
0
0
SPLINE
5
168
100
AcDbEntity
8
0
100
AcDbSpline
70
4
71
3
72
8
73
4
74
0
42
0.000000001
43
0.0000000001
44
0.0000000001
40
0
40
0
40
0
40
0
40
1
40
1
40
1
40
1
41
1
41
1
41
1
41
1
10
20.10210175302829
20
14.176557783926885
30
-6.6613381477509392e-15
10
20.263743456831357
20
14.277434663924877
30
-6.6613381477509392e-15
10
20.400486811882796
20
14.402587051430377
30
-4.4408920985006262e-15
10
20.499483467373601
20
14.563731922333494
30
-4.4408920985006262e-15
0
SPLINE
5
169
100
AcDbEntity
8
0
100
AcDbSpline
70
4
71
3
72
8
73
4
74
0
42
0.000000001
43
0.0000000001
44
0.0000000001
40
0
40
0
40
0
40
0
40
1
40
1
40
1
40
1
41
1
41
1
41
1
41
1
10
8.5737009502126433
20
12.790167178089272
30
2.2204460492503131e-15
10
8.2461098573545559
20
12.991114484682459
30
2.2204460492503131e-15
10
8.193288959590836
20
13.135696458801887
30
2.2204460492503131e-15
10
8.3220676872300885
20
13.50016029334772
30
2.2204460492503131e-15
0
SPLINE
5
170
100
AcDbEntity
8
0
100
AcDbSpline
70
4
71
3
72
8
73
4
74
0
42
0.000000001
43
0.0000000001
44
0.0000000001
40
0
40
0
40
0
40
0
40
1
40
1
40
1
40
1
41
1
41
1
41
1
41
1
10
-18.113530660010259
20
24.187604808613209
30
2.2204460492503131e-15
10
-17.982744799460033
20
24.244259960278598
30
2.2204460492503131e-15
10
-17.905397277560041
20
24.359656601765263
30
2.2204460492503131e-15
10
-17.810271778414545
20
24.451484282531474
30
2.2204460492503131e-15
0
SPLINE
5
171
100
AcDbEntity
8
0
100
AcDbSpline
70
4
71
3
72
8
73
4
74
0
42
0.000000001
43
0.0000000001
44
0.0000000001
40
0
40
0
40
0
40
0
40
1
40
1
40
1
40
1
41
1
41
1
41
1
41
1
10
-16.534880122851504
20
22.898881470235231
30
2.2204460492503131e-15
10
-16.558443683214353
20
23.098332877771011
30
2.2204460492503131e-15
10
-16.592912365706923
20
23.305227778209797
30
2.2204460492503131e-15
10
-16.801067349587573
20
23.389905385503035
30
2.2204460492503131e-15
0
SPLINE
5
172
100
AcDbEntity
8
0
100
AcDbSpline
70
4
71
3
72
8
73
4
74
0
42
0.000000001
43
0.0000000001
44
0.0000000001
40
0
40
0
40
0
40
0
40
1
40
1
40
1
40
1
41
1
41
1
41
1
41
1
10
13.512799613947772
20
19.341786521840842
30
2.2204460492503131e-15
10
12.928880547226573
20
19.186205819393145
30
2.2204460492503131e-15
10
12.421470146856944
20
19.045133177659302
30
2.2204460492503131e-15
10
11.910628719287033
20
18.917829647706622
30
2.2204460492503131e-15
0
SPLINE
5
173
100
AcDbEntity
8
0
100
AcDbSpline
70
4
71
3
72
8
73
4
74
0
42
0.000000001
43
0.0000000001
44
0.0000000001
40
0
40
0
40
0
40
0
40
1
40
1
40
1
40
1
41
1
41
1
41
1
41
1
10
17.872584815941718
20
24.994614448239545
30
0
10
17.582998739749826
20
23.991899449138167
30
0
10
17.183114859712823
20
23.031930080623209
30
0
10
16.76691379916328
20
22.077713893079974
30
0
0
SPLINE
5
174
100
AcDbEntity
8
0
100
AcDbSpline
70
4
71
3
72
8
73
4
74
0
42
0.000000001
43
0.0000000001
44
0.0000000001
40
0
40
0
40
0
40
0
40
1
40
1
40
1
40
1
41
1
41
1
41
1
41
1
10
16.76691379916328
20
22.077713893079974
30
0
10
16.693109811913708
20
21.908508088387322
30
0
10
16.584847942886796
20
21.752506158046209
30
0
10
16.557700345191453
20
21.501787355618596
30
0
0
SPLINE
5
175
100
AcDbEntity
8
0
100
AcDbSpline
70
4
71
3
72
8
73
4
74
0
42
0.000000001
43
0.0000000001
44
0.0000000001
40
0
40
0
40
0
40
0
40
1
40
1
40
1
40
1
41
1
41
1
41
1
41
1
10
-12.823009125293005
20
22.959811905006941
30
2.2204460492503131e-15
10
-12.935419369022455
20
23.295732149415752
30
2.2204460492503131e-15
10
-13.212634125994036
20
23.401993185948914
30
2.2204460492503131e-15
10
-13.522459842441055
20
23.221896660080148
30
2.2204460492503131e-15
0
SPLINE
5
176
100
AcDbEntity
8
0
100
AcDbSpline
70
4
71
3
72
8
73
4
74
0
42
0.000000001
43
0.0000000001
44
0.0000000001
40
0
40
0
40
0
40
0
40
1
40
1
40
1
40
1
41
1
41
1
41
1
41
1
10
10.746830053335419
20
15.071104520199885
30
2.2204460492503131e-15
10
10.713851869542655
20
14.958831085529827
30
2.2204460492503131e-15
10
10.688389183420979
20
14.844350704717325
30
2.2204460492503131e-15
10
10.659437866284563
20
14.730894591731127
30
2.2204460492503131e-15
0
SPLINE
5
177
100
AcDbEntity
8
0
100
AcDbSpline
70
4
71
3
72
8
73
4
74
0
42
0.000000001
43
0.0000000001
44
0.0000000001
40
0
40
0
40
0
40
0
40
1
40
1
40
1
40
1
41
1
41
1
41
1
41
1
10
23.034171012649082
20
15.088988704478332
30
-4.4408920985006262e-15
10
22.814744132351148
20
15.160638849101904
30
-4.4408920985006262e-15
10
22.74003963547047
20
15.080744158530139
30
-4.4408920985006262e-15
10
22.672008180474059
20
14.893250942857645
30
-4.4408920985006262e-15
0
SPLINE
5
178
100
AcDbEntity
8
0
100
AcDbSpline
70
4
71
3
72
8
73
4
74
0
42
0.000000001
43
0.0000000001
44
0.0000000001
40
0
40
0
40
0
40
0
40
1
40
1
40
1
40
1
41
1
41
1
41
1
41
1
10
26.207239556077646
20
24.643340987151234
30
-4.4408920985006262e-15
10
26.753799173881671
20
23.069599375058122
30
-4.4408920985006262e-15
10
26.63094126331487
20
21.473743298560329
30
-4.4408920985006262e-15
10
26.304776314895086
20
19.876330118952215
30
-4.4408920985006262e-15
0
SPLINE
5
179
100
AcDbEntity
8
0
100
AcDbSpline
70
4
71
3
72
8
73
4
74
0
42
0.000000001
43
0.0000000001
44
0.0000000001
40
0
40
0
40
0
40
0
40
1
40
1
40
1
40
1
41
1
41
1
41
1
41
1
10
24.173103281964909
20
24.259035338694055
30
-4.4408920985006262e-15
10
23.842297176210874
20
25.160497232884076
30
-4.4408920985006262e-15
10
23.209941852073847
20
25.469901721437679
30
-4.4408920985006262e-15
10
22.439298670609492
20
25.103800678477029
30
-4.4408920985006262e-15
0
SPLINE
5
180
100
AcDbEntity
8
0
100
AcDbSpline
70
4
71
3
72
8
73
4
74
0
42
0.000000001
43
0.0000000001
44
0.0000000001
40
0
40
0
40
0
40
0
40
1
40
1
40
1
40
1
41
1
41
1
41
1
41
1
10
7.713776806624062
20
19.312169160599435
30
2.2204460492503131e-15
10
7.7257223976529188
20
19.511676371830497
30
2.2204460492503131e-15
10
7.7970143185551652
20
19.61523362932126
30
2.2204460492503131e-15
10
8.018239967966343
20
19.61190520891553
30
2.2204460492503131e-15
0
SPLINE
5
181
100
AcDbEntity
8
0
100
AcDbSpline
70
4
71
3
72
8
73
4
74
0
42
0.000000001
43
0.0000000001
44
0.0000000001
40
0
40
0
40
0
40
0
40
1
40
1
40
1
40
1
41
1
41
1
41
1
41
1
10
-21.233043632025481
20
19.203949594373782
30
2.2204460492503131e-15
10
-21.44223908480528
20
18.906632006206465
30
2.2204460492503131e-15
10
-21.643265596643385
20
18.603139109114405
30
2.2204460492503131e-15
10
-21.862462511713169
20
18.313385621836673
30
2.2204460492503131e-15
0
SPLINE
5
182
100
AcDbEntity
8
0
100
AcDbSpline
70
4
71
3
72
8
73
4
74
0
42
0.000000001
43
0.0000000001
44
0.0000000001
40
0
40
0
40
0
40
0
40
1
40
1
40
1
40
1
41
1
41
1
41
1
41
1
10
-16.477967554140129
20
32.826432665884866
30
2.2204460492503131e-15
10
-14.852603923672284
20
33.137347454449504
30
2.2204460492503131e-15
10
-13.210902411321081
20
33.288377455552876
30
2.2204460492503131e-15
10
-11.557377716046775
20
33.263146984808351
30
2.2204460492503131e-15
0
SPLINE
5
183
100
AcDbEntity
8
0
100
AcDbSpline
70
4
71
3
72
8
73
4
74
0
42
0.000000001
43
0.0000000001
44
0.0000000001
40
0
40
0
40
0
40
0
40
1
40
1
40
1
40
1
41
1
41
1
41
1
41
1
10
21.301711990397653
20
13.01579051871256
30
-4.4408920985006262e-15
10
20.366663472124372
20
12.304998150528128
30
-6.6613381477509392e-15
10
19.01888542318386
20
12.230448013869069
30
-6.6613381477509392e-15
10
18.096662754229513
20
12.861552705190052
30
0
0
SPLINE
5
184
100
AcDbEntity
8
0
100
AcDbSpline
70
4
71
3
72
8
73
4
74
0
42
0.000000001
43
0.0000000001
44
0.0000000001
40
0
40
0
40
0
40
0
40
1
40
1
40
1
40
1
41
1
41
1
41
1
41
1
10
-20.651432318122119
20
16.997512885644159
30
2.2204460492503131e-15
10
-20.785696008971883
20
17.021309561443751
30
2.2204460492503131e-15
10
-20.920226117463649
20
17.061065194034548
30
2.2204460492503131e-15
10
-21.045608020167474
20
17.114632241207769
30
2.2204460492503131e-15
0
SPLINE
5
185
100
AcDbEntity
8
0
100
AcDbSpline
70
4
71
3
72
8
73
4
74
0
42
0.000000001
43
0.0000000001
44
0.0000000001
40
0
40
0
40
0
40
0
40
1
40
1
40
1
40
1
41
1
41
1
41
1
41
1
10
17.163739276674974
20
19.866949697787142
30
0
10
16.671308568250282
20
19.89271120369644
30
0
10
16.207990287630651
20
19.855421734413291
30
0
10
15.74761880214578
20
19.776680920250442
30
0
0
SPLINE
5
186
100
AcDbEntity
8
0
100
AcDbSpline
70
4
71
3
72
8
73
4
74
0
42
0.000000001
43
0.0000000001
44
0.0000000001
40
0
40
0
40
0
40
0
40
1
40
1
40
1
40
1
41
1
41
1
41
1
41
1
10
-20.002564950568864
20
24.696968338317731
30
2.2204460492503131e-15
10
-19.950894328975643
20
25.080195715372511
30
2.2204460492503131e-15
10
-19.83832927499477
20
25.184179601114298
30
2.2204460492503131e-15
10
-19.44654413125054
20
25.188429682551785
30
2.2204460492503131e-15
0
SPLINE
5
187
100
AcDbEntity
8
0
100
AcDbSpline
70
4
71
3
72
8
73
4
74
0
42
0.000000001
43
0.0000000001
44
0.0000000001
40
0
40
0
40
0
40
0
40
1
40
1
40
1
40
1
41
1
41
1
41
1
41
1
10
12.206665522641629
20
16.909982989474312
30
2.2204460492503131e-15
10
12.658198422841435
20
17.682065816270985
30
2.2204460492503131e-15
10
13.111252423767493
20
18.453354790499287
30
2.2204460492503131e-15
10
13.512799613947772
20
19.341786521840842
30
2.2204460492503131e-15
0
SPLINE
5
188
100
AcDbEntity
8
0
100
AcDbSpline
70
4
71
3
72
8
73
4
74
0
42
0.000000001
43
0.0000000001
44
0.0000000001
40
0
40
0
40
0
40
0
40
1
40
1
40
1
40
1
41
1
41
1
41
1
41
1
10
-21.985561863268028
20
23.365151946347225
30
2.2204460492503131e-15
10
-21.989860547923982
20
22.79830881038248
30
2.2204460492503131e-15
10
-22.139025625533399
20
22.258078636709907
30
2.2204460492503131e-15
10
-22.327285691986223
20
21.728852591723214
30
2.2204460492503131e-15
0
SPLINE
5
189
100
AcDbEntity
8
0
100
AcDbSpline
70
4
71
3
72
8
73
4
74
0
42
0.000000001
43
0.0000000001
44
0.0000000001
40
0
40
0
40
0
40
0
40
1
40
1
40
1
40
1
41
1
41
1
41
1
41
1
10
-18.161482235330787
20
17.68552204514009
30
2.2204460492503131e-15
10
-18.220418138025948
20
17.888696999246584
30
2.2204460492503131e-15
10
-18.093776151880252
20
18.044765533998198
30
2.2204460492503131e-15
10
-18.014768920075404
20
18.209651952664053
30
2.2204460492503131e-15
0
SPLINE
5
190
100
AcDbEntity
8
0
100
AcDbSpline
70
4
71
3
72
8
73
4
74
0
42
0.000000001
43
0.0000000001
44
0.0000000001
40
0
40
0
40
0
40
0
40
1
40
1
40
1
40
1
41
1
41
1
41
1
41
1
10
-9.0671576153750522
20
21.952094374641376
30
2.2204460492503131e-15
10
-8.9538401115674624
20
22.277345312536006
30
2.2204460492503131e-15
10
-8.8557840183600405
20
22.608072213045141
30
2.2204460492503131e-15
10
-8.8586174059850276
20
22.956532087819696
30
2.2204460492503131e-15
0
SPLINE
5
191
100
AcDbEntity
8
0
100
AcDbSpline
70
4
71
3
72
8
73
4
74
0
42
0.000000001
43
0.0000000001
44
0.0000000001
40
0
40
0
40
0
40
0
40
1
40
1
40
1
40
1
41
1
41
1
41
1
41
1
10
9.6323960562784059
20
25.234123908392171
30
2.2204460492503131e-15
10
10.44344336327632
20
25.777437686258903
30
2.2204460492503131e-15
10
11.617540511186355
20
25.511372867628612
30
2.2204460492503131e-15
10
11.809508823196669
20
24.44493544887219
30
2.2204460492503131e-15
0
SPLINE
5
192
100
AcDbEntity
8
0
100
AcDbSpline
70
4
71
3
72
8
73
4
74
0
42
0.000000001
43
0.0000000001
44
0.0000000001
40
0
40
0
40
0
40
0
40
1
40
1
40
1
40
1
41
1
41
1
41
1
41
1
10
-24.284018865518561
20
23.364748719645828
30
2.2204460492503131e-15
10
-24.58072891345498
20
23.518034270110132
30
2.2204460492503131e-15
10
-24.807738345864315
20
23.297868890909314
30
2.2204460492503131e-15
10
-25.00115755395198
20
23.098115063347482
30
2.2204460492503131e-15
0
SPLINE
5
193
100
AcDbEntity
8
0
100
AcDbSpline
70
4
71
3
72
8
73
4
74
0
42
0.000000001
43
0.0000000001
44
0.0000000001
40
0
40
0
40
0
40
0
40
1
40
1
40
1
40
1
41
1
41
1
41
1
41
1
10
-7.2314104534536625
20
21.384900215432122
30
2.2204460492503131e-15
10
-7.4673124747241442
20
20.687831055989193
30
2.2204460492503131e-15
10
-7.7988116263712195
20
20.024542933503415
30
2.2204460492503131e-15
10
-7.9620896385294957
20
19.301499854085261
30
2.2204460492503131e-15
0
SPLINE
5
194
100
AcDbEntity
8
0
100
AcDbSpline
70
4
71
3
72
8
73
4
74
0
42
0.000000001
43
0.0000000001
44
0.0000000001
40
0
40
0
40
0
40
0
40
1
40
1
40
1
40
1
41
1
41
1
41
1
41
1
10
-18.741322231938732
20
20.835626242885368
30
2.2204460492503131e-15
10
-19.075708774786875
20
19.684790235312128
30
2.2204460492503131e-15
10
-19.421234455261107
20
18.538139504885073
30
2.2204460492503131e-15
10
-19.865979105947666
20
17.424250043886879
30
2.2204460492503131e-15
0
SPLINE
5
195
100
AcDbEntity
8
0
100
AcDbSpline
70
4
71
3
72
8
73
4
74
0
42
0.000000001
43
0.0000000001
44
0.0000000001
40
0
40
0
40
0
40
0
40
1
40
1
40
1
40
1
41
1
41
1
41
1
41
1
10
10.877115480747296
20
12.840821632392586
30
2.2204460492503131e-15
10
10.10675626808718
20
12.287753008566618
30
2.2204460492503131e-15
10
9.3425210609544944
20
12.318567449077793
30
2.2204460492503131e-15
10
8.5737009502126433
20
12.790167178089272
30
2.2204460492503131e-15
0
SPLINE
5
196
100
AcDbEntity
8
0
100
AcDbSpline
70
4
71
3
72
8
73
4
74
0
42
0.000000001
43
0.0000000001
44
0.0000000001
40
0
40
0
40
0
40
0
40
1
40
1
40
1
40
1
41
1
41
1
41
1
41
1
10
-24.449089796402692
20
21.498325726391872
30
2.2204460492503131e-15
10
-24.306905581061201
20
21.865442036582824
30
2.2204460492503131e-15
10
-24.170506948837076
20
22.235942570874773
30
2.2204460492503131e-15
10
-24.100856736647664
20
22.622244551527693
30
2.2204460492503131e-15
0
SPLINE
5
197
100
AcDbEntity
8
0
100
AcDbSpline
70
4
71
3
72
8
73
4
74
0
42
0.000000001
43
0.0000000001
44
0.0000000001
40
0
40
0
40
0
40
0
40
1
40
1
40
1
40
1
41
1
41
1
41
1
41
1
10
19.13573296074787
20
19.141145235512106
30
-6.6613381477509392e-15
10
18.933235751521178
20
18.32101452701756
30
-6.6613381477509392e-15
10
18.786076906763128
20
17.48918484382493
30
0
10
18.736389116471635
20
16.647570612706222
30
0
0
SPLINE
5
198
100
AcDbEntity
8
0
100
AcDbSpline
70
4
71
3
72
8
73
4
74
0
42
0.000000001
43
0.0000000001
44
0.0000000001
40
0
40
0
40
0
40
0
40
1
40
1
40
1
40
1
41
1
41
1
41
1
41
1
10
-13.985295691114372
20
22.775117874694587
30
2.2204460492503131e-15
10
-14.518336188691519
20
22.054209736650797
30
2.2204460492503131e-15
10
-14.834987957155036
20
21.233791009083834
30
2.2204460492503131e-15
10
-15.099533475178289
20
20.33750985795907
30
2.2204460492503131e-15
0
SPLINE
5
199
100
AcDbEntity
8
0
100
AcDbSpline
70
4
71
3
72
8
73
4
74
0
42
0.000000001
43
0.0000000001
44
0.0000000001
40
0
40
0
40
0
40
0
40
1
40
1
40
1
40
1
41
1
41
1
41
1
41
1
10
11.910628719287033
20
18.917829647706622
30
2.2204460492503131e-15
10
11.709915428190175
20
18.867808835362641
30
2.2204460492503131e-15
10
11.621873398107166
20
18.752174578141222
30
2.2204460492503131e-15
10
11.587109496065352
20
18.554621396304654
30
2.2204460492503131e-15
0
SPLINE
5
200
100
AcDbEntity
8
0
100
AcDbSpline
70
4
71
3
72
8
73
4
74
0
42
0.000000001
43
0.0000000001
44
0.0000000001
40
0
40
0
40
0
40
0
40
1
40
1
40
1
40
1
41
1
41
1
41
1
41
1
10
-4.4239229435511094
20
19.242293933509696
30
2.2204460492503131e-15
10
-4.4537185165935647
20
19.086373008532689
30
2.2204460492503131e-15
10
-4.4626183059315307
20
18.940485047931727
30
2.2204460492503131e-15
10
-4.317316284131036
20
18.846313611963655
30
2.2204460492503131e-15
0
SPLINE
5
201
100
AcDbEntity
8
0
100
AcDbSpline
70
4
71
3
72
8
73
4
74
0
42
0.000000001
43
0.0000000001
44
0.0000000001
40
0
40
0
40
0
40
0
40
1
40
1
40
1
40
1
41
1
41
1
41
1
41
1
10
-14.419084816333523
20
18.527658310827569
30
2.2204460492503131e-15
10
-14.161822580604252
20
18.693885818299414
30
2.2204460492503131e-15
10
-13.947557992149759
20
18.909191775712635
30
2.2204460492503131e-15
10
-13.779642872925422
20
19.168645656571162
30
2.2204460492503131e-15
0
SPLINE
5
202
100
AcDbEntity
8
0
100
AcDbSpline
70
4
71
3
72
8
73
4
74
0
42
0.000000001
43
0.0000000001
44
0.0000000001
40
0
40
0
40
0
40
0
40
1
40
1
40
1
40
1
41
1
41
1
41
1
41
1
10
24.895854742072231
20
16.278878298153337
30
-4.4408920985006262e-15
10
24.620995891107146
20
15.856483927487028
30
-4.4408920985006262e-15
10
24.312590918740824
20
15.462594444394885
30
-4.4408920985006262e-15
10
23.856127042015114
20
15.21644164432483
30
-4.4408920985006262e-15
0
SPLINE
5
203
100
AcDbEntity
8
0
100
AcDbSpline
70
4
71
3
72
8
73
4
74
0
42
0.000000001
43
0.0000000001
44
0.0000000001
40
0
40
0
40
0
40
0
40
1
40
1
40
1
40
1
41
1
41
1
41
1
41
1
10
16.062594659631603
20
26.30616869846488
30
0
10
16.115901589580048
20
26.561711820355619
30
0
10
16.244280690756312
20
26.64952163506149
30
0
10
16.478755217499092
20
26.666035928626712
30
0
0
SPLINE
5
204
100
AcDbEntity
8
0
100
AcDbSpline
70
4
71
3
72
8
73
4
74
0
42
0.000000001
43
0.0000000001
44
0.0000000001
40
0
40
0
40
0
40
0
40
1
40
1
40
1
40
1
41
1
41
1
41
1
41
1
10
9.518552917663639
20
18.080610407621212
30
2.2204460492503131e-15
10
9.5620617987919871
20
18.317615901962935
30
2.2204460492503131e-15
10
9.5033293095667286
20
18.386706277080314
30
2.2204460492503131e-15
10
9.2633014150837383
20
18.337616126364111
30
2.2204460492503131e-15
0
SPLINE
5
205
100
AcDbEntity
8
0
100
AcDbSpline
70
4
71
3
72
8
73
4
74
0
42
0.000000001
43
0.0000000001
44
0.0000000001
40
0
40
0
40
0
40
0
40
1
40
1
40
1
40
1
41
1
41
1
41
1
41
1
10
-14.552106424933468
20
31.644013566900931
30
2.2204460492503131e-15
10
-17.28345969327863
20
31.463209594185532
30
2.2204460492503131e-15
10
-19.910402447630968
20
30.838958856728688
30
2.2204460492503131e-15
10
-22.336883927574831
20
29.52359375415131
30
2.2204460492503131e-15
0
SPLINE
5
206
100
AcDbEntity
8
0
100
AcDbSpline
70
4
71
3
72
8
73
4
74
0
42
0.000000001
43
0.0000000001
44
0.0000000001
40
0
40
0
40
0
40
0
40
1
40
1
40
1
40
1
41
1
41
1
41
1
41
1
10
11.904956543679441
20
21.099827938140912
30
2.2204460492503131e-15
10
11.883626931247097
20
20.887460675326032
30
2.2204460492503131e-15
10
11.853782754986153
20
20.675928667821179
30
2.2204460492503131e-15
10
11.905597386115579
20
20.471093103750238
30
2.2204460492503131e-15
0
SPLINE
5
207
100
AcDbEntity
8
0
100
AcDbSpline
70
4
71
3
72
8
73
4
74
0
42
0.000000001
43
0.0000000001
44
0.0000000001
40
0
40
0
40
0
40
0
40
1
40
1
40
1
40
1
41
1
41
1
41
1
41
1
10
9.8667607757498228
20
23.244353147133374
30
2.2204460492503131e-15
10
9.816391640340127
20
23.831166805532451
30
2.2204460492503131e-15
10
9.7393681398966176
20
24.415717714093784
30
2.2204460492503131e-15
10
9.518677125888626
20
24.968703532436422
30
2.2204460492503131e-15
0
SPLINE
5
208
100
AcDbEntity
8
0
100
AcDbSpline
70
4
71
3
72
8
73
4
74
0
42
0.000000001
43
0.0000000001
44
0.0000000001
40
0
40
0
40
0
40
0
40
1
40
1
40
1
40
1
41
1
41
1
41
1
41
1
10
-25.286141625402262
20
18.687189374865511
30
4.4408920985006262e-15
10
-25.206158728989561
20
19.680345741000753
30
4.4408920985006262e-15
10
-24.803320853340992
20
20.583692359995972
30
4.4408920985006262e-15
10
-24.449089796402692
20
21.498325726391872
30
2.2204460492503131e-15
0
SPLINE
5
209
100
AcDbEntity
8
0
100
AcDbSpline
70
4
71
3
72
8
73
4
74
0
42
0.000000001
43
0.0000000001
44
0.0000000001
40
0
40
0
40
0
40
0
40
1
40
1
40
1
40
1
41
1
41
1
41
1
41
1
10
19.278726329670942
20
19.450346310595798
30
-6.6613381477509392e-15
10
19.177204106938792
20
19.333311560634712
30
-6.6613381477509392e-15
10
19.159180413422146
20
19.236108723929352
30
-6.6613381477509392e-15
10
19.13573296074787
20
19.141145235512106
30
-6.6613381477509392e-15
0
SPLINE
5
210
100
AcDbEntity
8
0
100
AcDbSpline
70
4
71
3
72
8
73
4
74
0
42
0.000000001
43
0.0000000001
44
0.0000000001
40
0
40
0
40
0
40
0
40
1
40
1
40
1
40
1
41
1
41
1
41
1
41
1
10
-8.0635299558379288
20
17.114528734353623
30
2.2204460492503131e-15
10
-9.0909659919494601
20
16.652214920249079
30
2.2204460492503131e-15
10
-10.027557212379445
20
17.226215330163598
30
2.2204460492503131e-15
10
-10.088415642383058
20
18.347109054979356
30
2.2204460492503131e-15
0
SPLINE
5
211
100
AcDbEntity
8
0
100
AcDbSpline
70
4
71
3
72
8
73
4
74
0
42
0.000000001
43
0.0000000001
44
0.0000000001
40
0
40
0
40
0
40
0
40
1
40
1
40
1
40
1
41
1
41
1
41
1
41
1
10
-26.430020172257194
20
25.881831999178896
30
4.4408920985006262e-15
10
-27.022792225217088
20
24.926173916154323
30
4.4408920985006262e-15
10
-27.358075227428166
20
23.890811955193453
30
4.4408920985006262e-15
10
-27.336776217022258
20
22.758551377672482
30
4.4408920985006262e-15
0
SPLINE
5
212
100
AcDbEntity
8
0
100
AcDbSpline
70
4
71
3
72
8
73
4
74
0
42
0.000000001
43
0.0000000001
44
0.0000000001
40
0
40
0
40
0
40
0
40
1
40
1
40
1
40
1
41
1
41
1
41
1
41
1
10
-27.089846665516255
20
20.114991722960379
30
4.4408920985006262e-15
10
-27.334479264919658
20
20.117261673274932
30
4.4408920985006262e-15
10
-27.494747477771075
20
20.262209071592501
30
4.4408920985006262e-15
10
-27.580699569459803
20
20.47806856566055
30
4.4408920985006262e-15
0
SPLINE
5
213
100
AcDbEntity
8
0
100
AcDbSpline
70
4
71
3
72
8
73
4
74
0
42
0.000000001
43
0.0000000001
44
0.0000000001
40
0
40
0
40
0
40
0
40
1
40
1
40
1
40
1
41
1
41
1
41
1
41
1
10
18.235515848986463
20
33.815250744741697
30
2.2204460492503131e-15
10
19.232794488095813
20
33.316153294849954
30
-4.4408920985006262e-15
10
19.901656679692632
20
32.528689349526132
30
-4.4408920985006262e-15
10
20.07320443946794
20
31.404550909847579
30
-4.4408920985006262e-15
0
SPLINE
5
214
100
AcDbEntity
8
0
100
AcDbSpline
70
4
71
3
72
8
73
4
74
0
42
0.000000001
43
0.0000000001
44
0.0000000001
40
0
40
0
40
0
40
0
40
1
40
1
40
1
40
1
41
1
41
1
41
1
41
1
10
-6.74979576125817
20
18.225660412733337
30
2.2204460492503131e-15
10
-7.1052725006847002
20
17.757379203471967
30
2.2204460492503131e-15
10
-7.52216930730608
20
17.358123565036692
30
2.2204460492503131e-15
10
-8.0635299558379288
20
17.114528734353623
30
2.2204460492503131e-15
0
SPLINE
5
215
100
AcDbEntity
8
0
100
AcDbSpline
70
4
71
3
72
8
73
4
74
0
42
0.000000001
43
0.0000000001
44
0.0000000001
40
0
40
0
40
0
40
0
40
1
40
1
40
1
40
1
41
1
41
1
41
1
41
1
10
-17.329276327224765
20
23.216805922975027
30
2.2204460492503131e-15
10
-17.993358302278935
20
22.538686618378513
30
2.2204460492503131e-15
10
-18.476258279585117
20
21.74786185050333
30
2.2204460492503131e-15
10
-18.741322231938732
20
20.835626242885368
30
2.2204460492503131e-15
0
SPLINE
5
216
100
AcDbEntity
8
0
100
AcDbSpline
70
4
71
3
72
8
73
4
74
0
42
0.000000001
43
0.0000000001
44
0.0000000001
40
0
40
0
40
0
40
0
40
1
40
1
40
1
40
1
41
1
41
1
41
1
41
1
10
-25.244141244165739
20
24.571183208912501
30
2.2204460492503131e-15
10
-24.598416884740338
20
25.12128703641168
30
2.2204460492503131e-15
10
-23.868382142339044
20
25.370558543000342
30
2.2204460492503131e-15
10
-23.030999091406184
20
25.083419728864477
30
2.2204460492503131e-15
0
SPLINE
5
217
100
AcDbEntity
8
0
100
AcDbSpline
70
4
71
3
72
8
73
4
74
0
42
0.000000001
43
0.0000000001
44
0.0000000001
40
0
40
0
40
0
40
0
40
1
40
1
40
1
40
1
41
1
41
1
41
1
41
1
10
8.3220676872300885
20
13.50016029334772
30
2.2204460492503131e-15
10
8.8497240282720764
20
14.993520282624733
30
2.2204460492503131e-15
10
9.2327785938833866
20
16.523963627536201
30
2.2204460492503131e-15
10
9.518552917663639
20
18.080610407621212
30
2.2204460492503131e-15
0
SPLINE
5
218
100
AcDbEntity
8
0
100
AcDbSpline
70
4
71
3
72
8
73
4
74
0
42
0.000000001
43
0.0000000001
44
0.0000000001
40
0
40
0
40
0
40
0
40
1
40
1
40
1
40
1
41
1
41
1
41
1
41
1
10
-24.766371606587143
20
17.22774183124745
30
4.4408920985006262e-15
10
-25.252054568180643
20
17.586690100556321
30
4.4408920985006262e-15
10
-25.330762980197843
20
18.133157687266113
30
4.4408920985006262e-15
10
-25.286141625402262
20
18.687189374865511
30
4.4408920985006262e-15
0
SPLINE
5
219
100
AcDbEntity
8
0
100
AcDbSpline
70
4
71
3
72
8
73
4
74
0
42
0.000000001
43
0.0000000001
44
0.0000000001
40
0
40
0
40
0
40
0
40
1
40
1
40
1
40
1
41
1
41
1
41
1
41
1
10
14.676420068098324
20
34.164936500693265
30
0
10
15.896766778622744
20
34.465088376545175
30
0
10
17.100126664291274
20
34.383467371658064
30
2.2204460492503131e-15
10
18.235515848986463
20
33.815250744741697
30
2.2204460492503131e-15
0
SPLINE
5
220
100
AcDbEntity
8
0
100
AcDbSpline
70
4
71
3
72
8
73
4
74
0
42
0.000000001
43
0.0000000001
44
0.0000000001
40
0
40
0
40
0
40
0
40
1
40
1
40
1
40
1
41
1
41
1
41
1
41
1
10
-15.936484497502494
20
17.78831695214852
30
2.2204460492503131e-15
10
-16.043058754776919
20
17.768937768872263
30
2.2204460492503131e-15
10
-16.043065955253727
20
17.663561490927219
30
2.2204460492503131e-15
10
-16.087154474765335
20
17.596027318860532
30
2.2204460492503131e-15
0
SPLINE
5
221
100
AcDbEntity
8
0
100
AcDbSpline
70
4
71
3
72
8
73
4
74
0
42
0.000000001
43
0.0000000001
44
0.0000000001
40
0
40
0
40
0
40
0
40
1
40
1
40
1
40
1
41
1
41
1
41
1
41
1
10
22.439298670609492
20
25.103800678477029
30
-4.4408920985006262e-15
10
22.13383329290113
20
24.958684068954401
30
-4.4408920985006262e-15
10
21.875267770869122
20
24.748167328679859
30
-4.4408920985006262e-15
10
21.642641066487865
20
24.504897419512872
30
-4.4408920985006262e-15
0
SPLINE
5
222
100
AcDbEntity
8
0
100
AcDbSpline
70
4
71
3
72
8
73
4
74
0
42
0.000000001
43
0.0000000001
44
0.0000000001
40
0
40
0
40
0
40
0
40
1
40
1
40
1
40
1
41
1
41
1
41
1
41
1
10
-18.014768920075404
20
18.209651952664053
30
2.2204460492503131e-15
10
-17.448843844904019
20
19.39069576057717
30
2.2204460492503131e-15
10
-16.975027269094458
20
20.605536806520277
30
2.2204460492503131e-15
10
-16.672618043762412
20
21.882244349220471
30
2.2204460492503131e-15
0
SPLINE
5
223
100
AcDbEntity
8
0
100
AcDbSpline
70
4
71
3
72
8
73
4
74
0
42
0.000000001
43
0.0000000001
44
0.0000000001
40
0
40
0
40
0
40
0
40
1
40
1
40
1
40
1
41
1
41
1
41
1
41
1
10
-15.099533475178289
20
20.33750985795907
30
2.2204460492503131e-15
10
-15.243942637854268
20
19.856190385312821
30
2.2204460492503131e-15
10
-15.367167997753308
20
19.368910717986555
30
2.2204460492503131e-15
10
-15.253497670582002
20
18.864856639870272
30
2.2204460492503131e-15
0
SPLINE
5
224
100
AcDbEntity
8
0
100
AcDbSpline
70
4
71
3
72
8
73
4
74
0
42
0.000000001
43
0.0000000001
44
0.0000000001
40
0
40
0
40
0
40
0
40
1
40
1
40
1
40
1
41
1
41
1
41
1
41
1
10
-22.336883927574831
20
29.52359375415131
30
2.2204460492503131e-15
10
-23.982747315522595
20
28.631395273378185
30
2.2204460492503131e-15
10
-25.426331308667194
20
27.499964550809636
30
2.2204460492503131e-15
10
-26.430020172257194
20
25.881831999178896
30
4.4408920985006262e-15
0
SPLINE
5
225
100
AcDbEntity
8
0
100
AcDbSpline
70
4
71
3
72
8
73
4
74
0
42
0.000000001
43
0.0000000001
44
0.0000000001
40
0
40
0
40
0
40
0
40
1
40
1
40
1
40
1
41
1
41
1
41
1
41
1
10
15.74761880214578
20
19.776680920250442
30
0
10
15.615153430379472
20
19.754024619965726
30
0
10
15.57775145364614
20
19.626576180417242
30
0
10
15.521936957648395
20
19.522813709337377
30
2.2204460492503131e-15
0
SPLINE
5
226
100
AcDbEntity
8
0
100
AcDbSpline
70
4
71
3
72
8
73
4
74
0
42
0.000000001
43
0.0000000001
44
0.0000000001
40
0
40
0
40
0
40
0
40
1
40
1
40
1
40
1
41
1
41
1
41
1
41
1
10
-6.7892687751341541
20
23.121419406545158
30
2.2204460492503131e-15
10
-6.8329684688979793
20
22.521079652457274
30
2.2204460492503131e-15
10
-7.0392765304766938
20
21.952632610282969
30
2.2204460492503131e-15
10
-7.2314104534536625
20
21.384900215432122
30
2.2204460492503131e-15
0
SPLINE
5
227
100
AcDbEntity
8
0
100
AcDbSpline
70
4
71
3
72
8
73
4
74
0
42
0.000000001
43
0.0000000001
44
0.0000000001
40
0
40
0
40
0
40
0
40
1
40
1
40
1
40
1
41
1
41
1
41
1
41
1
10
19.806542881321974
20
21.224959624275584
30
-4.4408920985006262e-15
10
21.715227273096826
20
20.526128148133228
30
-4.4408920985006262e-15
10
22.83789771556561
20
19.200286351796368
30
-4.4408920985006262e-15
10
23.015171654524572
20
17.088776229040334
30
-4.4408920985006262e-15
0
SPLINE
5
228
100
AcDbEntity
8
0
100
AcDbSpline
70
4
71
3
72
8
73
4
74
0
42
0.000000001
43
0.0000000001
44
0.0000000001
40
0
40
0
40
0
40
0
40
1
40
1
40
1
40
1
41
1
41
1
41
1
41
1
10
-3.8024929928848268
20
21.174871307461494
30
2.2204460492503131e-15
10
-4.0214558924582757
20
20.534518503736841
30
2.2204460492503131e-15
10
-4.295851662758488
20
19.912406307892763
30
2.2204460492503131e-15
10
-4.4239229435511094
20
19.242293933509696
30
2.2204460492503131e-15
0
SPLINE
5
229
100
AcDbEntity
8
0
100
AcDbSpline
70
4
71
3
72
8
73
4
74
0
42
0.000000001
43
0.0000000001
44
0.0000000001
40
0
40
0
40
0
40
0
40
1
40
1
40
1
40
1
41
1
41
1
41
1
41
1
10
-16.087154474765335
20
17.596027318860532
30
2.2204460492503131e-15
10
-16.205019079678852
20
17.415496964263934
30
2.2204460492503131e-15
10
-16.298985302057815
20
17.213537990678848
30
2.2204460492503131e-15
10
-16.479645265237007
20
17.085393805058526
30
2.2204460492503131e-15
0
SPLINE
5
230
100
AcDbEntity
8
0
100
AcDbSpline
70
4
71
3
72
8
73
4
74
0
42
0.000000001
43
0.0000000001
44
0.0000000001
40
0
40
0
40
0
40
0
40
1
40
1
40
1
40
1
41
1
41
1
41
1
41
1
10
-16.479645265237007
20
17.085393805058526
30
2.2204460492503131e-15
10
-16.876081917000914
20
16.80419358417225
30
2.2204460492503131e-15
10
-18.02554803386094
20
17.216886212395796
30
2.2204460492503131e-15
10
-18.161482235330787
20
17.68552204514009
30
2.2204460492503131e-15
0
SPLINE
5
231
100
AcDbEntity
8
0
100
AcDbSpline
70
4
71
3
72
8
73
4
74
0
42
0.000000001
43
0.0000000001
44
0.0000000001
40
0
40
0
40
0
40
0
40
1
40
1
40
1
40
1
41
1
41
1
41
1
41
1
10
-21.862462511713169
20
18.313385621836673
30
2.2204460492503131e-15
10
-22.226781436663185
20
17.831787130714005
30
2.2204460492503131e-15
10
-22.635638910925472
20
17.392150318265003
30
2.2204460492503131e-15
10
-23.198975414683417
20
17.140102127806234
30
2.2204460492503131e-15
0
SPLINE
5
232
100
AcDbEntity
8
0
100
AcDbSpline
70
4
71
3
72
8
73
4
74
0
42
0.000000001
43
0.0000000001
44
0.0000000001
40
0
40
0
40
0
40
0
40
1
40
1
40
1
40
1
41
1
41
1
41
1
41
1
10
-21.045608020167474
20
17.114632241207769
30
2.2204460492503131e-15
10
-21.692099230373209
20
17.390837131306661
30
2.2204460492503131e-15
10
-21.787566752167212
20
17.624891330215622
30
2.2204460492503131e-15
10
-21.539413119603395
20
18.27989350401154
30
2.2204460492503131e-15
0
SPLINE
5
233
100
AcDbEntity
8
0
100
AcDbSpline
70
4
71
3
72
8
73
4
74
0
42
0.000000001
43
0.0000000001
44
0.0000000001
40
0
40
0
40
0
40
0
40
1
40
1
40
1
40
1
41
1
41
1
41
1
41
1
10
-16.218275157487255
20
25.19445108128469
30
2.2204460492503131e-15
10
-15.448414577846261
20
25.22876675364504
30
2.2204460492503131e-15
10
-14.846724734356403
20
24.781757553001533
30
2.2204460492503131e-15
10
-14.652268657607992
20
24.033491203315673
30
2.2204460492503131e-15
0
SPLINE
5
234
100
AcDbEntity
8
0
100
AcDbSpline
70
4
71
3
72
8
73
4
74
0
42
0.000000001
43
0.0000000001
44
0.0000000001
40
0
40
0
40
0
40
0
40
1
40
1
40
1
40
1
41
1
41
1
41
1
41
1
10
16.946525192906904
20
18.801552747929861
30
0
10
17.011430290878117
20
19.146645499735836
30
0
10
17.086544764907202
20
19.489819324471785
30
0
10
17.163739276674974
20
19.866949697787142
30
0
0
SPLINE
5
235
100
AcDbEntity
8
0
100
AcDbSpline
70
4
71
3
72
8
73
4
74
0
42
0.000000001
43
0.0000000001
44
0.0000000001
40
0
40
0
40
0
40
0
40
1
40
1
40
1
40
1
41
1
41
1
41
1
41
1
10
8.5903070498572163
20
18.285098548686047
30
2.2204460492503131e-15
10
8.0390817480947643
20
18.348399740447654
30
2.2204460492503131e-15
10
7.6812954557312221
20
18.769578130592564
30
2.2204460492503131e-15
10
7.713776806624062
20
19.312169160599435
30
2.2204460492503131e-15
0
SPLINE
5
236
100
AcDbEntity
8
0
100
AcDbSpline
70
4
71
3
72
8
73
4
74
0
42
0.000000001
43
0.0000000001
44
0.0000000001
40
0
40
0
40
0
40
0
40
1
40
1
40
1
40
1
41
1
41
1
41
1
41
1
10
-16.801067349587573
20
23.389905385503035
30
2.2204460492503131e-15
10
-17.01049321762531
20
23.475101427126638
30
2.2204460492503131e-15
10
-17.187624947167283
20
23.361450901266551
30
2.2204460492503131e-15
10
-17.329276327224765
20
23.216805922975027
30
2.2204460492503131e-15
0
SPLINE
5
237
100
AcDbEntity
8
0
100
AcDbSpline
70
4
71
3
72
8
73
4
74
0
42
0.000000001
43
0.0000000001
44
0.0000000001
40
0
40
0
40
0
40
0
40
1
40
1
40
1
40
1
41
1
41
1
41
1
41
1
10
11.905597386115579
20
20.471093103750238
30
2.2204460492503131e-15
10
12.0329342182735
20
20.416099462108903
30
2.2204460492503131e-15
10
12.135238592799212
20
20.473823884580682
30
2.2204460492503131e-15
10
12.234466563607569
20
20.503174828180089
30
2.2204460492503131e-15
0
SPLINE
5
238
100
AcDbEntity
8
0
100
AcDbSpline
70
4
71
3
72
8
73
4
74
0
42
0.000000001
43
0.0000000001
44
0.0000000001
40
0
40
0
40
0
40
0
40
1
40
1
40
1
40
1
41
1
41
1
41
1
41
1
10
13.188029307880241
20
30.766691271218612
30
2.2204460492503131e-15
10
12.547525294142554
20
31.046492799484426
30
2.2204460492503131e-15
10
12.288018309767567
20
31.864736983054573
30
2.2204460492503131e-15
10
12.622156436165747
20
32.588723324934918
30
2.2204460492503131e-15
0
SPLINE
5
239
100
AcDbEntity
8
0
100
AcDbSpline
70
4
71
3
72
8
73
4
74
0
42
0.000000001
43
0.0000000001
44
0.0000000001
40
0
40
0
40
0
40
0
40
1
40
1
40
1
40
1
41
1
41
1
41
1
41
1
10
-4.4654156911724705
20
17.141001287347972
30
2.2204460492503131e-15
10
-5.4328213521136304
20
16.677742410662034
30
2.2204460492503131e-15
10
-6.3193728589479932
20
17.169938203530762
30
2.2204460492503131e-15
10
-6.4337164307010966
20
18.233002198901396
30
2.2204460492503131e-15
0
SPLINE
5
240
100
AcDbEntity
8
0
100
AcDbSpline
70
4
71
3
72
8
73
4
74
0
42
0.000000001
43
0.0000000001
44
0.0000000001
40
0
40
0
40
0
40
0
40
1
40
1
40
1
40
1
41
1
41
1
41
1
41
1
10
-12.513737845560398
20
17.904160023197445
30
2.2204460492503131e-15
10
-12.839563021480686
20
17.558313921505157
30
2.2204460492503131e-15
10
-13.215895941989261
20
17.268049200373863
30
2.2204460492503131e-15
10
-13.673360234961841
20
17.117007498495678
30
2.2204460492503131e-15
0
SPLINE
5
241
100
AcDbEntity
8
0
100
AcDbSpline
70
4
71
3
72
8
73
4
74
0
42
0.000000001
43
0.0000000001
44
0.0000000001
40
0
40
0
40
0
40
0
40
1
40
1
40
1
40
1
41
1
41
1
41
1
41
1
10
9.2633014150837383
20
18.337616126364111
30
2.2204460492503131e-15
10
9.043456457101005
20
18.292651848860409
30
2.2204460492503131e-15
10
8.8187691784630857
20
18.258862711366838
30
2.2204460492503131e-15
10
8.5903070498572163
20
18.285098548686047
30
2.2204460492503131e-15
0
SPLINE
5
242
100
AcDbEntity
8
0
100
AcDbSpline
70
4
71
3
72
8
73
4
74
0
42
0.000000001
43
0.0000000001
44
0.0000000001
40
0
40
0
40
0
40
0
40
1
40
1
40
1
40
1
41
1
41
1
41
1
41
1
10
-28.057536745291426
20
23.298174911173767
30
4.4408920985006262e-15
10
-27.897012915513216
20
25.590905734240629
30
4.4408920985006262e-15
10
-26.729621211633106
20
27.354822739618186
30
4.4408920985006262e-15
10
-25.082353730707275
20
28.837492721010189
30
2.2204460492503131e-15
0
SPLINE
5
243
100
AcDbEntity
8
0
100
AcDbSpline
70
4
71
3
72
8
73
4
74
0
42
0.000000001
43
0.0000000001
44
0.0000000001
40
0
40
0
40
0
40
0
40
1
40
1
40
1
40
1
41
1
41
1
41
1
41
1
10
9.1405674877270133
20
23.530989728011704
30
2.2204460492503131e-15
10
9.0922540884467509
20
22.575317244033503
30
2.2204460492503131e-15
10
8.8163894208771669
20
21.707207958430409
30
2.2204460492503131e-15
10
8.1070740504985235
20
21.037603217662483
30
2.2204460492503131e-15
0
SPLINE
5
244
100
AcDbEntity
8
0
100
AcDbSpline
70
4
71
3
72
8
73
4
74
0
42
0.000000001
43
0.0000000001
44
0.0000000001
40
0
40
0
40
0
40
0
40
1
40
1
40
1
40
1
41
1
41
1
41
1
41
1
10
23.015171654524572
20
17.088776229040334
30
-4.4408920985006262e-15
10
23.229730562468703
20
17.382144355677017
30
-4.4408920985006262e-15
10
23.34707673305185
20
17.638970962559245
30
-4.4408920985006262e-15
10
23.465989007341328
20
17.897390674935846
30
-4.4408920985006262e-15
0
SPLINE
5
245
100
AcDbEntity
8
0
100
AcDbSpline
70
4
71
3
72
8
73
4
74
0
42
0.000000001
43
0.0000000001
44
0.0000000001
40
0
40
0
40
0
40
0
40
1
40
1
40
1
40
1
41
1
41
1
41
1
41
1
10
-6.4337164307010966
20
18.233002198901396
30
2.2204460492503131e-15
10
-6.4429798441180042
20
18.319129802212373
30
2.2204460492503131e-15
10
-6.4474441397406039
20
18.405774939794117
30
2.2204460492503131e-15
10
-6.4564231343234901
20
18.521654913286699
30
2.2204460492503131e-15
0
SPLINE
5
246
100
AcDbEntity
8
0
100
AcDbSpline
70
4
71
3
72
8
73
4
74
0
42
0.000000001
43
0.0000000001
44
0.0000000001
40
0
40
0
40
0
40
0
40
1
40
1
40
1
40
1
41
1
41
1
41
1
41
1
10
-23.030999091406184
20
25.083419728864477
30
2.2204460492503131e-15
10
-22.374747634883619
20
24.858390427578072
30
2.2204460492503131e-15
10
-21.979268646535523
20
24.195429926787178
30
2.2204460492503131e-15
10
-21.985561863268028
20
23.365151946347225
30
2.2204460492503131e-15
0
SPLINE
5
247
100
AcDbEntity
8
0
100
AcDbSpline
70
4
71
3
72
8
73
4
74
0
42
0.000000001
43
0.0000000001
44
0.0000000001
40
0
40
0
40
0
40
0
40
1
40
1
40
1
40
1
41
1
41
1
41
1
41
1
10
-27.580699569459803
20
20.47806856566055
30
4.4408920985006262e-15
10
-27.941166239316132
20
21.383332311606598
30
4.4408920985006262e-15
10
-28.126049282144749
20
22.319630112606546
30
4.4408920985006262e-15
10
-28.057536745291426
20
23.298174911173767
30
4.4408920985006262e-15
0
SPLINE
5
248
100
AcDbEntity
8
0
100
AcDbSpline
70
4
71
3
72
8
73
4
74
0
42
0.000000001
43
0.0000000001
44
0.0000000001
40
0
40
0
40
0
40
0
40
1
40
1
40
1
40
1
41
1
41
1
41
1
41
1
10
-10.965692935085297
20
24.021639218485348
30
2.2204460492503131e-15
10
-10.936617409723899
20
23.932283101384392
30
2.2204460492503131e-15
10
-10.949844685625067
20
23.821698178526447
30
2.2204460492503131e-15
10
-10.840836667188647
20
23.765343646767889
30
2.2204460492503131e-15
0
SPLINE
5
249
100
AcDbEntity
8
0
100
AcDbSpline
70
4
71
3
72
8
73
4
74
0
42
0.000000001
43
0.0000000001
44
0.0000000001
40
0
40
0
40
0
40
0
40
1
40
1
40
1
40
1
41
1
41
1
41
1
41
1
10
-7.5753052259302684
20
31.16106138613786
30
2.2204460492503131e-15
10
-9.8818087610166927
20
31.60722453075612
30
2.2204460492503131e-15
10
-12.209866923435786
20
31.79905963394544
30
2.2204460492503131e-15
10
-14.552106424933468
20
31.644013566900931
30
2.2204460492503131e-15
0
SPLINE
5
250
100
AcDbEntity
8
0
100
AcDbSpline
70
4
71
3
72
8
73
4
74
0
42
0.000000001
43
0.0000000001
44
0.0000000001
40
0
40
0
40
0
40
0
40
1
40
1
40
1
40
1
41
1
41
1
41
1
41
1
10
-4.7082949744724809
20
25.147030541128959
30
2.2204460492503131e-15
10
-3.9077423624260925
20
25.255413918202052
30
2.2204460492503131e-15
10
-3.1281215364682686
20
24.905476145562112
30
2.2204460492503131e-15
10
-3.1648115660569247
20
23.856031852078825
30
2.2204460492503131e-15
0
SPLINE
5
251
100
AcDbEntity
8
0
100
AcDbSpline
70
4
71
3
72
8
73
4
74
0
42
0.000000001
43
0.0000000001
44
0.0000000001
40
0
40
0
40
0
40
0
40
1
40
1
40
1
40
1
41
1
41
1
41
1
41
1
10
-10.573040133885389
20
24.023487940906485
30
2.2204460492503131e-15
10
-10.132133337338908
20
24.540786396056347
30
2.2204460492503131e-15
10
-9.6366145244220647
20
24.995656717257884
30
2.2204460492503131e-15
10
-8.9520039899807387
20
25.140670719985955
30
2.2204460492503131e-15
0
SPLINE
5
252
100
AcDbEntity
8
0
100
AcDbSpline
70
4
71
3
72
8
73
4
74
0
42
0.000000001
43
0.0000000001
44
0.0000000001
40
0
40
0
40
0
40
0
40
1
40
1
40
1
40
1
41
1
41
1
41
1
41
1
10
5.4816793986604804
20
21.744070799462527
30
2.2204460492503131e-15
10
6.0739438180051897
20
21.894470758844964
30
2.2204460492503131e-15
10
6.5160332928678431
20
22.247792755585909
30
2.2204460492503131e-15
10
6.8243649103766382
20
22.800530157478573
30
2.2204460492503131e-15
0
SPLINE
5
253
100
AcDbEntity
8
0
100
AcDbSpline
70
4
71
3
72
8
73
4
74
0
42
0.000000001
43
0.0000000001
44
0.0000000001
40
0
40
0
40
0
40
0
40
1
40
1
40
1
40
1
41
1
41
1
41
1
41
1
10
17.836353816749721
20
32.250608735218051
30
2.2204460492503131e-15
10
16.934892822619311
20
33.015133761542359
30
2.2204460492503131e-15
10
14.868970718670687
20
33.053811122730757
30
0
10
14.025781383249644
20
31.867257149938297
30
0
0
SPLINE
5
254
100
AcDbEntity
8
0
100
AcDbSpline
70
4
71
3
72
8
73
4
74
0
42
0.000000001
43
0.0000000001
44
0.0000000001
40
0
40
0
40
0
40
0
40
1
40
1
40
1
40
1
41
1
41
1
41
1
41
1
10
10.970516465696626
20
28.767923514184908
30
2.2204460492503131e-15
10
12.611742746578336
20
28.570320829070258
30
2.2204460492503131e-15
10
14.262939887723608
20
28.491380201675909
30
0
10
15.900995258629811
20
28.816915558404563
30
0
0
SPLINE
5
255
100
AcDbEntity
8
0
100
AcDbSpline
70
4
71
3
72
8
73
4
74
0
42
0.000000001
43
0.0000000001
44
0.0000000001
40
0
40
0
40
0
40
0
40
1
40
1
40
1
40
1
41
1
41
1
41
1
41
1
10
-6.3465510586697915
20
20.635742806740957
30
2.2204460492503131e-15
10
-5.7063242632893241
20
21.96758620049949
30
2.2204460492503131e-15
10
-5.1519451526838189
20
23.329808405922158
30
2.2204460492503131e-15
10
-5.0271572893168699
20
24.82478400218357
30
2.2204460492503131e-15
0
SPLINE
5
256
100
AcDbEntity
8
0
100
AcDbSpline
70
4
71
3
72
8
73
4
74
0
42
0.000000001
43
0.0000000001
44
0.0000000001
40
0
40
0
40
0
40
0
40
1
40
1
40
1
40
1
41
1
41
1
41
1
41
1
10
-10.088415642383058
20
18.347109054979356
30
2.2204460492503131e-15
10
-10.102910202202885
20
18.614069432912981
30
2.2204460492503131e-15
10
-10.055682274801836
20
18.873890538088837
30
2.2204460492503131e-15
10
-10.009581222021655
20
19.135942891016413
30
2.2204460492503131e-15
0
SPLINE
5
257
100
AcDbEntity
8
0
100
AcDbSpline
70
4
71
3
72
8
73
4
74
0
42
0.000000001
43
0.0000000001
44
0.0000000001
40
0
40
0
40
0
40
0
40
1
40
1
40
1
40
1
41
1
41
1
41
1
41
1
10
-9.8506234959497601
20
23.043269031480772
30
2.2204460492503131e-15
10
-10.36361786608607
20
22.418991292235894
30
2.2204460492503131e-15
10
-10.799261114083968
20
21.770559553529701
30
2.2204460492503131e-15
10
-10.971017687686778
20
20.942132095630086
30
2.2204460492503131e-15
0
SPLINE
5
258
100
AcDbEntity
8
0
100
AcDbSpline
70
4
71
3
72
8
73
4
74
0
42
0.000000001
43
0.0000000001
44
0.0000000001
40
0
40
0
40
0
40
0
40
1
40
1
40
1
40
1
41
1
41
1
41
1
41
1
10
-22.327285691986223
20
21.728852591723214
30
2.2204460492503131e-15
10
-22.564289386208749
20
21.062621274341076
30
2.2204460492503131e-15
10
-22.809642033293215
20
20.399363753881751
30
2.2204460492503131e-15
10
-23.051182027906442
20
19.734747143424404
30
2.2204460492503131e-15
0
SPLINE
5
259
100
AcDbEntity
8
0
100
AcDbSpline
70
4
71
3
72
8
73
4
74
0
42
0.000000001
43
0.0000000001
44
0.0000000001
40
0
40
0
40
0
40
0
40
1
40
1
40
1
40
1
41
1
41
1
41
1
41
1
10
5.0800764047849123
20
13.258499690747907
30
2.2204460492503131e-15
10
4.0147550599341555
20
12.497399391206677
30
2.2204460492503131e-15
10
2.832060542712183
20
12.262130111835923
30
2.2204460492503131e-15
10
1.5553295984623741
20
12.569195345485657
30
2.2204460492503131e-15
0
SPLINE
5
260
100
AcDbEntity
8
0
100
AcDbSpline
70
4
71
3
72
8
73
4
74
0
42
0.000000001
43
0.0000000001
44
0.0000000001
40
0
40
0
40
0
40
0
40
1
40
1
40
1
40
1
41
1
41
1
41
1
41
1
10
18.654904920643929
20
28.356184049079168
30
2.2204460492503131e-15
10
17.719226360649703
20
27.711006925891368
30
0
10
16.642500360590471
20
27.440434608777604
30
0
10
15.542518620552048
20
27.250876656379653
30
0
0
SPLINE
5
261
100
AcDbEntity
8
0
100
AcDbSpline
70
4
71
3
72
8
73
4
74
0
42
0.000000001
43
0.0000000001
44
0.0000000001
40
0
40
0
40
0
40
0
40
1
40
1
40
1
40
1
41
1
41
1
41
1
41
1
10
15.900995258629811
20
28.816915558404563
30
0
10
16.644664103872081
20
28.96470354482393
30
0
10
17.379977695835159
20
29.15894000702961
30
0
10
17.942812866395176
20
29.725754341087097
30
2.2204460492503131e-15
0
SPLINE
5
262
100
AcDbEntity
8
0
100
AcDbSpline
70
4
71
3
72
8
73
4
74
0
42
0.000000001
43
0.0000000001
44
0.0000000001
40
0
40
0
40
0
40
0
40
1
40
1
40
1
40
1
41
1
41
1
41
1
41
1
10
4.7215574639058637
20
20.328680273270017
30
2.2204460492503131e-15
10
5.2934409336380748
20
19.667618898237937
30
2.2204460492503131e-15
10
5.8897952238112623
20
19.021944942150203
30
2.2204460492503131e-15
10
6.2927195051815694
20
18.237521398159679
30
2.2204460492503131e-15
0
SPLINE
5
263
100
AcDbEntity
8
0
100
AcDbSpline
70
4
71
3
72
8
73
4
74
0
42
0.000000001
43
0.0000000001
44
0.0000000001
40
0
40
0
40
0
40
0
40
1
40
1
40
1
40
1
41
1
41
1
41
1
41
1
10
1.5829884300112618
20
20.889574015269957
30
2.2204460492503131e-15
10
0.3878496887413066
20
23.469231238406753
30
2.2204460492503131e-15
10
1.9620755328999144
20
26.14261886830699
30
2.2204460492503131e-15
10
4.4206423375120254
20
26.786705119257974
30
2.2204460492503131e-15
0
SPLINE
5
264
100
AcDbEntity
8
0
100
AcDbSpline
70
4
71
3
72
8
73
4
74
0
42
0.000000001
43
0.0000000001
44
0.0000000001
40
0
40
0
40
0
40
0
40
1
40
1
40
1
40
1
41
1
41
1
41
1
41
1
10
2.5803678757959485
20
16.552531519282446
30
2.2204460492503131e-15
10
1.9297363914240884
20
16.297717445668788
30
2.2204460492503131e-15
10
1.5361655294308296
20
15.809421611052624
30
2.2204460492503131e-15
10
1.4501936364308741
20
15.126836210714302
30
2.2204460492503131e-15
0
SPLINE
5
265
100
AcDbEntity
8
0
100
AcDbSpline
70
4
71
3
72
8
73
4
74
0
42
0.000000001
43
0.0000000001
44
0.0000000001
40
0
40
0
40
0
40
0
40
1
40
1
40
1
40
1
41
1
41
1
41
1
41
1
10
-3.2041189689662648
20
18.271020716461624
30
2.2204460492503131e-15
10
-3.5542925572217481
20
17.818347440746937
30
2.2204460492503131e-15
10
-3.93551820172318
20
17.394749690393656
30
2.2204460492503131e-15
10
-4.4654156911724705
20
17.141001287347972
30
2.2204460492503131e-15
0
SPLINE
5
266
100
AcDbEntity
8
0
100
AcDbSpline
70
4
71
3
72
8
73
4
74
0
42
0.000000001
43
0.0000000001
44
0.0000000001
40
0
40
0
40
0
40
0
40
1
40
1
40
1
40
1
41
1
41
1
41
1
41
1
10
3.4848377691736205
20
22.340302681529927
30
2.2204460492503131e-15
10
3.6828580819432704
20
21.535685400323928
30
2.2204460492503131e-15
10
4.1998883193319356
20
20.931696804612262
30
2.2204460492503131e-15
10
4.7215574639058637
20
20.328680273270017
30
2.2204460492503131e-15
0
SPLINE
5
267
100
AcDbEntity
8
0
100
AcDbSpline
70
4
71
3
72
8
73
4
74
0
42
0.000000001
43
0.0000000001
44
0.0000000001
40
0
40
0
40
0
40
0
40
1
40
1
40
1
40
1
41
1
41
1
41
1
41
1
10
-6.4564231343234901
20
18.521654913286699
30
2.2204460492503131e-15
10
-6.6142863879201546
20
18.457684077181685
30
2.2204460492503131e-15
10
-6.6712421594923965
20
18.329142065217582
30
2.2204460492503131e-15
10
-6.74979576125817
20
18.225660412733337
30
2.2204460492503131e-15
0
SPLINE
5
268
100
AcDbEntity
8
0
100
AcDbSpline
70
4
71
3
72
8
73
4
74
0
42
0.000000001
43
0.0000000001
44
0.0000000001
40
0
40
0
40
0
40
0
40
1
40
1
40
1
40
1
41
1
41
1
41
1
41
1
10
6.2927195051815694
20
18.237521398159679
30
2.2204460492503131e-15
10
7.188215804333967
20
16.494132052109677
30
2.2204460492503131e-15
10
6.6797325329195498
20
14.40134946947853
30
2.2204460492503131e-15
10
5.0800764047849123
20
13.258499690747907
30
2.2204460492503131e-15
0
SPLINE
5
269
100
AcDbEntity
8
0
100
AcDbSpline
70
4
71
3
72
8
73
4
74
0
42
0.000000001
43
0.0000000001
44
0.0000000001
40
0
40
0
40
0
40
0
40
1
40
1
40
1
40
1
41
1
41
1
41
1
41
1
10
-12.58231158646662
20
25.189619561344742
30
2.2204460492503131e-15
10
-11.871876541943909
20
25.259514589745717
30
2.2204460492503131e-15
10
-11.209994312555413
20
24.772454536962169
30
2.2204460492503131e-15
10
-10.965692935085297
20
24.021639218485348
30
2.2204460492503131e-15
0
SPLINE
5
270
100
AcDbEntity
8
0
100
AcDbSpline
70
4
71
3
72
8
73
4
74
0
42
0.000000001
43
0.0000000001
44
0.0000000001
40
0
40
0
40
0
40
0
40
1
40
1
40
1
40
1
41
1
41
1
41
1
41
1
10
-9.5149732694213487
20
23.327257637011979
30
2.2204460492503131e-15
10
-9.6394803141926957
20
23.252909113703627
30
2.2204460492503131e-15
10
-9.7588210168523872
20
23.154989829555603
30
2.2204460492503131e-15
10
-9.8506234959497601
20
23.043269031480772
30
2.2204460492503131e-15
0
SPLINE
5
271
100
AcDbEntity
8
0
100
AcDbSpline
70
4
71
3
72
8
73
4
74
0
42
0.000000001
43
0.0000000001
44
0.0000000001
40
0
40
0
40
0
40
0
40
1
40
1
40
1
40
1
41
1
41
1
41
1
41
1
10
-10.840836667188647
20
23.765343646767889
30
2.2204460492503131e-15
10
-10.709190349659547
20
23.806838194508458
30
2.2204460492503131e-15
10
-10.653667472972632
20
23.928888076568171
30
2.2204460492503131e-15
10
-10.573040133885389
20
24.023487940906485
30
2.2204460492503131e-15
0
SPLINE
5
272
100
AcDbEntity
8
0
100
AcDbSpline
70
4
71
3
72
8
73
4
74
0
42
0.000000001
43
0.0000000001
44
0.0000000001
40
0
40
0
40
0
40
0
40
1
40
1
40
1
40
1
41
1
41
1
41
1
41
1
10
-3.1648115660569247
20
23.856031852078825
30
2.2204460492503131e-15
10
-3.1975773357837838
20
22.918817790404713
30
2.2204460492503131e-15
10
-3.5039468233616962
20
22.047957922659958
30
2.2204460492503131e-15
10
-3.8024929928848268
20
21.174871307461494
30
2.2204460492503131e-15
0
SPLINE
5
273
100
AcDbEntity
8
0
100
AcDbSpline
70
4
71
3
72
8
73
4
74
0
42
0.000000001
43
0.0000000001
44
0.0000000001
40
0
40
0
40
0
40
0
40
1
40
1
40
1
40
1
41
1
41
1
41
1
41
1
10
0.54023517960429046
20
23.732522073345752
30
2.2204460492503131e-15
10
0.26367566602245762
20
21.648419665509856
30
2.2204460492503131e-15
10
-0.34473402245095403
20
19.650600571295961
30
2.2204460492503131e-15
10
-1.0823400662186362
20
17.690421969609744
30
2.2204460492503131e-15
0
SPLINE
5
274
100
AcDbEntity
8
0
100
AcDbSpline
70
4
71
3
72
8
73
4
74
0
42
0.000000001
43
0.0000000001
44
0.0000000001
40
0
40
0
40
0
40
0
40
1
40
1
40
1
40
1
41
1
41
1
41
1
41
1
10
0.79446961483467415
20
17.660878413255649
30
2.2204460492503131e-15
10
1.3747434401704992
20
17.988764725662975
30
2.2204460492503131e-15
10
1.9539317936270755
20
17.989614381926629
30
2.2204460492503131e-15
10
2.516800266392341
20
17.609395904119111
30
2.2204460492503131e-15
0
SPLINE
5
275
100
AcDbEntity
8
0
100
AcDbSpline
70
4
71
3
72
8
73
4
74
0
42
0.000000001
43
0.0000000001
44
0.0000000001
40
0
40
0
40
0
40
0
40
1
40
1
40
1
40
1
41
1
41
1
41
1
41
1
10
-8.8586174059850276
20
22.956532087819696
30
2.2204460492503131e-15
10
-8.8620052303244385
20
23.373491898613157
30
2.2204460492503131e-15
10
-9.1562383142379922
20
23.541489823320816
30
2.2204460492503131e-15
10
-9.5149732694213487
20
23.327257637011979
30
2.2204460492503131e-15
0
SPLINE
5
276
100
AcDbEntity
8
0
100
AcDbSpline
70
4
71
3
72
8
73
4
74
0
42
0.000000001
43
0.0000000001
44
0.0000000001
40
0
40
0
40
0
40
0
40
1
40
1
40
1
40
1
41
1
41
1
41
1
41
1
10
1.4501936364308741
20
15.126836210714302
30
2.2204460492503131e-15
10
1.3405555762735342
20
14.256364268657705
30
2.2204460492503131e-15
10
1.8679689012231444
20
13.811333399017931
30
2.2204460492503131e-15
10
2.7134542886871733
20
13.910410159813257
30
2.2204460492503131e-15
0
SPLINE
5
277
100
AcDbEntity
8
0
100
AcDbSpline
70
4
71
3
72
8
73
4
74
0
42
0.000000001
43
0.0000000001
44
0.0000000001
40
0
40
0
40
0
40
0
40
1
40
1
40
1
40
1
41
1
41
1
41
1
41
1
10
-8.9520039899807387
20
25.140670719985955
30
2.2204460492503131e-15
10
-7.468165731226212
20
25.454973332889995
30
2.2204460492503131e-15
10
-6.6945897055509285
20
24.422057733925563
30
2.2204460492503131e-15
10
-6.7892687751341541
20
23.121419406545158
30
2.2204460492503131e-15
0
SPLINE
5
278
100
AcDbEntity
8
0
100
AcDbSpline
70
4
71
3
72
8
73
4
74
0
42
0.000000001
43
0.0000000001
44
0.0000000001
40
0
40
0
40
0
40
0
40
1
40
1
40
1
40
1
41
1
41
1
41
1
41
1
10
-7.423785592403779
20
18.993770376449739
30
2.2204460492503131e-15
10
-6.9310317625822115
20
19.453645929094279
30
2.2204460492503131e-15
10
-6.6314883270207954
20
20.042997755569104
30
2.2204460492503131e-15
10
-6.3465510586697915
20
20.635742806740957
30
2.2204460492503131e-15
0
SPLINE
5
279
100
AcDbEntity
8
0
100
AcDbSpline
70
4
71
3
72
8
73
4
74
0
42
0.000000001
43
0.0000000001
44
0.0000000001
40
0
40
0
40
0
40
0
40
1
40
1
40
1
40
1
41
1
41
1
41
1
41
1
10
-2.7063572075228897
20
18.654555913900055
30
2.2204460492503131e-15
10
-2.6528360633893322
20
18.810643349903295
30
2.2204460492503131e-15
10
-2.6041428389573156
20
18.968384195394187
30
2.2204460492503131e-15
10
-2.5857708223749509
20
19.142480923960466
30
2.2204460492503131e-15
0
SPLINE
5
280
100
AcDbEntity
8
0
100
AcDbSpline
70
4
71
3
72
8
73
4
74
0
42
0.000000001
43
0.0000000001
44
0.0000000001
40
0
40
0
40
0
40
0
40
1
40
1
40
1
40
1
41
1
41
1
41
1
41
1
10
-3.9253403277513148
20
18.949343434528032
30
2.2204460492503131e-15
10
-3.4604019398493051
20
19.349028401393152
30
2.2204460492503131e-15
10
-3.1645415481765311
20
19.874117772452134
30
2.2204460492503131e-15
10
-2.8877624200519838
20
20.404827115661831
30
2.2204460492503131e-15
0
SPLINE
5
281
100
AcDbEntity
8
0
100
AcDbSpline
70
4
71
3
72
8
73
4
74
0
42
0.000000001
43
0.0000000001
44
0.0000000001
40
0
40
0
40
0
40
0
40
1
40
1
40
1
40
1
41
1
41
1
41
1
41
1
10
6.5572434217743805
20
27.731254666682922
30
2.2204460492503131e-15
10
4.0305655068911221
20
28.222096769911253
30
2.2204460492503131e-15
10
1.5471174546598245
20
28.887815053320619
30
2.2204460492503131e-15
10
-0.93642600388924302
20
29.554103974517233
30
2.2204460492503131e-15
0
SPLINE
5
282
100
AcDbEntity
8
0
100
AcDbSpline
70
4
71
3
72
8
73
4
74
0
42
0.000000001
43
0.0000000001
44
0.0000000001
40
0
40
0
40
0
40
0
40
1
40
1
40
1
40
1
41
1
41
1
41
1
41
1
10
4.4206423375120254
20
26.786705119257974
30
2.2204460492503131e-15
10
5.2859758393046219
20
27.013401330926037
30
2.2204460492503131e-15
10
6.1373098140581108
20
27.022769151256689
30
2.2204460492503131e-15
10
7.0039736039414766
20
26.761660060791336
30
2.2204460492503131e-15
0
SPLINE
5
283
100
AcDbEntity
8
0
100
AcDbSpline
70
4
71
3
72
8
73
4
74
0
42
0.000000001
43
0.0000000001
44
0.0000000001
40
0
40
0
40
0
40
0
40
1
40
1
40
1
40
1
41
1
41
1
41
1
41
1
10
-7.9620896385294957
20
19.301499854085261
30
2.2204460492503131e-15
10
-7.9989164771775698
20
19.138427055516082
30
2.2204460492503131e-15
10
-8.0268759286333253
20
18.971836824024898
30
2.2204460492503131e-15
10
-7.8697867262937828
20
18.875566449066522
30
2.2204460492503131e-15
0
SPLINE
5
284
100
AcDbEntity
8
0
100
AcDbSpline
70
4
71
3
72
8
73
4
74
0
42
0.000000001
43
0.0000000001
44
0.0000000001
40
0
40
0
40
0
40
0
40
1
40
1
40
1
40
1
41
1
41
1
41
1
41
1
10
2.7134542886871733
20
13.910410159813257
30
2.2204460492503131e-15
10
4.3392139453796004
20
14.100923075448218
30
2.2204460492503131e-15
10
4.9816638879753619
20
15.873190833806934
30
2.2204460492503131e-15
10
4.3649232478320235
20
17.141636729426509
30
2.2204460492503131e-15
0
SPLINE
5
285
100
AcDbEntity
8
0
100
AcDbSpline
70
4
71
3
72
8
73
4
74
0
42
0.000000001
43
0.0000000001
44
0.0000000001
40
0
40
0
40
0
40
0
40
1
40
1
40
1
40
1
41
1
41
1
41
1
41
1
10
2.8479447945564766
20
17.240545179076392
30
2.2204460492503131e-15
10
3.0585227388839105
20
16.827103701264534
30
2.2204460492503131e-15
10
3.0126737027921084
20
16.721839930769654
30
2.2204460492503131e-15
10
2.5803678757959485
20
16.552531519282446
30
2.2204460492503131e-15
0
SPLINE
5
286
100
AcDbEntity
8
0
100
AcDbSpline
70
4
71
3
72
8
73
4
74
0
42
0.000000001
43
0.0000000001
44
0.0000000001
40
0
40
0
40
0
40
0
40
1
40
1
40
1
40
1
41
1
41
1
41
1
41
1
10
-2.8778617644373417
20
18.184216268330431
30
2.2204460492503131e-15
10
-2.8106849160323883
20
18.336604459372218
30
2.2204460492503131e-15
10
-2.7604939924237537
20
18.496683659707362
30
2.2204460492503131e-15
10
-2.7063572075228897
20
18.654555913900055
30
2.2204460492503131e-15
0
SPLINE
5
287
100
AcDbEntity
8
0
100
AcDbSpline
70
4
71
3
72
8
73
4
74
0
42
0.000000001
43
0.0000000001
44
0.0000000001
40
0
40
0
40
0
40
0
40
1
40
1
40
1
40
1
41
1
41
1
41
1
41
1
10
2.516800266392341
20
17.609395904119111
30
2.2204460492503131e-15
10
2.6574327789811121
20
17.514397313377408
30
2.2204460492503131e-15
10
2.7701292416637808
20
17.393323995985142
30
2.2204460492503131e-15
10
2.8479447945564766
20
17.240545179076392
30
2.2204460492503131e-15
0
SPLINE
5
288
100
AcDbEntity
8
0
100
AcDbSpline
70
4
71
3
72
8
73
4
74
0
42
0.000000001
43
0.0000000001
44
0.0000000001
40
0
40
0
40
0
40
0
40
1
40
1
40
1
40
1
41
1
41
1
41
1
41
1
10
-0.43960030443125409
20
25.153870994099073
30
2.2204460492503131e-15
10
-0.31034454520329041
20
25.137428705301961
30
2.2204460492503131e-15
10
-0.19211631621083852
20
25.095037698198471
30
2.2204460492503131e-15
10
-0.057118176726387929
20
25.027796045502214
30
2.2204460492503131e-15
0
SPLINE
5
289
100
AcDbEntity
8
0
100
AcDbSpline
70
4
71
3
72
8
73
4
74
0
42
0.000000001
43
0.0000000001
44
0.0000000001
40
0
40
0
40
0
40
0
40
1
40
1
40
1
40
1
41
1
41
1
41
1
41
1
10
-11.557377716046775
20
33.263146984808351
30
2.2204460492503131e-15
10
-9.313377919915208
20
33.228906917454516
30
2.2204460492503131e-15
10
-7.0924232498160942
20
32.969398132960308
30
2.2204460492503131e-15
10
-4.8953309598674961
20
32.508393005516098
30
2.2204460492503131e-15
0
SPLINE
5
290
100
AcDbEntity
8
0
100
AcDbSpline
70
4
71
3
72
8
73
4
74
0
42
0.000000001
43
0.0000000001
44
0.0000000001
40
0
40
0
40
0
40
0
40
1
40
1
40
1
40
1
41
1
41
1
41
1
41
1
10
1.5553295984623741
20
12.569195345485657
30
2.2204460492503131e-15
10
0.11731517413080012
20
12.915051347833568
30
2.2204460492503131e-15
10
-0.7338477892984252
20
14.326036082277556
30
2.2204460492503131e-15
10
-0.40444037616484957
20
15.786806713509577
30
2.2204460492503131e-15
0
SPLINE
5
291
100
AcDbEntity
8
0
100
AcDbSpline
70
4
71
3
72
8
73
4
74
0
42
0.000000001
43
0.0000000001
44
0.0000000001
40
0
40
0
40
0
40
0
40
1
40
1
40
1
40
1
41
1
41
1
41
1
41
1
10
-7.8697867262937828
20
18.875566449066522
30
2.2204460492503131e-15
10
-7.7006871286341028
20
18.771938086867259
30
2.2204460492503131e-15
10
-7.55377940050482
20
18.872450442726709
30
2.2204460492503131e-15
10
-7.423785592403779
20
18.993770376449739
30
2.2204460492503131e-15
0
SPLINE
5
292
100
AcDbEntity
8
0
100
AcDbSpline
70
4
71
3
72
8
73
4
74
0
42
0.000000001
43
0.0000000001
44
0.0000000001
40
0
40
0
40
0
40
0
40
1
40
1
40
1
40
1
41
1
41
1
41
1
41
1
10
-2.8877624200519838
20
20.404827115661831
30
2.2204460492503131e-15
10
-2.2048800000452227
20
21.714224823082379
30
2.2204460492503131e-15
10
-1.621040138568957
20
23.062623913147799
30
2.2204460492503131e-15
10
-1.3389866611806105
20
24.524794137059892
30
2.2204460492503131e-15
0
SPLINE
5
293
100
AcDbEntity
8
0
100
AcDbSpline
70
4
71
3
72
8
73
4
74
0
42
0.000000001
43
0.0000000001
44
0.0000000001
40
0
40
0
40
0
40
0
40
1
40
1
40
1
40
1
41
1
41
1
41
1
41
1
10
-2.6118149469990657
20
17.239561413932144
30
2.2204460492503131e-15
10
-3.0193439332897869
20
17.511664732427779
30
2.2204460492503131e-15
10
-3.077995417150921
20
17.730204603988572
30
2.2204460492503131e-15
10
-2.8778617644373417
20
18.184216268330431
30
2.2204460492503131e-15
0
SPLINE
5
294
100
AcDbEntity
8
0
100
AcDbSpline
70
4
71
3
72
8
73
4
74
0
42
0.000000001
43
0.0000000001
44
0.0000000001
40
0
40
0
40
0
40
0
40
1
40
1
40
1
40
1
41
1
41
1
41
1
41
1
10
3.0724160588900635
20
18.852286407478083
30
2.2204460492503131e-15
10
2.5121505584918506
20
19.484751988916287
30
2.2204460492503131e-15
10
1.9438097233505043
20
20.110756042476517
30
2.2204460492503131e-15
10
1.5829884300112618
20
20.889574015269957
30
2.2204460492503131e-15
0
SPLINE
5
295
100
AcDbEntity
8
0
100
AcDbSpline
70
4
71
3
72
8
73
4
74
0
42
0.000000001
43
0.0000000001
44
0.0000000001
40
0
40
0
40
0
40
0
40
1
40
1
40
1
40
1
41
1
41
1
41
1
41
1
10
-0.057118176726387929
20
25.027796045502214
30
2.2204460492503131e-15
10
0.46268064399598918
20
24.727374151769904
30
2.2204460492503131e-15
10
0.61112927416272411
20
24.266752449715867
30
2.2204460492503131e-15
10
0.54023517960429046
20
23.732522073345752
30
2.2204460492503131e-15
0
SPLINE
5
296
100
AcDbEntity
8
0
100
AcDbSpline
70
4
71
3
72
8
73
4
74
0
42
0.000000001
43
0.0000000001
44
0.0000000001
40
0
40
0
40
0
40
0
40
1
40
1
40
1
40
1
41
1
41
1
41
1
41
1
10
-2.5857708223749509
20
19.142480923960466
30
2.2204460492503131e-15
10
-2.7911212205378488
20
18.851400748830383
30
2.2204460492503131e-15
10
-2.9863693497354129
20
18.552508056360722
30
2.2204460492503131e-15
10
-3.2041189689662648
20
18.271020716461624
30
2.2204460492503131e-15
0
SPLINE
5
297
100
AcDbEntity
8
0
100
AcDbSpline
70
4
71
3
72
8
73
4
74
0
42
0.000000001
43
0.0000000001
44
0.0000000001
40
0
40
0
40
0
40
0
40
1
40
1
40
1
40
1
41
1
41
1
41
1
41
1
10
-0.40444037616484957
20
15.786806713509577
30
2.2204460492503131e-15
10
-0.23051285880361433
20
16.558095687737886
30
2.2204460492503131e-15
10
0.066713823343970274
20
17.249659182599469
30
2.2204460492503131e-15
10
0.79446961483467415
20
17.660878413255649
30
2.2204460492503131e-15
0
SPLINE
5
298
100
AcDbEntity
8
0
100
AcDbSpline
70
4
71
3
72
8
73
4
74
0
42
0.000000001
43
0.0000000001
44
0.0000000001
40
0
40
0
40
0
40
0
40
1
40
1
40
1
40
1
41
1
41
1
41
1
41
1
10
-1.0823400662186362
20
17.690421969609744
30
2.2204460492503131e-15
10
-1.3820347117930762
20
16.893999731073862
30
2.2204460492503131e-15
10
-1.891540450914615
20
16.758643367868086
30
2.2204460492503131e-15
10
-2.6118149469990657
20
17.239561413932144
30
2.2204460492503131e-15
0
SPLINE
5
299
100
AcDbEntity
8
0
100
AcDbSpline
70
4
71
3
72
8
73
4
74
0
42
0.000000001
43
0.0000000001
44
0.0000000001
40
0
40
0
40
0
40
0
40
1
40
1
40
1
40
1
41
1
41
1
41
1
41
1
10
4.3649232478320235
20
17.141636729426509
30
2.2204460492503131e-15
10
4.0473840206016041
20
17.794716375913985
30
2.2204460492503131e-15
10
3.5478005385251361
20
18.315640271138012
30
2.2204460492503131e-15
10
3.0724160588900635
20
18.852286407478083
30
2.2204460492503131e-15
0
SPLINE
5
300
100
AcDbEntity
8
0
100
AcDbSpline
70
4
71
3
72
8
73
4
74
0
42
0.000000001
43
0.0000000001
44
0.0000000001
40
0
40
0
40
0
40
0
40
1
40
1
40
1
40
1
41
1
41
1
41
1
41
1
10
-15.253497670582002
20
18.864856639870272
30
2.2204460492503131e-15
10
-15.15614362386361
20
18.433144852210987
30
2.2204460492503131e-15
10
-14.788951708666151
20
18.288669085124511
30
2.2204460492503131e-15
10
-14.419084816333523
20
18.527658310827569
30
2.2204460492503131e-15
0
SPLINE
5
301
100
AcDbEntity
8
0
100
AcDbSpline
70
4
71
3
72
8
73
4
74
0
42
0.000000001
43
0.0000000001
44
0.0000000001
40
0
40
0
40
0
40
0
40
1
40
1
40
1
40
1
41
1
41
1
41
1
41
1
10
-0.93642600388924302
20
29.554103974517233
30
2.2204460492503131e-15
10
-3.1362400740722722
20
30.144274855229277
30
2.2204460492503131e-15
10
-5.3372314222138577
20
30.728136318135981
30
2.2204460492503131e-15
10
-7.5753052259302684
20
31.16106138613786
30
2.2204460492503131e-15
0
SPLINE
5
302
100
AcDbEntity
8
0
100
AcDbSpline
70
4
71
3
72
8
73
4
74
0
42
0.000000001
43
0.0000000001
44
0.0000000001
40
0
40
0
40
0
40
0
40
1
40
1
40
1
40
1
41
1
41
1
41
1
41
1
10
-10.009581222021655
20
19.135942891016413
30
2.2204460492503131e-15
10
-9.8360281294545828
20
20.122467618009029
30
2.2204460492503131e-15
10
-9.3928243808055019
20
21.017335675559714
30
2.2204460492503131e-15
10
-9.0671576153750522
20
21.952094374641376
30
2.2204460492503131e-15
0
SPLINE
5
303
100
AcDbEntity
8
0
100
AcDbSpline
70
4
71
3
72
8
73
4
74
0
42
0.000000001
43
0.0000000001
44
0.0000000001
40
0
40
0
40
0
40
0
40
1
40
1
40
1
40
1
41
1
41
1
41
1
41
1
10
24.381638991056931
20
21.473932311076606
30
-4.4408920985006262e-15
10
24.467414671063811
20
22.391762689176428
30
-4.4408920985006262e-15
10
24.502686656750576
20
23.319425318361205
30
-4.4408920985006262e-15
10
24.173103281964909
20
24.259035338694055
30
-4.4408920985006262e-15
0
SPLINE
5
304
100
AcDbEntity
8
0
100
AcDbSpline
70
4
71
3
72
8
73
4
74
0
42
0.000000001
43
0.0000000001
44
0.0000000001
40
0
40
0
40
0
40
0
40
1
40
1
40
1
40
1
41
1
41
1
41
1
41
1
10
20.499483467373601
20
14.563731922333494
30
-4.4408920985006262e-15
10
21.130474751184813
20
15.590837636571347
30
-4.4408920985006262e-15
10
21.212025551423011
20
16.679001594044294
30
-4.4408920985006262e-15
10
20.833725100625919
20
17.855216582196274
30
-4.4408920985006262e-15
0
SPLINE
5
305
100
AcDbEntity
8
0
100
AcDbSpline
70
4
71
3
72
8
73
4
74
0
42
0.000000001
43
0.0000000001
44
0.0000000001
40
0
40
0
40
0
40
0
40
1
40
1
40
1
40
1
41
1
41
1
41
1
41
1
10
20.833725100625919
20
17.855216582196274
30
-4.4408920985006262e-15
10
20.533480518635084
20
18.607542200684122
30
-4.4408920985006262e-15
10
20.016686996921557
20
19.138659270893225
30
-4.4408920985006262e-15
10
19.278726329670942
20
19.450346310595798
30
-6.6613381477509392e-15
0
SPLINE
5
306
100
AcDbEntity
8
0
100
AcDbSpline
70
4
71
3
72
8
73
4
74
0
42
0.000000001
43
0.0000000001
44
0.0000000001
40
0
40
0
40
0
40
0
40
1
40
1
40
1
40
1
41
1
41
1
41
1
41
1
10
-13.673360234961841
20
17.117007498495678
30
2.2204460492503131e-15
10
-14.557427577296533
20
16.825112769426379
30
2.2204460492503131e-15
10
-15.419083435558086
20
16.876190251742319
30
2.2204460492503131e-15
10
-15.936484497502494
20
17.78831695214852
30
2.2204460492503131e-15
0
SPLINE
5
307
100
AcDbEntity
8
0
100
AcDbSpline
70
4
71
3
72
8
73
4
74
0
42
0.000000001
43
0.0000000001
44
0.0000000001
40
0
40
0
40
0
40
0
40
1
40
1
40
1
40
1
41
1
41
1
41
1
41
1
10
-19.865979105947666
20
17.424250043886879
30
2.2204460492503131e-15
10
-20.027046571725073
20
17.020855031345079
30
2.2204460492503131e-15
10
-20.217704396955838
20
16.920640595213662
30
2.2204460492503131e-15
10
-20.651432318122119
20
16.997512885644159
30
2.2204460492503131e-15
0
SPLINE
5
308
100
AcDbEntity
8
0
100
AcDbSpline
70
4
71
3
72
8
73
4
74
0
42
0.000000001
43
0.0000000001
44
0.0000000001
40
0
40
0
40
0
40
0
40
1
40
1
40
1
40
1
41
1
41
1
41
1
41
1
10
14.135037818136034
20
21.03168442572413
30
2.2204460492503131e-15
10
14.283355039601
20
21.065298051595445
30
2.2204460492503131e-15
10
14.363498146622721
20
21.171820105412987
30
2.2204460492503131e-15
10
14.419273039998009
20
21.305909184700099
30
2.2204460492503131e-15
0
SPLINE
5
309
100
AcDbEntity
8
0
100
AcDbSpline
70
4
71
3
72
8
73
4
74
0
42
0.000000001
43
0.0000000001
44
0.0000000001
40
0
40
0
40
0
40
0
40
1
40
1
40
1
40
1
41
1
41
1
41
1
41
1
10
11.809508823196669
20
24.44493544887219
30
2.2204460492503131e-15
10
12.009552469950119
20
23.333633659227807
30
2.2204460492503131e-15
10
12.01736138705127
20
22.218843238568692
30
2.2204460492503131e-15
10
11.904956543679441
20
21.099827938140912
30
2.2204460492503131e-15
0
SPLINE
5
310
100
AcDbEntity
8
0
100
AcDbSpline
70
4
71
3
72
8
73
4
74
0
42
0.000000001
43
0.0000000001
44
0.0000000001
40
0
40
0
40
0
40
0
40
1
40
1
40
1
40
1
41
1
41
1
41
1
41
1
10
-16.672618043762412
20
21.882244349220471
30
2.2204460492503131e-15
10
-16.593708018394508
20
22.215387009699576
30
2.2204460492503131e-15
10
-16.493480981428664
20
22.548347858139209
30
2.2204460492503131e-15
10
-16.534880122851504
20
22.898881470235231
30
2.2204460492503131e-15
0
SPLINE
5
311
100
AcDbEntity
8
0
100
AcDbSpline
70
4
71
3
72
8
73
4
74
0
42
0.000000001
43
0.0000000001
44
0.0000000001
40
0
40
0
40
0
40
0
40
1
40
1
40
1
40
1
41
1
41
1
41
1
41
1
10
-23.032158368172702
20
18.855720134857158
30
2.2204460492503131e-15
10
-22.89887754240759
20
18.792342438029426
30
2.2204460492503131e-15
10
-22.777175083353992
20
18.847101164114811
30
2.2204460492503131e-15
10
-22.674168662339259
20
18.924682701511152
30
2.2204460492503131e-15
0
SPLINE
5
312
100
AcDbEntity
8
0
100
AcDbSpline
70
4
71
3
72
8
73
4
74
0
42
0.000000001
43
0.0000000001
44
0.0000000001
40
0
40
0
40
0
40
0
40
1
40
1
40
1
40
1
41
1
41
1
41
1
41
1
10
-26.300188374884396
20
21.038524878694247
30
4.4408920985006262e-15
10
-26.39601952075731
20
20.844976062023989
30
4.4408920985006262e-15
10
-26.483840136178397
20
20.647470583346291
30
4.4408920985006262e-15
10
-26.579174449151392
20
20.453669749987668
30
4.4408920985006262e-15
0
SPLINE
5
313
100
AcDbEntity
8
0
100
AcDbSpline
70
4
71
3
72
8
73
4
74
0
42
0.000000001
43
0.0000000001
44
0.0000000001
40
0
40
0
40
0
40
0
40
1
40
1
40
1
40
1
41
1
41
1
41
1
41
1
10
-23.051182027906442
20
19.734747143424404
30
2.2204460492503131e-15
10
-23.118690098244681
20
19.54899464302089
30
2.2204460492503131e-15
10
-23.167714544609982
20
19.359870519350785
30
2.2204460492503131e-15
10
-23.163779484032965
20
19.159665761928686
30
2.2204460492503131e-15
0
SPLINE
5
314
100
AcDbEntity
8
0
100
AcDbSpline
70
4
71
3
72
8
73
4
74
0
42
0.000000001
43
0.0000000001
44
0.0000000001
40
0
40
0
40
0
40
0
40
1
40
1
40
1
40
1
41
1
41
1
41
1
41
1
10
-10.971017687686778
20
20.942132095630086
30
2.2204460492503131e-15
10
-11.207175325884052
20
19.803112070503119
30
2.2204460492503131e-15
10
-11.703453789104422
20
18.764232676620253
30
2.2204460492503131e-15
10
-12.513737845560398
20
17.904160023197445
30
2.2204460492503131e-15
0
SPLINE
5
315
100
AcDbEntity
8
0
100
AcDbSpline
70
4
71
3
72
8
73
4
74
0
42
0.000000001
43
0.0000000001
44
0.0000000001
40
0
40
0
40
0
40
0
40
1
40
1
40
1
40
1
41
1
41
1
41
1
41
1
10
-13.779642872925422
20
19.168645656571162
30
2.2204460492503131e-15
10
-13.226106218106766
20
20.023921892378485
30
2.2204460492503131e-15
10
-12.913580322855747
20
20.968251825260712
30
2.2204460492503131e-15
10
-12.766251366833066
20
21.968313448657362
30
2.2204460492503131e-15
0
SPLINE
5
316
100
AcDbEntity
8
0
100
AcDbSpline
70
4
71
3
72
8
73
4
74
0
42
0.000000001
43
0.0000000001
44
0.0000000001
40
0
40
0
40
0
40
0
40
1
40
1
40
1
40
1
41
1
41
1
41
1
41
1
10
16.916675616288373
20
14.774460176614358
30
0
10
16.571786277952295
20
16.11850747850735
30
0
10
16.694434699646877
20
17.46121729183276
30
0
10
16.946525192906904
20
18.801552747929861
30
0
0
SPLINE
5
317
100
AcDbEntity
8
0
100
AcDbSpline
70
4
71
3
72
8
73
4
74
0
42
0.000000001
43
0.0000000001
44
0.0000000001
40
0
40
0
40
0
40
0
40
1
40
1
40
1
40
1
41
1
41
1
41
1
41
1
10
22.672008180474059
20
14.893250942857645
30
-4.4408920985006262e-15
10
22.397352292949058
20
14.136306218495758
30
-4.4408920985006262e-15
10
21.945906248500798
20
13.505485946008795
30
-4.4408920985006262e-15
10
21.301711990397653
20
13.01579051871256
30
-4.4408920985006262e-15
0
SPLINE
5
318
100
AcDbEntity
8
0
100
AcDbSpline
70
4
71
3
72
8
73
4
74
0
42
0.000000001
43
0.0000000001
44
0.0000000001
40
0
40
0
40
0
40
0
40
1
40
1
40
1
40
1
41
1
41
1
41
1
41
1
10
-27.175157914768832
20
21.780280197224066
30
4.4408920985006262e-15
10
-27.034845823398111
20
22.050789510165739
30
4.4408920985006262e-15
10
-26.894267314385406
20
22.321162014048006
30
4.4408920985006262e-15
10
-26.754282844709572
20
22.591836937956327
30
4.4408920985006262e-15
0
SPLINE
5
319
100
AcDbEntity
8
0
100
AcDbSpline
70
4
71
3
72
8
73
4
74
0
42
0.000000001
43
0.0000000001
44
0.0000000001
40
0
40
0
40
0
40
0
40
1
40
1
40
1
40
1
41
1
41
1
41
1
41
1
10
-22.674168662339259
20
18.924682701511152
30
2.2204460492503131e-15
10
-22.354600700767424
20
19.165375740039529
30
2.2204460492503131e-15
10
-22.125125105050433
20
19.488960667612098
30
2.2204460492503131e-15
10
-21.918190601989195
20
19.822042124038312
30
2.2204460492503131e-15
0
SPLINE
5
320
100
AcDbEntity
8
0
100
AcDbSpline
70
4
71
3
72
8
73
4
74
0
42
0.000000001
43
0.0000000001
44
0.0000000001
40
0
40
0
40
0
40
0
40
1
40
1
40
1
40
1
41
1
41
1
41
1
41
1
10
23.241607298938071
20
26.904796539191025
30
-4.4408920985006262e-15
10
24.780740719300386
20
26.866020171446479
30
-4.4408920985006262e-15
10
25.707144615132705
20
26.083294139864059
30
-4.4408920985006262e-15
10
26.207239556077646
20
24.643340987151234
30
-4.4408920985006262e-15
0
SPLINE
5
321
100
AcDbEntity
8
0
100
AcDbSpline
70
4
71
3
72
8
73
4
74
0
42
0.000000001
43
0.0000000001
44
0.0000000001
40
0
40
0
40
0
40
0
40
1
40
1
40
1
40
1
41
1
41
1
41
1
41
1
10
-27.336776217022258
20
22.758551377672482
30
4.4408920985006262e-15
10
-27.330731416739724
20
22.43715269487156
30
4.4408920985006262e-15
10
-27.2684472923276
20
22.116814282280991
30
4.4408920985006262e-15
10
-27.175157914768832
20
21.780280197224066
30
4.4408920985006262e-15
0
SPLINE
5
322
100
AcDbEntity
8
0
100
AcDbSpline
70
4
71
3
72
8
73
4
74
0
42
0.000000001
43
0.0000000001
44
0.0000000001
40
0
40
0
40
0
40
0
40
1
40
1
40
1
40
1
41
1
41
1
41
1
41
1
10
-4.317316284131036
20
18.846313611963655
30
2.2204460492503131e-15
10
-4.1595538372097103
20
18.744064141073629
30
2.2204460492503131e-15
10
-4.0377865738648282
20
18.852679733523871
30
2.2204460492503131e-15
10
-3.9253403277513148
20
18.949343434528032
30
2.2204460492503131e-15
0
SPLINE
5
323
100
AcDbEntity
8
0
100
AcDbSpline
70
4
71
3
72
8
73
4
74
0
42
0.000000001
43
0.0000000001
44
0.0000000001
40
0
40
0
40
0
40
0
40
1
40
1
40
1
40
1
41
1
41
1
41
1
41
1
10
-25.00115755395198
20
23.098115063347482
30
2.2204460492503131e-15
10
-25.577303705956073
20
22.503083860788259
30
4.4408920985006262e-15
10
-25.938123199176108
20
21.769780101914943
30
4.4408920985006262e-15
10
-26.300188374884396
20
21.038524878694247
30
4.4408920985006262e-15
0
SPLINE
5
324
100
AcDbEntity
8
0
100
AcDbSpline
70
4
71
3
72
8
73
4
74
0
42
0.000000001
43
0.0000000001
44
0.0000000001
40
0
40
0
40
0
40
0
40
1
40
1
40
1
40
1
41
1
41
1
41
1
41
1
10
17.859281935034041
20
21.836191899658772
30
0
10
18.381832237957671
20
23.119909106534131
30
0
10
19.055777066123216
20
24.312385471503354
30
-4.4408920985006262e-15
10
20.003403017265498
20
25.333364480034945
30
-4.4408920985006262e-15
0
SPLINE
5
325
100
AcDbEntity
8
0
100
AcDbSpline
70
4
71
3
72
8
73
4
74
0
42
0.000000001
43
0.0000000001
44
0.0000000001
40
0
40
0
40
0
40
0
40
1
40
1
40
1
40
1
41
1
41
1
41
1
41
1
10
16.557700345191453
20
21.501787355618596
30
0
10
16.944196738718272
20
21.524546262697861
30
0
10
17.318424419819351
20
21.534770939768983
30
0
10
17.689252575806176
20
21.575747053179178
30
0
0
SPLINE
5
326
100
AcDbEntity
8
0
100
AcDbSpline
70
4
71
3
72
8
73
4
74
0
42
0.000000001
43
0.0000000001
44
0.0000000001
40
0
40
0
40
0
40
0
40
1
40
1
40
1
40
1
41
1
41
1
41
1
41
1
10
4.8254171414226743
20
25.182577495023928
30
2.2204460492503131e-15
10
3.7595953634335793
20
24.727053730551837
30
2.2204460492503131e-15
10
3.1944839421417908
20
23.520084605881969
30
2.2204460492503131e-15
10
3.4848377691736205
20
22.340302681529927
30
2.2204460492503131e-15
0
SPLINE
5
327
100
AcDbEntity
8
0
100
AcDbSpline
70
4
71
3
72
8
73
4
74
0
42
0.000000001
43
0.0000000001
44
0.0000000001
40
0
40
0
40
0
40
0
40
1
40
1
40
1
40
1
41
1
41
1
41
1
41
1
10
-1.3389866611806105
20
24.524794137059892
30
2.2204460492503131e-15
10
-1.2100405224555011
20
25.193268402968542
30
2.2204460492503131e-15
10
-1.1275842622583601
20
25.241380188898095
30
2.2204460492503131e-15
10
-0.43960030443125409
20
25.153870994099073
30
2.2204460492503131e-15
0
SPLINE
5
328
100
AcDbEntity
8
0
100
AcDbSpline
70
4
71
3
72
8
73
4
74
0
42
0.000000001
43
0.0000000001
44
0.0000000001
40
0
40
0
40
0
40
0
40
1
40
1
40
1
40
1
41
1
41
1
41
1
41
1
10
5.2906435483971297
20
21.360895625864622
30
2.2204460492503131e-15
10
5.2049452735159774
20
21.575102610504629
30
2.2204460492503131e-15
10
5.2498582476224218
20
21.685203301297062
30
2.2204460492503131e-15
10
5.4816793986604804
20
21.744070799462527
30
2.2204460492503131e-15
0
SPLINE
5
329
100
AcDbEntity
8
0
100
AcDbSpline
70
4
71
3
72
8
73
4
74
0
42
0.000000001
43
0.0000000001
44
0.0000000001
40
0
40
0
40
0
40
0
40
1
40
1
40
1
40
1
41
1
41
1
41
1
41
1
10
6.9926346530839032
20
24.363003023363021
30
2.2204460492503131e-15
10
6.7613049345881757
20
25.200845104692551
30
2.2204460492503131e-15
10
5.7510474360276422
20
25.57818249171622
30
2.2204460492503131e-15
10
4.8254171414226743
20
25.182577495023928
30
2.2204460492503131e-15
0
SPLINE
5
330
100
AcDbEntity
8
0
100
AcDbSpline
70
4
71
3
72
8
73
4
74
0
42
0.000000001
43
0.0000000001
44
0.0000000001
40
0
40
0
40
0
40
0
40
1
40
1
40
1
40
1
41
1
41
1
41
1
41
1
10
6.1903899289870168
20
20.495853743382867
30
2.2204460492503131e-15
10
5.7419442332197965
20
20.62686461883343
30
2.2204460492503131e-15
10
5.4615216638290534
20
20.933766941695314
30
2.2204460492503131e-15
10
5.2906435483971297
20
21.360895625864622
30
2.2204460492503131e-15
0
SPLINE
5
331
100
AcDbEntity
8
0
100
AcDbSpline
70
4
71
3
72
8
73
4
74
0
42
0.000000001
43
0.0000000001
44
0.0000000001
40
0
40
0
40
0
40
0
40
1
40
1
40
1
40
1
41
1
41
1
41
1
41
1
10
6.8243649103766382
20
22.800530157478573
30
2.2204460492503131e-15
10
7.0994825284771235
20
23.312577664914276
30
2.2204460492503131e-15
10
7.13918415749185
20
23.83223427621963
30
2.2204460492503131e-15
10
6.9926346530839032
20
24.363003023363021
30
2.2204460492503131e-15
0
LWPOLYLINE
5
332
100
AcDbEntity
8
0
100
AcDbPolyline
90
14
70
1
43
0.0
10
-13.665543997493003
20
-9.2079197120610985
42
0.22166116907205846
10
-16.68905093507821
20
-12.312031498404629
10
-19.275158004882979
20
-19.717499472158433
42
0.41421356237309576
10
-16.124905405332623
20
-26.248652851599488
10
3.8965458934084909
20
-33.240461733217046
42
0.41421356237309664
10
10.427699272849571
20
-30.090209133666672
10
13.013806342654329
20
-22.684741159912882
42
0.22166116907206021
10
12.579942123483754
20
-18.373260437113984
42
0.22166116907205893
10
15.603449061068961
20
-15.269148650770445
10
18.18955613087374
20
-7.8636806770166494
42
0.41421356237309681
10
15.039303531323371
20
-1.3325272975755804
10
-4.9821477674177652
20
5.6592815840419597
42
0.41421356237309537
10
-11.513301146858829
20
2.5090289844915925
10
-14.099408216663587
20
-4.8964389892622098
42
0.22166116907205957
0
CIRCLE
5
333
100
AcDbEntity
8
0
100
AcDbCircle
10
-24.250000000000004
20
36
30
0
40
2.2000000000000002
210
0
220
-0
230
1
0
CIRCLE
5
334
100
AcDbEntity
8
0
100
AcDbCircle
10
-24.250000000000004
20
-36
30
0
40
2.2000000000000002
210
0
220
-0
230
1
0
CIRCLE
5
335
100
AcDbEntity
8
0
100
AcDbCircle
10
24.250000000000004
20
-36
30
0
40
2.2000000000000002
210
0
220
-0
230
1
0
CIRCLE
5
336
100
AcDbEntity
8
0
100
AcDbCircle
10
24.250000000000004
20
36
30
0
40
2.2000000000000002
210
0
220
-0
230
1
0
LWPOLYLINE
5
337
100
AcDbEntity
8
0
100
AcDbPolyline
90
8
70
1
43
0.0
10
-30.75
20
40.219999999999999
10
-30.749999999999996
20
-40.219999999999999
42
0.4142135623730942
10
-24.5
20
-46.469999999999999
10
24.5
20
-46.469999999999999
42
0.4142135623730967
10
30.749999999999993
20
-40.219999999999992
10
30.75
20
40.220000000000013
42
0.41421356237309626
10
24.5
20
46.469999999999999
10
-24.5
20
46.469999999999999
42
0.41421356237309503
0
ENDSEC
0
SECTION
2
OBJECTS
0
DICTIONARY
5
C
100
AcDbDictionary
3
ACAD_GROUP
350
D
3
ACAD_MLINESTYLE
350
17
0
DICTIONARY
5
D
100
AcDbDictionary
0
DICTIONARY
5
1A
330
C
100
AcDbDictionary
0
DICTIONARY
5
17
100
AcDbDictionary
0
ENDSEC
0
EOF
