<svg xmlns="http://www.w3.org/2000/svg" width="6038" height="5208" viewBox="0 0 6038 5208">
  <defs>
    <style>
      .cls-1 {
        stroke: #000;
        stroke-width: 12px;
        fill-rule: evenodd;
      }
    </style>
  </defs>
  <path id="Kształt_1" data-name="Kształt 1" class="cls-1" d="M1760,993c11.71-.22,21.92-0.1,30,3h3v1h2v1l9,3c0.33,0.67.67,1.33,1,2h2c0.33,0.67.67,1.33,1,2h2c0.67,1,1.33,2,2,3,1,0.33,2,.67,3,1v1c1.67,1.33,3.33,2.67,5,4-0.84,1.13.13,0.15-1,1-3.45,5.93-10.23,10.23-15,15-1.33,1.67-2.67,3.33-4,5q-13.5,13.005-27,26-11.505,12-23,24-38.49,37.995-77,76-83.49,83.985-167,168-78.99,78.495-158,157-43.995,44.49-88,89-14.505,13.995-29,28-13.5,13.995-27,28c-1.33,1-2.67,2-4,3-3.46,3.46-9.11,11.67-14,13v-1q-3.495-3-7-6v-2c-1-.67-2-1.33-3-2v-2c-0.67-.33-1.33-0.67-2-1q-3.495-7.995-7-16v-4h-1v-6h-1c-1.58-5.6.71-23.2,2-27h1v-4h1v-2h1v-3c7.22-16.17,24.05-29.05,36-41q33.99-34.5,68-69,153.48-152.985,307-306,72.99-73.5,146-147h2c0.67-1,1.33-2,2-3h2c0.33-.67.67-1.33,1-2h2c0.33-.67.67-1.33,1-2l9-3v-1h2v-1l12-2v-1Zm2497,1c38.42-.343,52.1,21.1,71,40q11.505,10.995,23,22,30.495,30.99,61,62,79.995,79.485,160,159Q4672.485,1378,4773,1479q21.495,21,43,42,7.5,7.995,15,16c11.68,11.68,24.89,21.74,32,38v3h1c1.64,4.18,4.96,24.27,3,31h-1v5h-1v4h-1v4h-1v2h-1v3h-1c-0.33,1.33-.67,2.67-1,4h-1v2c-0.67.33-1.33,0.67-2,1v2c-0.67.33-1.33,0.67-2,1v2c-1,.67-2,1.33-3,2-0.33,1-.67,2-1,3-1.25,1.73-3.58,2.58-5,5h-2q-315.975-316.47-632-633,3.495-3,7-6v-1h2c0.67-1,1.33-2,2-3h2c0.33-.67.67-1.33,1-2,1.33-.33,2.67-0.67,4-1,0.33-.67.67-1.33,1-2,1.67-.33,3.33-0.67,5-1v-1h2v-1Zm-2304,11,32,3v1h4v1c2.33,0.33,4.67.67,7,1v1h3v1c2,0.33,4,.67,6,1v1h2v1h3v1c2,0.67,4,1.33,6,2v1c2,0.67,4,1.33,6,2,0.33,0.67.67,1.33,1,2,1.33,0.33,2.67.67,4,1v1c1,0.33,2,.67,3,1,0.33,0.67.67,1.33,1,2h2c0.33,0.67.67,1.33,1,2,1,0.33,2,.67,3,1,1,1.33,2,2.67,3,4h2q8.505,9,17,18,4.5,4.005,9,8,12.495,13.005,25,26,116.985,116.49,234,233,12,12.495,24,25,6,5.505,12,11v2c1,0.67,2,1.33,3,2v2c1,0.67,2,1.33,3,2v2c0.67,0.33,1.33.67,2,1v2c0.67,0.33,1.33.67,2,1,0.33,1.33.67,2.67,1,4,0.67,0.33,1.33.67,2,1,0.33,1.33.67,2.67,1,4h1v2h1c0.67,2,1.33,4,2,6h1v3h1v2h1v3h1v3h1v3h1v3h1c0.33,2.67.67,5.33,1,8h1v5h1v6h1v11h1v14h-1c-1.05,3.75,1.1,8.56-1,11-1.32,4.88-9.54,10.54-13,14-1.33,1.67-2.67,3.33-4,5q-13.5,13.005-27,26-14.505,15-29,30-42.99,42.495-86,85-102.495,102.99-205,206-109.995,109.485-220,219-46.5,46.995-93,94-17.505,16.995-35,34-13.995,14.505-28,29c-1.33,1-2.67,2-4,3-4.31,4.31-6.74,10.72-15,11-2.14,1.93-9.14,1-13,1-13.31,0-24.32-.79-34-4h-4v-1h-3v-1h-3v-1h-3v-1h-3v-1h-2v-1h-3v-1c-2-.67-4-1.33-6-2v-1h-2v-1c-2-.67-4-1.33-6-2-0.33-.67-0.67-1.33-1-2-1.33-.33-2.67-0.67-4-1-0.33-.67-0.67-1.33-1-2h-2c-0.67-1-1.33-2-2-3h-2c-0.33-.67-0.67-1.33-1-2-1-.33-2-0.67-3-1-1.33-1.67-2.67-3.33-4-5h-2q-6-6.495-12-13-13.5-13.005-27-26-139.98-140.49-280-281v-2c-1-.67-2-1.33-3-2v-2c-1-.67-2-1.33-3-2v-2c-0.67-.33-1.33-0.67-2-1-0.33-1.33-.67-2.67-1-4-0.67-.33-1.33-0.67-2-1-0.67-2-1.33-4-2-6h-1v-2h-1c-0.67-2-1.33-4-2-6h-1v-3h-1v-2h-1v-3h-1v-3h-1v-3h-1v-3h-1v-4h-1v-4h-1v-6h-1v-7c-1.05-3.72-2.42-25.99-1-31h1v-7h1v-5h1v-4h1v-4h1v-4q4.995-12,10-24c0.67-.33,1.33-0.67,2-1,0.33-1.33.67-2.67,1-4,0.67-.33,1.33-0.67,2-1,0.33-1.33.67-2.67,1-4,1-.67,2-1.33,3-2v-2c0.67-.33,1.33-0.67,2-1v-2c1.33-1,2.67-2,4-3v-2q7.005-6.495,14-13,3.495-4.005,7-8,14.505-13.995,29-28,21-21.495,42-43,45.495-45,91-90,237.975-238.47,476-477h2c1-1.33,2-2.67,3-4h2c0.33-.67.67-1.33,1-2h2c0.67-1,1.33-2,2-3,1.33-.33,2.67-0.67,4-1,0.33-.67.67-1.33,1-2,1.33-.33,2.67-0.67,4-1,0.33-.67.67-1.33,1-2,1.33-.33,2.67-0.67,4-1v-1c1.33-.33,2.67-0.67,4-1v-1h3v-1c1.33-.33,2.67-0.67,4-1v-1h3v-1h3v-1h3v-1h3v-1h4v-1h4v-1h6v-1h6v-1C1943.39,1004.74,1950.09,1007.56,1953,1005Zm2114,5c45.43-.68,70.13,10.39,96,29q19.005,19.5,38,39,12,11.505,24,23,28.5,28.995,57,58,57.99,57.495,116,115,140.49,140.985,281,282,27.495,27,55,54,23.505,24,47,48,22.5,22.005,45,44v2c1,0.67,2,1.33,3,2v2c0.67,0.33,1.33.67,2,1,0.33,1,.67,2,1,3h1v2c0.67,0.33,1.33.67,2,1,0.33,1,.67,2,1,3h1c0.67,2,1.33,4,2,6h1v2h1c0.67,2,1.33,4,2,6h1v3h1v2h1v3h1v3h1v3h1v3h1v4h1v5h1v5h1v7h1v12c0,12.1-.25,22.13-3,31v5h-1v3h-1c-0.67,3.33-1.33,6.67-2,10h-1v2h-1v3h-1v2h-1v3h-1c-0.33,1.33-.67,2.67-1,4h-1c-0.33,1.33-.67,2.67-1,4-0.67.33-1.33,0.67-2,1-0.67,2-1.33,4-2,6h-1c-0.33,1-.67,2-1,3-0.67.33-1.33,0.67-2,1v2c-1,.67-2,1.33-3,2v2q-14.505,15-29,30-112.485,111.99-225,224-4.5,4.995-9,10-18,17.505-36,35-13.005,13.5-26,27a185.48,185.48,0,0,1-47,25h-4v1h-4v1h-5v1h-6v1h-9v1q-14.505-.495-29-1-377.955-378.465-756-757c-0.24-14.79-1.87-29.29,2-42,0.33-3,.67-6,1-9h1v-4h1v-3h1v-3h1v-3h1v-2h1v-3h1c0.33-1.33.67-2.67,1-4h1v-3h1v-2h1v-2c0.67-.33,1.33-0.67,2-1,0.67-2,1.33-4,2-6h1c0.33-1,.67-2,1-3,0.67-.33,1.33-0.67,2-1v-2c0.67-.33,1.33-0.67,2-1v-2c1-.67,2-1.33,3-2v-2c2-1.67,4-3.33,6-5,7.23-9.97,16.42-17.43,25-26q6.495-7.005,13-14,18-17.505,36-35,16.5-16.995,33-34,66.495-66,133-132,4.5-4.995,9-10,22.5-22.005,45-44c6.98-6.97,12.85-14.11,21-20,1.67-2,3.33-4,5-6h2c0.67-1,1.33-2,2-3h2c0.33-.67.67-1.33,1-2,1-.33,2-0.67,3-1v-1h2c0.33-.67.67-1.33,1-2,1.33-.33,2.67-0.67,4-1,0.33-.67.67-1.33,1-2,1.33-.33,2.67-0.67,4-1v-1c2-.67,4-1.33,6-2v-1h3v-1h2v-1h3v-1h3v-1h3v-1h3v-1Q4054.005,1012.5,4067,1010Zm482,108c15.77-.13,26.01,1.7,36,7,1.33,0.33,2.67.67,4,1,0.33,0.67.67,1.33,1,2,1.33,0.33,2.67.67,4,1,0.67,1,1.33,2,2,3,11.13,7.89,19.49,18.49,29,28q10.5,10.005,21,20,22.5,22.995,45,46c2,1.67,4,3.33,6,5q10.005,10.5,20,21,4.5,4.005,9,8v2c1,0.67,2,1.33,3,2v2c0.67,0.33,1.33.67,2,1,0.33,1.33.67,2.67,1,4h1c0.67,2,1.33,4,2,6h1c0.67,3,1.33,6,2,9h1v5c5.46,18.4-4.01,41.12-11,51-1,.67-2,1.33-3,2q-3,4.005-6,8h-1v-1c-5.58-3.24-11.35-11.35-16-16q-3.495-3-7-6-13.005-13.5-26-27-34.5-33.99-69-68-19.5-19.995-39-40-16.995-16.5-34-33c-1.67-2-3.33-4-5-6-3.73-3.73-13.62-10.91-15-16,2.33-1.67,4.67-3.33,7-5,0.67-1,1.33-2,2-3h2c0.67-1,1.33-2,2-3,1.33-.33,2.67-0.67,4-1v-1h2v-1c2-.67,4-1.33,6-2v-1Q4540.505,1120.005,4549,1118Zm-3080,1c13.78-.24,25.33,3.11,34,8h2c0.33,0.67.67,1.33,1,2,1.33,0.33,2.67.67,4,1,0.67,1,1.33,2,2,3h2c0.33,0.67.67,1.33,1,2q3.495,3,7,6c-0.84,1.13.13,0.15-1,1q-104.985,105.495-210,211c-1.13-.84-0.15.13-1-1-4.29-2.47-6.25-6.94-9-11-0.67-.33-1.33-0.67-2-1-0.33-1-.67-2-1-3h-1c-0.33-1.33-.67-2.67-1-4-4.23-7.88-6.99-15.61-7-28v-12c3.14-10.78,6.25-20.84,12-29,1.33-1,2.67-2,4-3v-2q9-8.505,18-17,4.5-4.995,9-10,17.505-16.995,35-34,4.995-5.505,10-11,16.995-16.5,34-33,8.505-9,17-18h2c1-1.33,2-2.67,3-4h2c0.33-.67.67-1.33,1-2,1-.33,2-0.67,3-1v-1h2v-1c2-.67,4-1.33,6-2v-1c3-.67,6-1.33,9-2v-1C1459.62,1119.78,1466.55,1121.15,1469,1119Zm964,379c17.57-.25,34.3-0.29,47,4,2.67,0.33,5.33.67,8,1v1c2,0.33,4,.67,6,1v1h2v1h3v1c1.33,0.33,2.67.67,4,1v1h3v1h2v1h2c0.33,0.67.67,1.33,1,2,2,0.67,4,1.33,6,2,0.33,0.67.67,1.33,1,2h2v1c1,0.33,2,.67,3,1,0.33,0.67.67,1.33,1,2h2c0.33,0.67.67,1.33,1,2,1,0.33,2,.67,3,1,1,1.33,2,2.67,3,4h2q21,21.495,42,43,13.5,13.005,27,26,33,33.495,66,67,22.5,22.005,45,44,42.495,42.99,85,86,13.005,12.495,26,25,6,6.495,12,13,7.5,7.005,15,14v2c1.33,1,2.67,2,4,3v2c1,0.67,2,1.33,3,2v2c0.67,0.33,1.33.67,2,1v2c0.67,0.33,1.33.67,2,1,0.33,1,.67,2,1,3h1c0.33,1.33.67,2.67,1,4,0.67,0.33,1.33.67,2,1,0.33,1.33.67,2.67,1,4h1c0.33,1.33.67,2.67,1,4h1v3h1c0.33,1.33.67,2.67,1,4h1v3h1v3h1v3h1v3h1c0.33,2.67.67,5.33,1,8h1q0.495,6,1,12h1v12h1c0.9,3.24-.52,8.28-1,10v12h-1v7h-1v5h-1v4h-1v4h-1v3h-1v3l-9,21c-0.67.33-1.33,0.67-2,1-0.33,1.33-.67,2.67-1,4h-1c-0.33,1-.67,2-1,3-0.67.33-1.33,0.67-2,1v2c-0.67.33-1.33,0.67-2,1v2c-1,.67-2,1.33-3,2v2c-5.57,7.8-15.16,15.16-22,22q-4.995,5.505-10,11-18,17.505-36,35-61.995,62.49-124,125-132.99,132.48-266,265-17.505,18-35,36-53.49,52.995-107,106-13.5,13.995-27,28-7.5,7.005-15,14-9,9.495-18,19h-2c-1.33,1.67-2.67,3.33-4,5h-2c-0.33.67-.67,1.33-1,2h-2c-0.67,1-1.33,2-2,3h-2c-0.33.67-.67,1.33-1,2-1.33.33-2.67,0.67-4,1-0.33.67-.67,1.33-1,2-2,.67-4,1.33-6,2v1h-2v1c-2,.67-4,1.33-6,2v1c-18.43,8.2-54.79,14.47-79,7h-5v-1h-4v-1h-3v-1h-4v-1h-2v-1c-2-.33-4-0.67-6-1v-1c-1.33-.33-2.67-0.67-4-1v-1l-9-3c-0.33-.67-0.67-1.33-1-2-1.33-.33-2.67-0.67-4-1-0.33-.67-0.67-1.33-1-2-1.33-.33-2.67-0.67-4-1-0.33-.67-0.67-1.33-1-2h-2c-0.33-.67-0.67-1.33-1-2-1-.33-2-0.67-3-1-1-1.33-2-2.67-3-4h-2q-13.5-13.995-27-28-6.495-6-13-12-19.995-20.505-40-41-107.985-107.49-216-215-8.505-9-17-18-4.5-4.005-9-8v-2c-1-.67-2-1.33-3-2v-2c-1-.67-2-1.33-3-2v-2c-0.67-.33-1.33-0.67-2-1v-2c-0.67-.33-1.33-0.67-2-1-0.67-2-1.33-4-2-6-0.67-.33-1.33-0.67-2-1-0.33-1.33-.67-2.67-1-4h-1c-0.33-1.33-.67-2.67-1-4h-1v-3h-1v-2h-1c-0.33-1.67-.67-3.33-1-5h-1c-0.33-2.33-.67-4.67-1-7h-1v-3h-1v-4h-1v-4h-1v-6h-1q-0.495-17.505-1-35h1c0.33-3.33.67-6.67,1-10q375.465-374.955,751-750h7v-1Zm1144,4h20v1q6.495,0.495,13,1c1.55,2.67,3.92,3.92,6,6l12,12c1.67,2,3.33,4,5,6q16.5,16.005,33,32,17.505,18,35,36,43.995,43.5,88,87,87.99,88.485,176,177h2q19.005,19.5,38,39,33.495,33,67,66,57.495,57.99,115,116,49.5,48.99,99,98,21.495,22.005,43,44,15.495,15,31,30v3c2.02,5.27,2,12.7,2,20v15h-1v7h-1v6h-1v5h-1c-0.33,2.33-.67,4.67-1,7h-1v3h-1v3h-1v3h-1v2h-1v3h-1c-0.67,2-1.33,4-2,6h-1v2h-1c-0.67,2-1.33,4-2,6-0.67.33-1.33,0.67-2,1-0.33,1.33-.67,2.67-1,4h-1c-0.33,1-.67,2-1,3-0.67.33-1.33,0.67-2,1v2c-1,.67-2,1.33-3,2v2c-1.67,1.33-3.33,2.67-5,4-5.89,8.15-13.02,14.03-20,21q-4.995,5.505-10,11-17.505,16.995-35,34-17.505,18-35,36-43.5,42.99-87,86-18.495,19.005-37,38-27.495,27-55,54-18.495,19.005-37,38h-2c-1.33,1.67-2.67,3.33-4,5h-2c-0.67,1-1.33,2-2,3h-2c-0.33.67-.67,1.33-1,2-1,.33-2,0.67-3,1v1h-2c-0.33.67-.67,1.33-1,2-1.33.33-2.67,0.67-4,1-0.33.67-.67,1.33-1,2-1.33.33-2.67,0.67-4,1v1c-1.33.33-2.67,0.67-4,1v1h-3v1c-1.33.33-2.67,0.67-4,1v1h-3v1h-3v1h-3v1h-3v1c-2.67.33-5.33,0.67-8,1-19.44,6.3-48.27,4.3-66-2-3.33-.67-6.67-1.33-10-2v-1h-2v-1h-3v-1c-2-.67-4-1.33-6-2v-1h-2v-1h-2v-1c-2-.67-4-1.33-6-2-0.33-.67-0.67-1.33-1-2h-2c-0.33-.67-0.67-1.33-1-2h-2v-1c-1-.33-2-0.67-3-1-0.33-.67-0.67-1.33-1-2h-2c-1-1.33-2-2.67-3-4-12.21-8.79-21.54-19.54-32-30q-7.005-6.495-14-13-21-21.495-42-43-66.495-66-133-132-166.485-166.98-333-334-15.495-15-31-30-19.005-19.5-38-39c-11.77-11.77-25.15-22.37-35-36-2-1.67-4-3.33-6-5v-2c-1-.67-2-1.33-3-2v-2c-0.67-.33-1.33-0.67-2-1v-2c-1-.67-2-1.33-3-2-0.33-1.33-.67-2.67-1-4-0.67-.33-1.33-0.67-2-1v-2h-1v-2h-1v-2h-1v-2h-1v-2h-1v-2h-1c-0.33-1.33-.67-2.67-1-4h-1c-0.33-2-.67-4-1-6h-1v-2h-1v-3h-1q-1.005-6-2-12h-1c-0.33-3.67-.67-7.33-1-11h-1q-0.495-11.505-1-23h1v-12q3-13.005,6-26h1v-2h1c0.33-2,.67-4,1-6h1c0.67-2,1.33-4,2-6h1v-2h1v-2h1c0.67-2,1.33-4,2-6,11.73-18.55,27.85-32.85,43-48q7.5-7.995,15-16,24-23.505,48-47,13.005-13.5,26-27,64.5-63.99,129-128,4.5-4.995,9-10,20.505-19.995,41-40,7.5-7.995,15-16h2q3-3.495,6-7h2c1-1.33,2-2.67,3-4h2v-1c1-.33,2-0.67,3-1,0.67-1,1.33-2,2-3,1.33-.33,2.67-0.67,4-1,0.33-.67.67-1.33,1-2,2-.67,4-1.33,6-2v-1h2v-1h2v-1c2-.67,4-1.33,6-2v-1h3v-1h2v-1c3-.67,6-1.33,9-2v-1Q3563,1504.5,3577,1502Zm-702,568q3.495,3,7,6v2c1,0.67,2,1.33,3,2v2c0.67,0.33,1.33.67,2,1,0.33,1,.67,2,1,3h1v2h1c0.67,2,1.33,4,2,6h1c0.67,3,1.33,6,2,9h1v5c3.15,10.6.43,29.2-3,37-7.48,17.01-21.73,27.73-34,40q-28.5,28.995-57,58-194.475,193.98-389,388-21,21.495-42,43-7.995,7.5-16,15-10.005,10.5-20,21h-2c-0.67,1-1.33,2-2,3h-2c-0.33.67-.67,1.33-1,2h-2c-0.33.67-.67,1.33-1,2h-2v1c-1.33.33-2.67,0.67-4,1v1c-2,.33-4,0.67-6,1-24.59,9.59-48.15.41-64-11-1.67-2-3.33-4-5-6h-1v-2q4.5-4.005,9-8,12-12.495,24-25,49.5-48.99,99-98,7.005-7.5,14-15,167.505-167.49,335-335,39-38.49,78-77,13.005-13.5,26-27,13.995-13.5,28-27c1.33-1.67,2.67-3.33,4-5C2864.77,2080.23,2871.54,2075.93,2875,2070Zm281,2c5.58,3.24,11.35,11.35,16,16,1.67,1.33,3.33,2.67,5,4q14.505,15,29,30,13.5,13.005,27,26c7.29,7.29,13.48,14.84,22,21q28.995,29.49,58,59,170.985,170.49,342,341,36.495,36.99,73,74,10.005,9.495,20,19,12.495,13.005,25,26c1.33,1,2.67,2,4,3,4.17,4.17,7.79,9.96,13,13v1h-1c-1.98,3.44-3.12,2.93-6,5-1,1.33-2,2.67-3,4h-2c-0.33.67-.67,1.33-1,2h-2c-0.33.67-.67,1.33-1,2-1.33.33-2.67,0.67-4,1v1c-1.33.33-2.67,0.67-4,1v1h-3v1h-3c-14.16,5.51-29.64,4.37-43-1h-3c-16.44-7.24-27.08-22.08-39-34q-31.995-31.5-64-63-79.485-79.995-159-160h-2v-1c-1.33-1-2.67-2-4-3q-106.485-106.995-213-214-21.495-21-43-42-7.995-8.505-16-17c-7.29-7.29-14.85-13.48-21-22-2-1.67-4-3.33-6-5v-2c-0.67-.33-1.33-0.67-2-1v-2c-0.67-.33-1.33-0.67-2-1v-2h-1c-4.76-8.72-10.15-29.23-6-43v-5h1c0.67-3,1.33-6,2-9h1c0.67-2,1.33-4,2-6h1c0.33-1.33.67-2.67,1-4,0.67-.33,1.33-0.67,2-1v-2c1-.67,2-1.33,3-2v-2c0.67-.33,1.33-0.67,2-1C3152.67,2076,3154.33,2074,3156,2072Zm-323,211c4.16,1.13,5.39,4.39,8,7l15,15q4.995,4.5,10,9,22.995,23.505,46,47,34.5,33.99,69,68,68.49,69,137,138,63.495,63,127,126,6,6.495,12,13,15.495,15,31,30c8.25,8.25,15.39,17.05,25,24q233.97,234.48,468,469,58.995,58.5,118,117,28.995,29.49,58,59,18,17.505,36,35,5.505,6,11,12c6.48,6.48,15.78,13.58,21,21v2c0.67,0.33,1.33.67,2,1v2c0.67,0.33,1.33.67,2,1v2h1v2h1v2h1v2h1v2h1q1.995,9,4,18v12h-1v7h-1v4h-1c-0.33,2.33-.67,4.67-1,7h-1c-0.33,1.33-.67,2.67-1,4h-1v2h-1v2h-1v2h-1v2c-0.67.33-1.33,0.67-2,1v2c-1.33,1-2.67,2-4,3v2q-6.495,6-13,12c-1.67,2-3.33,4-5,6q-15,14.505-30,29-34.995,35.49-70,71-48.99,48.495-98,97-19.5,19.995-39,40-7.005,6.495-14,13c-9.68,9.68-19.22,21.57-31,29h-2v1c-1.33.33-2.67,0.67-4,1v1h-3v1h-2v1c-2.33.33-4.67,0.67-7,1v1h-6v1c-6.23,1.77-20.2-.76-24-2h-4v-1c-2-.33-4-0.67-6-1v-1h-2v-1c-1.67-.33-3.33-0.67-5-1-0.33-.67-0.67-1.33-1-2-1.33-.33-2.67-0.67-4-1-0.33-.67-0.67-1.33-1-2-1-.33-2-0.67-3-1-1.67-2-3.33-4-5-6-7.02-5.08-12.96-10.96-19-17q-107.49-107.505-215-215-344.97-345.465-690-691-130.485-129.99-261-260c-0.81-2.82,3.79-4.79,5-6,5.66-5.69,11.33-11.33,17-17q4.995-5.505,10-11,29.49-28.995,59-58Q2690.99,2425.515,2833,2283Zm367,4c4.16,1.13,5.39,4.39,8,7l17,17q5.505,4.995,11,10,25.995,26.49,52,53,46.995,46.5,94,93,57.99,58.5,116,117,24.495,24,49,48,4.005,4.5,8,9l15,15c2.61,2.61,5.87,3.84,7,8q-54,53.49-108,107-12,12.495-24,25c-0.67.33-1.33,0.67-2,1-3.52,3.52-6.63,9.53-12,11q-141.99-142.485-284-285-29.49-28.995-59-58-4.995-5.505-10-11c-5.67-5.67-11.34-11.31-17-17-1.2-1.21-5.82-3.19-5-6q18.495-18,37-36Q3146.49,2341,3200,2287Zm-594,594c4.46,1.21,6.16,5.17,9,8l19,19c6.04,6.04,11.98,11.92,19,17q25.5,25.995,51,52,139.98,139.485,280,279v1h-1c-3.24,5.57-9.53,9.53-14,14-1.33,1.67-2.67,3.33-4,5q-13.005,12.495-26,25-12,12.495-24,25-36.495,36-73,72-76.485,76.995-153,154-79.995,79.485-160,159-33.495,33.99-67,68-15,14.505-30,29-11.505,12-23,24-4.005,3.495-8,7c-6.96,6.96-13.47,14.64-22,20h-2v1h-2v1h-3v1h-2v1c-2,.33-4,0.67-6,1v1q-6,.495-12,1v1h-11v-1h-8v-1h-4v-1h-3v-1h-3v-1h-3v-1c-2-.67-4-1.33-6-2v-1h-2c-0.33-.67-0.67-1.33-1-2h-2c-6.46-4.48-11.48-11.48-17-17q-3.495-3-7-6-13.995-14.505-28-29-38.49-37.995-77-76-49.995-50.49-100-101-19.005-18.495-38-37-6-6.495-12-13c-10.07-10.07-21.89-19.03-28-33-0.33-2-.67-4-1-6h-1v-3c-4.37-11.76-3.34-27.09,1-38v-3h1v-2h1v-3h1v-2h1v-2c0.67-.33,1.33-0.67,2-1v-2c0.67-.33,1.33-0.67,2-1v-2c1-.67,2-1.33,3-2v-2q18-17.505,36-35,10.5-10.995,21-22,31.5-30.99,63-62Q2368.97,3118.52,2606,2881Zm1423,739h2q8.505,9,17,18,4.005,3.495,8,7,18.495,19.005,37,38,82.485,81.99,165,164,6.495,7.005,13,14c2,1.67,4,3.33,6,5v2c0.67,0.33,1.33.67,2,1v2c0.67,0.33,1.33.67,2,1v3h1v2h1v3h1v4h1c1.49,5-.74,21.11-2,24h-1c-0.67,2-1.33,4-2,6h-1v2c-1,.67-2,1.33-3,2v2c-0.67.33-1.33,0.67-2,1-1.33,1.67-2.67,3.33-4,5h-2c-0.33.67-.67,1.33-1,2h-2c-0.33.67-.67,1.33-1,2h-2v1h-2v1h-3v1h-3v1h-5v1c-6.73,1.93-16.24-1.5-20-3l-9-3c-3.92-2.49-6.76-6.76-10-10-1-.67-2-1.33-3-2q-9.495-10.005-19-20-57.99-57.495-116-115-13.005-13.5-26-27c-1.33-1-2.67-2-4-3-3.53-3.53-7.08-10.19-13-11q-42.99,43.5-86,87l-21,21c-3.07,3.07-7.7,5.23-9,10,3.03,1.76,4.62,4.62,7,7l15,15a130.639,130.639,0,0,0,16,14q13.995,14.505,28,29,29.49,28.995,59,58,11.505,12,23,24c11.76,11.75,25.19,22.35,35,36,1.33,1,2.67,2,4,3v2c0.67,0.33,1.33.67,2,1v2h1c0.33,1.33.67,2.67,1,4h1v3h1c0.33,3.67.67,7.33,1,11h1q-1.005,7.5-2,15h-1v3h-1c-0.67,2-1.33,4-2,6h-1v2c-1,.67-2,1.33-3,2v2c-1.33,1-2.67,2-4,3-0.33.67-.67,1.33-1,2h-2c-0.67,1-1.33,2-2,3-1.33.33-2.67,0.67-4,1-0.33.67-.67,1.33-1,2h-3v1h-2v1h-4a30.473,30.473,0,0,1-20,0h-4v-1h-2v-1h-3c-0.33-.67-0.67-1.33-1-2-1.33-.33-2.67-0.67-4-1-0.67-1-1.33-2-2-3-11.5-8.15-20.18-19.18-30-29q-26.49-25.995-53-52-51.99-52.5-104-105h-1q-22.005-22.5-44-45c-3.68-3.68-7.36-7.28-11-11-0.88-.9-4.22-2.3-4-4q30.495-30,61-60Q3940.99,3708.515,4029,3620Zm-2028,2c5.17,1.4,13.14,12.14,17,16,2,1.67,4,3.33,6,5q16.5,16.995,33,34,24.99,24.495,50,49,40.995,41.49,82,83,16.005,15.495,32,31c1.33,1.67,2.67,3.33,4,5,3.6,3.6,12.64,10.01,14,15q-102.495,101.985-205,204-11.505,12-23,24-3.495,3-7,6c-6.15,6.15-11.45,13.26-20,17-12.74,5.57-31.73,2.43-41-4-9.65-6.7-22.98-25.34-17-44,0.33-2.33.67-4.67,1-7h1v-2h1c0.67-2,1.33-4,2-6q9.495-10.005,19-20,50.49-49.995,101-100,7.5-7.995,15-16,16.005-15.495,32-31c1.33-1.67,2.67-3.33,4-5q6-6,12-12c1.78-1.79,3.65-2.69,5-5-4.84-2.81-8.13-8.13-12-12h-1q-13.005-13.5-26-27-6.495-6-13-12-19.995-20.505-40-41l-17-17c-2.68-2.68-6.02-4.61-8-8h-1v1c-5.58,3.25-11.35,11.35-16,16-1.67,1.33-3.33,2.67-5,4q-15.495,16.005-31,32-7.5,7.005-15,14-50.49,51-101,102-10.005,9.495-20,19c-2,.67-4,1.33-6,2v1h-2v1c-2.33.33-4.67,0.67-7,1-18.8,5.94-37.24-7.24-44-17-6.44-9.3-9.67-28.13-4-41,3.77-8.55,10.84-13.84,17-20,1.67-2,3.33-4,5-6q12.495-12,25-24Q1898.985,3724.505,2001,3622Z"/>
</svg>
