M48
METRIC,LZ,000.000
;FILE_FORMAT=3:3
;TYPE=PLATED
;Layer: PTH_Through
;EasyEDA v6.5.39, 2024-09-29 20:51:04
;9dd5da30d42b491596d51ff902fabefb,51e75598fcfa43b1b8b7fc2dab888f2e,10
;Gerber Generator version 0.2
;Holesize 1 = 0.306 mm
T01C0.306
;Holesize 2 = 0.901 mm
T02C0.901
;Holesize 3 = 0.915 mm
T03C0.915
;Holesize 4 = 1.000 mm
T04C1.000
;Holesize 5 = 1.021 mm
T05C1.021
;Holesize 6 = 1.400 mm
T06C1.400
%
G05
G90
T01
X124255Y032001
X115031Y050434
X104282Y049190
X060113Y026236
X022331Y088307
X036038Y031011
X031688Y045952
X042791Y035171
X025178Y072106
X041674Y044796
X070023Y065105
X074544Y063124
X065944Y027032
X046304Y047066
X086674Y070681
X112016Y041953
X111742Y059009
X060718Y073191
X060458Y049771
X102949Y052457
X106127Y068651
T02
X073747Y023495
X071247Y023495
X068747Y023495
X086447Y023495
X083947Y023495
X081447Y023495
X099147Y023495
X096647Y023495
X094147Y023495
X111847Y023495
X109347Y023495
X106847Y023495
X124547Y023495
X122047Y023495
X119547Y023495
X125984Y035874
X125984Y038374
X125984Y040874
X125984Y043374
T03
X031747Y077597G85X031753Y077597
X039367Y077597G85X039373Y077597
X044447Y077597G85X044453Y077597
X052067Y077597G85X052073Y077597
X057147Y077597G85X057153Y077597
X064767Y077597G85X064773Y077597
X069847Y077597G85X069853Y077597
X077467Y077597G85X077473Y077597
X082547Y077597G85X082553Y077597
X090167Y077597G85X090173Y077597
X095247Y077597G85X095253Y077597
X102867Y077597G85X102873Y077597
X107947Y077597G85X107953Y077597
X115567Y077597G85X115573Y077597
X120647Y077597G85X120653Y077597
X128267Y077597G85X128273Y077597
X031747Y073660G85X031753Y073660
X039367Y073660G85X039373Y073660
X044447Y073660G85X044453Y073660
X052067Y073660G85X052073Y073660
X057147Y073660G85X057153Y073660
X064767Y073660G85X064773Y073660
X069847Y073660G85X069853Y073660
X077467Y073660G85X077473Y073660
X082547Y073660G85X082553Y073660
X090167Y073660G85X090173Y073660
X095247Y073660G85X095253Y073660
X102867Y073660G85X102873Y073660
X107947Y073660G85X107953Y073660
X115567Y073660G85X115573Y073660
X120647Y073660G85X120653Y073660
X128267Y073660G85X128273Y073660
X018539Y073660G85X018545Y073660
X026159Y073660G85X026165Y073660
X018539Y077597G85X018545Y077597
X026159Y077597G85X026165Y077597
X115824Y052454G85X115824Y052448
X115824Y044834G85X115824Y044828
X100838Y064900G85X100838Y064894
X100838Y057280G85X100838Y057274
X100584Y052454G85X100584Y052448
X100584Y044834G85X100584Y044828
X105537Y052454G85X105537Y052448
X105537Y044834G85X105537Y044828
X110998Y064900G85X110998Y064894
X110998Y057280G85X110998Y057274
X095631Y057274G85X095631Y057280
X095631Y064894G85X095631Y064900
X105918Y057274G85X105918Y057280
X105918Y064894G85X105918Y064900
X095504Y044828G85X095504Y044834
X095504Y052448G85X095504Y052454
X110744Y044828G85X110744Y044834
X110744Y052448G85X110744Y052454
X115951Y057274G85X115951Y057280
X115951Y064894G85X115951Y064900
X018669Y050120
X027019Y050120
X027019Y064770
X018669Y064770
X078613Y069238G85X078613Y069192
X076073Y069215
X073533Y069215
X070993Y069215
X068453Y069215
X065913Y069215
X063373Y069215
X060833Y069215
X058293Y069215
X055753Y069215
X053213Y069215
X050673Y069215
X048133Y069215
X045593Y069215
X043053Y069215
X043053Y043815
X045593Y043815
X048133Y043815
X050673Y043815
X053213Y043815
X055753Y043815
X058293Y043815
X060833Y043815
X063373Y043815
X065913Y043815
X068453Y043815
X070993Y043815
X073533Y043815
X076073Y043815
X078613Y043815
T04
X033147Y031591
X033147Y040291
X038227Y031591
X038227Y040291
X043307Y031591
X043307Y040291
X048387Y031591
X048387Y040291
X053467Y031591
X053467Y040291
X058547Y031591
X058547Y040291
X063627Y031591
X063627Y040291
X068707Y031591
X068707Y040291
X018383Y044450
X027083Y044450
X033147Y083312
X035687Y083312
X038227Y083312
X045847Y083312
X048387Y083312
X050927Y083312
X058547Y083312
X061087Y083312
X063627Y083312
X071247Y083312
X073787Y083312
X076327Y083312
X083947Y083312
X086487Y083312
X089027Y083312
X096647Y083312
X099187Y083312
X101727Y083312
X109347Y083312
X111887Y083312
X114427Y083312
X122047Y083312
X124587Y083312
X127127Y083312
X019812Y083312
X022352Y083312
X024892Y083312
X018510Y039624
X027210Y039624
T05
X052987Y024894G85X052992Y024894
X049987Y024894G85X049992Y024894
X046987Y024894G85X046992Y024894
X043987Y024894G85X043992Y024894
X040987Y024894G85X040992Y024894
X052987Y027894G85X052992Y027894
X049987Y027894G85X049992Y027894
X046987Y027894G85X046992Y027894
X043987Y027894G85X043992Y027894
X040987Y027894G85X040992Y027894
T06
X024960Y029652
X020760Y029652
X024960Y035152
X020760Y035152
M30
