G04 Layer: TopSolderMaskLayer*
G04 EasyEDA v6.5.39, 2024-09-29 20:51:04*
G04 9dd5da30d42b491596d51ff902fabefb,51e75598fcfa43b1b8b7fc2dab888f2e,10*
G04 Gerber Generator version 0.2*
G04 Scale: 100 percent, Rotated: No, Reflected: No *
G04 Dimensions in millimeters *
G04 leading zeros omitted , absolute positions ,4 integer and 5 decimal *
%FSLAX45Y45*%
%MOMM*%

%AMMACRO1*1,1,$1,$2,$3*1,1,$1,$4,$5*1,1,$1,0-$2,0-$3*1,1,$1,0-$4,0-$5*20,1,$1,$2,$3,$4,$5,0*20,1,$1,$4,$5,0-$2,0-$3,0*20,1,$1,0-$2,0-$3,0-$4,0-$5,0*20,1,$1,0-$4,0-$5,$2,$3,0*4,1,4,$2,$3,$4,$5,0-$2,0-$3,0-$4,0-$5,$2,$3,0*%
%ADD10C,1.9016*%
%ADD11C,1.6016*%
%ADD12MACRO1,0.1016X-0.75X0.75X0.75X0.75*%
%ADD13R,1.6016X1.6016*%
%ADD14MACRO1,0.2032X-1.1X1.1X1.1X1.1*%
%ADD15C,2.4032*%
%ADD16C,1.8016*%
%ADD17C,1.7526*%
%ADD18C,1.7272*%
%ADD19MACRO1,0.2032X0.762X0.762X0.762X-0.762*%
%ADD20MACRO1,0.1016X-0.765X0.765X0.765X0.765*%
%ADD21C,1.6317*%

%LPD*%
D10*
G01*
X3314700Y3159099D03*
G01*
X3314700Y4029100D03*
G01*
X3822700Y3159099D03*
G01*
X3822700Y4029100D03*
G01*
X4330700Y3159099D03*
G01*
X4330700Y4029100D03*
G01*
X4838700Y3159099D03*
G01*
X4838700Y4029100D03*
G01*
X5346700Y3159099D03*
G01*
X5346700Y4029100D03*
G01*
X5854700Y3159099D03*
G01*
X5854700Y4029100D03*
G01*
X6362700Y3159099D03*
G01*
X6362700Y4029100D03*
G01*
X6870700Y3159099D03*
G01*
X6870700Y4029100D03*
G01*
X1838299Y4445000D03*
G01*
X2708300Y4445000D03*
D11*
G01*
X7374686Y2349500D03*
G01*
X7124700Y2349500D03*
D12*
G01*
X6874686Y2349493D03*
D11*
G01*
X8644712Y2349500D03*
G01*
X8394725Y2349500D03*
D12*
G01*
X8144701Y2349493D03*
D11*
G01*
X9914712Y2349500D03*
G01*
X9664725Y2349500D03*
D12*
G01*
X9414701Y2349493D03*
D11*
G01*
X11184712Y2349500D03*
G01*
X10934725Y2349500D03*
D12*
G01*
X10684701Y2349493D03*
D11*
G01*
X12454712Y2349500D03*
G01*
X12204725Y2349500D03*
D12*
G01*
X11954701Y2349493D03*
D13*
G01*
X12598400Y3587394D03*
D11*
G01*
X12598400Y3837431D03*
G01*
X12598400Y4087418D03*
G01*
X12598400Y4337430D03*
D14*
G01*
X2495989Y2965190D03*
D15*
G01*
X2076018Y2965195D03*
G01*
X2496007Y3515207D03*
G01*
X2076018Y3515207D03*
D16*
G01*
X3314700Y8331174D03*
G01*
X3568700Y8331174D03*
G01*
X3822700Y8331174D03*
G01*
X4584700Y8331174D03*
G01*
X4838700Y8331174D03*
G01*
X5092700Y8331174D03*
G01*
X5854700Y8331174D03*
G01*
X6108700Y8331174D03*
G01*
X6362700Y8331174D03*
G01*
X7124700Y8331174D03*
G01*
X7378700Y8331174D03*
G01*
X7632700Y8331174D03*
G01*
X8394700Y8331174D03*
G01*
X8648700Y8331174D03*
G01*
X8902700Y8331174D03*
G01*
X9664700Y8331174D03*
G01*
X9918700Y8331174D03*
G01*
X10172700Y8331174D03*
G01*
X10934700Y8331174D03*
G01*
X11188700Y8331174D03*
G01*
X11442700Y8331174D03*
G01*
X12204700Y8331174D03*
G01*
X12458700Y8331174D03*
G01*
X12712700Y8331174D03*
G01*
X1981200Y8331174D03*
G01*
X2235200Y8331174D03*
G01*
X2489200Y8331174D03*
D17*
G01*
X3175000Y7759700D03*
G01*
X3937000Y7759700D03*
G01*
X4445000Y7759700D03*
G01*
X5207000Y7759700D03*
G01*
X5715000Y7759700D03*
G01*
X6477000Y7759700D03*
G01*
X6985000Y7759700D03*
G01*
X7747000Y7759700D03*
G01*
X8255000Y7759700D03*
G01*
X9017000Y7759700D03*
G01*
X9525000Y7759700D03*
G01*
X10287000Y7759700D03*
G01*
X10795000Y7759700D03*
G01*
X11557000Y7759700D03*
G01*
X12065000Y7759700D03*
G01*
X12827000Y7759700D03*
G01*
X3175000Y7366000D03*
G01*
X3937000Y7366000D03*
G01*
X4445000Y7366000D03*
G01*
X5207000Y7366000D03*
G01*
X5715000Y7366000D03*
G01*
X6477000Y7366000D03*
G01*
X6985000Y7366000D03*
G01*
X7747000Y7366000D03*
G01*
X8255000Y7366000D03*
G01*
X9017000Y7366000D03*
G01*
X9525000Y7366000D03*
G01*
X10287000Y7366000D03*
G01*
X10795000Y7366000D03*
G01*
X11557000Y7366000D03*
G01*
X12065000Y7366000D03*
G01*
X12827000Y7366000D03*
G01*
X1854200Y7366000D03*
G01*
X2616200Y7366000D03*
G01*
X1854200Y7759700D03*
G01*
X2616200Y7759700D03*
G01*
X11582400Y5245100D03*
G01*
X11582400Y4483100D03*
G01*
X10083800Y6489700D03*
G01*
X10083800Y5727700D03*
G01*
X10058400Y5245100D03*
G01*
X10058400Y4483100D03*
G01*
X10553700Y5245100D03*
G01*
X10553700Y4483100D03*
G01*
X11099800Y6489700D03*
G01*
X11099800Y5727700D03*
G01*
X9563100Y5727700D03*
G01*
X9563100Y6489700D03*
G01*
X10591800Y5727700D03*
G01*
X10591800Y6489700D03*
G01*
X9550400Y4483100D03*
G01*
X9550400Y5245100D03*
G01*
X11074400Y4483100D03*
G01*
X11074400Y5245100D03*
G01*
X11595100Y5727700D03*
G01*
X11595100Y6489700D03*
D18*
G01*
X1866900Y5012004D03*
G01*
X2701899Y5012004D03*
G01*
X2701899Y6477000D03*
G01*
X1866900Y6477000D03*
D19*
G01*
X7861312Y6921502D03*
D18*
G01*
X7607300Y6921500D03*
G01*
X7353300Y6921500D03*
G01*
X7099300Y6921500D03*
G01*
X6845300Y6921500D03*
G01*
X6591300Y6921500D03*
G01*
X6337300Y6921500D03*
G01*
X6083300Y6921500D03*
G01*
X5829300Y6921500D03*
G01*
X5575300Y6921500D03*
G01*
X5321300Y6921500D03*
G01*
X5067300Y6921500D03*
G01*
X4813300Y6921500D03*
G01*
X4559300Y6921500D03*
G01*
X4305300Y6921500D03*
G01*
X4305300Y4381500D03*
G01*
X4559300Y4381500D03*
G01*
X4813300Y4381500D03*
G01*
X5067300Y4381500D03*
G01*
X5321300Y4381500D03*
G01*
X5575300Y4381500D03*
G01*
X5829300Y4381500D03*
G01*
X6083300Y4381500D03*
G01*
X6337300Y4381500D03*
G01*
X6591300Y4381500D03*
G01*
X6845300Y4381500D03*
G01*
X7099300Y4381500D03*
G01*
X7353300Y4381500D03*
G01*
X7607300Y4381500D03*
G01*
X7861300Y4381500D03*
D20*
G01*
X5298988Y2489398D03*
D21*
G01*
X4998999Y2489403D03*
G01*
X4699000Y2489403D03*
G01*
X4399000Y2489403D03*
G01*
X4099001Y2489403D03*
G01*
X5298998Y2789402D03*
G01*
X4998999Y2789402D03*
G01*
X4699000Y2789402D03*
G01*
X4399000Y2789402D03*
G01*
X4099001Y2789402D03*
D10*
G01*
X1850999Y3962400D03*
G01*
X2721000Y3962400D03*
M02*
