<svg width="14" height="19" viewBox="0 0 14 19" fill="none" xmlns="http://www.w3.org/2000/svg">
<path d="M0 13.4827L1.12094 15.0169L5.31023 11.9552V18.05C5.31023 18.3977 5.50022 18.7179 5.80515 18.8841C5.94764 18.9611 6.10344 19 6.26018 19C6.43877 19 6.61831 18.9497 6.7741 18.849L13.4238 14.5742C13.6869 14.4051 13.8493 14.1163 13.8598 13.8028C13.8693 13.4893 13.723 13.192 13.4703 13.0077L8.6702 9.50049L13.4703 5.99327C13.723 5.80803 13.8693 5.51069 13.8598 5.19721C13.8493 4.88373 13.6869 4.59589 13.4238 4.42585L6.7741 0.151069C6.48152 -0.037021 6.11009 -0.0503203 5.8042 0.115921C5.50022 0.283113 5.31023 0.603246 5.31023 0.950928V7.04582L1.12094 3.98317L0 5.51829L5.31023 9.39884V9.60308L0 13.4827ZM7.21013 2.69124L11.2303 5.27606L7.21013 8.21425V2.69124ZM7.21013 10.7867L11.2303 13.7249L7.21013 16.3097V10.7867Z" fill="#BB86FC"/>
</svg>
