<svg width="18" height="19" viewBox="0 0 18 19" fill="none" xmlns="http://www.w3.org/2000/svg">
<path d="M17.7701 11.7594L16.1552 10.8268C16.3182 9.94731 16.3182 9.04508 16.1552 8.16559L17.7701 7.23303C17.9558 7.12688 18.0392 6.90701 17.9786 6.7023C17.5578 5.35274 16.8413 4.13207 15.905 3.11611C15.7609 2.96068 15.5259 2.92277 15.3439 3.02891L13.729 3.96148C13.0504 3.37768 12.2695 2.92656 11.4241 2.63087V0.769536C11.4241 0.557245 11.2763 0.371491 11.0678 0.326C9.67651 0.0151464 8.25113 0.03031 6.92811 0.326C6.71961 0.371491 6.57176 0.557245 6.57176 0.769536V2.63466C5.73018 2.93414 4.94926 3.38526 4.26689 3.96527L2.65576 3.03271C2.47001 2.92656 2.23876 2.96068 2.09471 3.1199C1.15835 4.13207 0.441872 5.35274 0.0210819 6.70609C-0.0433634 6.9108 0.0438274 7.13067 0.229582 7.23682L1.84451 8.16938C1.6815 9.04887 1.6815 9.9511 1.84451 10.8306L0.229582 11.7632C0.0438274 11.8693 -0.0395725 12.0892 0.0210819 12.2939C0.441872 13.6434 1.15835 14.8641 2.09471 15.8801C2.23876 16.0355 2.4738 16.0734 2.65576 15.9673L4.27068 15.0347C4.94926 15.6185 5.73018 16.0696 6.57555 16.3653V18.2304C6.57555 18.4427 6.7234 18.6285 6.9319 18.674C8.32316 18.9848 9.74854 18.9697 11.0716 18.674C11.2801 18.6285 11.4279 18.4427 11.4279 18.2304V16.3653C12.2695 16.0658 13.0504 15.6147 13.7328 15.0347L15.3477 15.9673C15.5335 16.0734 15.7647 16.0393 15.9088 15.8801C16.8451 14.8679 17.5616 13.6472 17.9824 12.2939C18.0392 12.0854 17.9558 11.8655 17.7701 11.7594ZM8.99794 12.5289C7.32615 12.5289 5.96522 11.168 5.96522 9.49619C5.96522 7.82441 7.32615 6.46347 8.99794 6.46347C10.6697 6.46347 12.0307 7.82441 12.0307 9.49619C12.0307 11.168 10.6697 12.5289 8.99794 12.5289Z" fill="#EFEFEF"/>
</svg>
