<svg width="19" height="19" viewBox="0 0 19 19" fill="none" xmlns="http://www.w3.org/2000/svg">
<path d="M17.8951 11.7595L16.2802 10.8269C16.4432 9.94743 16.4432 9.0452 16.2802 8.16571L17.8951 7.23315C18.0808 7.127 18.1642 6.90713 18.1036 6.70242C17.6828 5.35286 16.9663 4.13219 16.03 3.11623C15.8859 2.9608 15.6509 2.92289 15.4689 3.02904L13.854 3.9616C13.1754 3.3778 12.3945 2.92668 11.5491 2.63099V0.769658C11.5491 0.557368 11.4013 0.371613 11.1928 0.326123C9.80151 0.0152685 8.37613 0.0304321 7.05311 0.326123C6.84461 0.371613 6.69676 0.557368 6.69676 0.769658V2.63478C5.85518 2.93426 5.07426 3.38538 4.39189 3.96539L2.78076 3.03283C2.59501 2.92668 2.36376 2.9608 2.21971 3.12002C1.28335 4.13219 0.566872 5.35286 0.146082 6.70621C0.0816366 6.91092 0.168827 7.13079 0.354582 7.23694L1.96951 8.1695C1.8065 9.04899 1.8065 9.95123 1.96951 10.8307L0.354582 11.7633C0.168827 11.8694 0.0854275 12.0893 0.146082 12.294C0.566872 13.6436 1.28335 14.8642 2.21971 15.8802C2.36376 16.0356 2.5988 16.0735 2.78076 15.9674L4.39568 15.0348C5.07426 15.6186 5.85518 16.0697 6.70055 16.3654V18.2306C6.70055 18.4428 6.8484 18.6286 7.0569 18.6741C8.44816 18.9849 9.87354 18.9698 11.1966 18.6741C11.4051 18.6286 11.5529 18.4428 11.5529 18.2306V16.3654C12.3945 16.066 13.1754 15.6148 13.8578 15.0348L15.4727 15.9674C15.6585 16.0735 15.8897 16.0394 16.0338 15.8802C16.9701 14.868 17.6866 13.6474 18.1074 12.294C18.1642 12.0855 18.0808 11.8656 17.8951 11.7595ZM9.12294 12.529C7.45115 12.529 6.09022 11.1681 6.09022 9.49632C6.09022 7.82453 7.45115 6.46359 9.12294 6.46359C10.7947 6.46359 12.1557 7.82453 12.1557 9.49632C12.1557 11.1681 10.7947 12.529 9.12294 12.529Z" fill="#EFEFEF"/>
</svg>
