<svg width="26" height="19" viewBox="0 0 26 19" fill="none" xmlns="http://www.w3.org/2000/svg">
<path d="M25.2884 5.59376H22.3651L21.5526 3.5625C20.7176 1.47412 18.7249 0.125 16.4754 0.125H10.2742C8.02522 0.125 6.03206 1.47412 5.19661 3.5625L4.3841 5.59376H1.46125C1.0799 5.59376 0.800115 5.95216 0.892889 6.32179L1.18586 7.49366C1.2508 7.75441 1.48517 7.93751 1.75422 7.93751H2.7342C2.07844 8.51027 1.65607 9.34279 1.65607 10.2813V12.625C1.65607 13.4121 1.95686 14.1226 2.43732 14.6724V17.3125C2.43732 18.1753 3.13703 18.875 3.99983 18.875H5.56233C6.42512 18.875 7.12483 18.1753 7.12483 17.3125V15.75H19.6248V17.3125C19.6248 18.1753 20.3246 18.875 21.1873 18.875H22.7499C23.6126 18.875 24.3124 18.1753 24.3124 17.3125V14.6724C24.7928 14.1231 25.0936 13.4126 25.0936 12.625V10.2813C25.0936 9.34279 24.6712 8.51027 24.016 7.93751H24.9959C25.265 7.93751 25.4994 7.75441 25.5643 7.49366L25.8573 6.32179C25.9496 5.95216 25.6698 5.59376 25.2884 5.59376ZM8.09798 4.72315C8.45393 3.8335 9.31575 3.25 10.2742 3.25H16.4754C17.4339 3.25 18.2957 3.8335 18.6517 4.72315L19.6248 7.15626H7.12483L8.09798 4.72315ZM5.56233 12.6153C4.62483 12.6153 3.99983 11.9922 3.99983 11.0576C3.99983 10.1231 4.62483 9.50001 5.56233 9.50001C6.49983 9.50001 7.90608 10.9019 7.90608 11.8364C7.90608 12.771 6.49983 12.6153 5.56233 12.6153ZM21.1873 12.6153C20.2498 12.6153 18.8436 12.771 18.8436 11.8364C18.8436 10.9019 20.2498 9.50001 21.1873 9.50001C22.1249 9.50001 22.7499 10.1231 22.7499 11.0576C22.7499 11.9922 22.1249 12.6153 21.1873 12.6153Z" fill="#EFEFEF"/>
</svg>
