<svg width="26" height="19" viewBox="0 0 26 19" fill="none" xmlns="http://www.w3.org/2000/svg">
<path d="M24.9134 5.59376H21.9901L21.1776 3.5625C20.3426 1.47412 18.3499 0.125 16.1004 0.125H9.89925C7.65022 0.125 5.65706 1.47412 4.82161 3.5625L4.0091 5.59376H1.08625C0.704901 5.59376 0.425115 5.95216 0.517889 6.32179L0.810858 7.49366C0.875799 7.75441 1.11017 7.93751 1.37922 7.93751H2.3592C1.70344 8.51027 1.28107 9.34279 1.28107 10.2813V12.625C1.28107 13.4121 1.58186 14.1226 2.06232 14.6724V17.3125C2.06232 18.1753 2.76203 18.875 3.62483 18.875H5.18733C6.05012 18.875 6.74983 18.1753 6.74983 17.3125V15.75H19.2498V17.3125C19.2498 18.1753 19.9496 18.875 20.8123 18.875H22.3749C23.2376 18.875 23.9374 18.1753 23.9374 17.3125V14.6724C24.4178 14.1231 24.7186 13.4126 24.7186 12.625V10.2813C24.7186 9.34279 24.2962 8.51027 23.641 7.93751H24.6209C24.89 7.93751 25.1244 7.75441 25.1893 7.49366L25.4823 6.32179C25.5746 5.95216 25.2948 5.59376 24.9134 5.59376ZM7.72298 4.72315C8.07893 3.8335 8.94075 3.25 9.89925 3.25H16.1004C17.0589 3.25 17.9207 3.8335 18.2767 4.72315L19.2498 7.15626H6.74983L7.72298 4.72315ZM5.18733 12.6153C4.24983 12.6153 3.62483 11.9922 3.62483 11.0576C3.62483 10.1231 4.24983 9.50001 5.18733 9.50001C6.12483 9.50001 7.53108 10.9019 7.53108 11.8364C7.53108 12.771 6.12483 12.6153 5.18733 12.6153ZM20.8123 12.6153C19.8748 12.6153 18.4686 12.771 18.4686 11.8364C18.4686 10.9019 19.8748 9.50001 20.8123 9.50001C21.7499 9.50001 22.3749 10.1231 22.3749 11.0576C22.3749 11.9922 21.7499 12.6153 20.8123 12.6153Z" fill="#BB86FC"/>
</svg>
