<svg width="14" height="19" viewBox="0 0 14 19" fill="none" xmlns="http://www.w3.org/2000/svg">
<path d="M0.139771 13.4827L1.26071 15.0169L5.45 11.9552V18.05C5.45 18.3977 5.63999 18.7179 5.94492 18.8841C6.08741 18.9611 6.24321 19 6.39995 19C6.57854 19 6.75808 18.9497 6.91387 18.849L13.5635 14.5742C13.8267 14.4051 13.9891 14.1163 13.9996 13.8028C14.0091 13.4893 13.8628 13.192 13.6101 13.0077L8.80997 9.50049L13.6101 5.99327C13.8628 5.80803 14.0091 5.51069 13.9996 5.19721C13.9891 4.88373 13.8267 4.59589 13.5635 4.42585L6.91387 0.151069C6.62129 -0.037021 6.24986 -0.0503203 5.94397 0.115921C5.63999 0.283113 5.45 0.603246 5.45 0.950928V7.04582L1.26071 3.98317L0.139771 5.51829L5.45 9.39884V9.60308L0.139771 13.4827ZM7.3499 2.69124L11.3701 5.27606L7.3499 8.21425V2.69124ZM7.3499 10.7867L11.3701 13.7249L7.3499 16.3097V10.7867Z" fill="#BB86FC"/>
</svg>
