<svg width="25" height="19" viewBox="0 0 25 19" fill="none" xmlns="http://www.w3.org/2000/svg">
<path d="M24.4134 5.59376H21.4901L20.6776 3.5625C19.8426 1.47412 17.8499 0.125 15.6004 0.125H9.39925C7.15022 0.125 5.15706 1.47412 4.32161 3.5625L3.5091 5.59376H0.586249C0.204901 5.59376 -0.0748847 5.95216 0.0178888 6.32179L0.310858 7.49366C0.375799 7.75441 0.610175 7.93751 0.879218 7.93751H1.8592C1.20344 8.51027 0.781073 9.34279 0.781073 10.2813V12.625C0.781073 13.4121 1.08186 14.1226 1.56232 14.6724V17.3125C1.56232 18.1753 2.26203 18.875 3.12483 18.875H4.68733C5.55012 18.875 6.24983 18.1753 6.24983 17.3125V15.75H18.7498V17.3125C18.7498 18.1753 19.4496 18.875 20.3123 18.875H21.8749C22.7376 18.875 23.4374 18.1753 23.4374 17.3125V14.6724C23.9178 14.1231 24.2186 13.4126 24.2186 12.625V10.2813C24.2186 9.34279 23.7962 8.51027 23.141 7.93751H24.1209C24.39 7.93751 24.6244 7.75441 24.6893 7.49366L24.9823 6.32179C25.0746 5.95216 24.7948 5.59376 24.4134 5.59376ZM7.22298 4.72315C7.57893 3.8335 8.44075 3.25 9.39925 3.25H15.6004C16.5589 3.25 17.4207 3.8335 17.7767 4.72315L18.7498 7.15626H6.24983L7.22298 4.72315ZM4.68733 12.6153C3.74983 12.6153 3.12483 11.9922 3.12483 11.0576C3.12483 10.1231 3.74983 9.50001 4.68733 9.50001C5.62483 9.50001 7.03108 10.9019 7.03108 11.8364C7.03108 12.771 5.62483 12.6153 4.68733 12.6153ZM20.3123 12.6153C19.3748 12.6153 17.9686 12.771 17.9686 11.8364C17.9686 10.9019 19.3748 9.50001 20.3123 9.50001C21.2499 9.50001 21.8749 10.1231 21.8749 11.0576C21.8749 11.9922 21.2499 12.6153 20.3123 12.6153Z" fill="#BB86FC"/>
</svg>
