<svg width="18" height="19" viewBox="0 0 18 19" fill="none" xmlns="http://www.w3.org/2000/svg">
<path d="M17.7701 11.7595L16.1552 10.8269C16.3182 9.94743 16.3182 9.0452 16.1552 8.16571L17.7701 7.23315C17.9558 7.127 18.0392 6.90713 17.9786 6.70242C17.5578 5.35286 16.8413 4.13219 15.905 3.11623C15.7609 2.9608 15.5259 2.92289 15.3439 3.02904L13.729 3.9616C13.0504 3.3778 12.2695 2.92668 11.4241 2.63099V0.769658C11.4241 0.557368 11.2763 0.371613 11.0678 0.326123C9.67651 0.0152685 8.25113 0.0304321 6.92811 0.326123C6.71961 0.371613 6.57176 0.557368 6.57176 0.769658V2.63478C5.73018 2.93426 4.94926 3.38538 4.26689 3.96539L2.65576 3.03283C2.47001 2.92668 2.23876 2.9608 2.09471 3.12002C1.15835 4.13219 0.441872 5.35286 0.0210819 6.70621C-0.0433634 6.91092 0.0438274 7.13079 0.229582 7.23694L1.84451 8.1695C1.6815 9.04899 1.6815 9.95123 1.84451 10.8307L0.229582 11.7633C0.0438274 11.8694 -0.0395725 12.0893 0.0210819 12.294C0.441872 13.6436 1.15835 14.8642 2.09471 15.8802C2.23876 16.0356 2.4738 16.0735 2.65576 15.9674L4.27068 15.0348C4.94926 15.6186 5.73018 16.0697 6.57555 16.3654V18.2306C6.57555 18.4428 6.7234 18.6286 6.9319 18.6741C8.32316 18.9849 9.74854 18.9698 11.0716 18.6741C11.2801 18.6286 11.4279 18.4428 11.4279 18.2306V16.3654C12.2695 16.066 13.0504 15.6148 13.7328 15.0348L15.3477 15.9674C15.5335 16.0735 15.7647 16.0394 15.9088 15.8802C16.8451 14.868 17.5616 13.6474 17.9824 12.294C18.0392 12.0855 17.9558 11.8656 17.7701 11.7595ZM8.99794 12.529C7.32615 12.529 5.96522 11.1681 5.96522 9.49632C5.96522 7.82453 7.32615 6.46359 8.99794 6.46359C10.6697 6.46359 12.0307 7.82453 12.0307 9.49632C12.0307 11.1681 10.6697 12.529 8.99794 12.529Z" fill="#E4E4E4"/>
</svg>
