M48
METRIC,LZ,000.000
;FILE_FORMAT=3:3
;TYPE=PLATED
;Layer: PTH_Through_Via
;EasyEDA v6.5.39, 2024-09-29 20:51:04
;9dd5da30d42b491596d51ff902fabefb,51e75598fcfa43b1b8b7fc2dab888f2e,10
;Gerber Generator version 0.2
;Holesize 1 = 0.306 mm
T01C0.306
%
G05
G90
T01
X124255Y032001
X115031Y050434
X104282Y049190
X060113Y026236
X022331Y088307
X036038Y031011
X031688Y045952
X042791Y035171
X025178Y072106
X041674Y044796
X070023Y065105
X074544Y063124
X065944Y027032
X046304Y047066
X086674Y070681
X112016Y041953
X111742Y059009
X060718Y073191
X060458Y049771
X102949Y052457
X106127Y068651
M30
