G04 Layer: TopSilkscreenLayer*
G04 EasyEDA v6.5.39, 2024-09-29 20:51:04*
G04 9dd5da30d42b491596d51ff902fabefb,51e75598fcfa43b1b8b7fc2dab888f2e,10*
G04 Gerber Generator version 0.2*
G04 Scale: 100 percent, Rotated: No, Reflected: No *
G04 Dimensions in millimeters *
G04 leading zeros omitted , absolute positions ,4 integer and 5 decimal *
%FSLAX45Y45*%
%MOMM*%

%ADD10C,0.1524*%
%ADD11C,0.2032*%
%ADD12C,0.1501*%
%ADD13C,0.2540*%
%ADD14C,0.1199*%
%ADD15C,0.1270*%
%ADD16C,1.0000*%
%ADD17C,0.0101*%

%LPD*%
D10*
X3262878Y3454405D02*
G01*
X3371844Y3454405D01*
X3262878Y3454405D02*
G01*
X3262878Y3490727D01*
X3267958Y3506475D01*
X3278372Y3516635D01*
X3288786Y3521969D01*
X3304534Y3527049D01*
X3330442Y3527049D01*
X3345936Y3521969D01*
X3356350Y3516635D01*
X3366764Y3506475D01*
X3371844Y3490727D01*
X3371844Y3454405D01*
X3283706Y3561339D02*
G01*
X3278372Y3571753D01*
X3262878Y3587501D01*
X3371844Y3587501D01*
X3770878Y3454405D02*
G01*
X3879844Y3454405D01*
X3770878Y3454405D02*
G01*
X3770878Y3490727D01*
X3775958Y3506475D01*
X3786372Y3516635D01*
X3796786Y3521969D01*
X3812534Y3527049D01*
X3838442Y3527049D01*
X3853936Y3521969D01*
X3864350Y3516635D01*
X3874764Y3506475D01*
X3879844Y3490727D01*
X3879844Y3454405D01*
X3796786Y3566673D02*
G01*
X3791706Y3566673D01*
X3781292Y3571753D01*
X3775958Y3577087D01*
X3770878Y3587501D01*
X3770878Y3608075D01*
X3775958Y3618489D01*
X3781292Y3623823D01*
X3791706Y3628903D01*
X3802120Y3628903D01*
X3812534Y3623823D01*
X3828028Y3613409D01*
X3879844Y3561339D01*
X3879844Y3634237D01*
X4278878Y3467105D02*
G01*
X4387844Y3467105D01*
X4278878Y3467105D02*
G01*
X4278878Y3503427D01*
X4283958Y3519175D01*
X4294372Y3529335D01*
X4304786Y3534669D01*
X4320534Y3539749D01*
X4346442Y3539749D01*
X4361936Y3534669D01*
X4372350Y3529335D01*
X4382764Y3519175D01*
X4387844Y3503427D01*
X4387844Y3467105D01*
X4278878Y3584453D02*
G01*
X4278878Y3641603D01*
X4320534Y3610615D01*
X4320534Y3626109D01*
X4325614Y3636523D01*
X4330694Y3641603D01*
X4346442Y3646937D01*
X4356856Y3646937D01*
X4372350Y3641603D01*
X4382764Y3631189D01*
X4387844Y3615695D01*
X4387844Y3600201D01*
X4382764Y3584453D01*
X4377684Y3579373D01*
X4367270Y3574039D01*
X4799578Y3492505D02*
G01*
X4908544Y3492505D01*
X4799578Y3492505D02*
G01*
X4799578Y3528827D01*
X4804658Y3544575D01*
X4815072Y3554735D01*
X4825486Y3560069D01*
X4841234Y3565149D01*
X4867142Y3565149D01*
X4882636Y3560069D01*
X4893050Y3554735D01*
X4903464Y3544575D01*
X4908544Y3528827D01*
X4908544Y3492505D01*
X4799578Y3651509D02*
G01*
X4872222Y3599439D01*
X4872222Y3677417D01*
X4799578Y3651509D02*
G01*
X4908544Y3651509D01*
X5294878Y3479805D02*
G01*
X5403844Y3479805D01*
X5294878Y3479805D02*
G01*
X5294878Y3516127D01*
X5299958Y3531875D01*
X5310372Y3542035D01*
X5320786Y3547369D01*
X5336534Y3552449D01*
X5362442Y3552449D01*
X5377936Y3547369D01*
X5388350Y3542035D01*
X5398764Y3531875D01*
X5403844Y3516127D01*
X5403844Y3479805D01*
X5294878Y3649223D02*
G01*
X5294878Y3597153D01*
X5341614Y3592073D01*
X5336534Y3597153D01*
X5331200Y3612901D01*
X5331200Y3628395D01*
X5336534Y3643889D01*
X5346694Y3654303D01*
X5362442Y3659637D01*
X5372856Y3659637D01*
X5388350Y3654303D01*
X5398764Y3643889D01*
X5403844Y3628395D01*
X5403844Y3612901D01*
X5398764Y3597153D01*
X5393684Y3592073D01*
X5383270Y3586739D01*
X5802878Y3454405D02*
G01*
X5911844Y3454405D01*
X5802878Y3454405D02*
G01*
X5802878Y3490727D01*
X5807958Y3506475D01*
X5818372Y3516635D01*
X5828786Y3521969D01*
X5844534Y3527049D01*
X5870442Y3527049D01*
X5885936Y3521969D01*
X5896350Y3516635D01*
X5906764Y3506475D01*
X5911844Y3490727D01*
X5911844Y3454405D01*
X5818372Y3623823D02*
G01*
X5807958Y3618489D01*
X5802878Y3602995D01*
X5802878Y3592581D01*
X5807958Y3577087D01*
X5823706Y3566673D01*
X5849614Y3561339D01*
X5875522Y3561339D01*
X5896350Y3566673D01*
X5906764Y3577087D01*
X5911844Y3592581D01*
X5911844Y3597915D01*
X5906764Y3613409D01*
X5896350Y3623823D01*
X5880856Y3628903D01*
X5875522Y3628903D01*
X5860028Y3623823D01*
X5849614Y3613409D01*
X5844534Y3597915D01*
X5844534Y3592581D01*
X5849614Y3577087D01*
X5860028Y3566673D01*
X5875522Y3561339D01*
X6310878Y3454405D02*
G01*
X6419844Y3454405D01*
X6310878Y3454405D02*
G01*
X6310878Y3490727D01*
X6315958Y3506475D01*
X6326372Y3516635D01*
X6336786Y3521969D01*
X6352534Y3527049D01*
X6378442Y3527049D01*
X6393936Y3521969D01*
X6404350Y3516635D01*
X6414764Y3506475D01*
X6419844Y3490727D01*
X6419844Y3454405D01*
X6310878Y3634237D02*
G01*
X6419844Y3582167D01*
X6310878Y3561339D02*
G01*
X6310878Y3634237D01*
X6818878Y3479805D02*
G01*
X6927844Y3479805D01*
X6818878Y3479805D02*
G01*
X6818878Y3516127D01*
X6823958Y3531875D01*
X6834372Y3542035D01*
X6844786Y3547369D01*
X6860534Y3552449D01*
X6886442Y3552449D01*
X6901936Y3547369D01*
X6912350Y3542035D01*
X6922764Y3531875D01*
X6927844Y3516127D01*
X6927844Y3479805D01*
X6818878Y3612901D02*
G01*
X6823958Y3597153D01*
X6834372Y3592073D01*
X6844786Y3592073D01*
X6855200Y3597153D01*
X6860534Y3607567D01*
X6865614Y3628395D01*
X6870694Y3643889D01*
X6881108Y3654303D01*
X6891522Y3659637D01*
X6907270Y3659637D01*
X6917684Y3654303D01*
X6922764Y3649223D01*
X6927844Y3633475D01*
X6927844Y3612901D01*
X6922764Y3597153D01*
X6917684Y3592073D01*
X6907270Y3586739D01*
X6891522Y3586739D01*
X6881108Y3592073D01*
X6870694Y3602487D01*
X6865614Y3617981D01*
X6860534Y3638809D01*
X6855200Y3649223D01*
X6844786Y3654303D01*
X6834372Y3654303D01*
X6823958Y3649223D01*
X6818878Y3633475D01*
X6818878Y3612901D01*
X2133600Y4496815D02*
G01*
X2133600Y4387850D01*
X2133600Y4496815D02*
G01*
X2169922Y4496815D01*
X2185670Y4491736D01*
X2195829Y4481321D01*
X2201163Y4470907D01*
X2206243Y4455160D01*
X2206243Y4429252D01*
X2201163Y4413757D01*
X2195829Y4403344D01*
X2185670Y4392929D01*
X2169922Y4387850D01*
X2133600Y4387850D01*
X2308097Y4460494D02*
G01*
X2303018Y4445000D01*
X2292604Y4434586D01*
X2277109Y4429252D01*
X2271775Y4429252D01*
X2256281Y4434586D01*
X2245868Y4445000D01*
X2240534Y4460494D01*
X2240534Y4465573D01*
X2245868Y4481321D01*
X2256281Y4491736D01*
X2271775Y4496815D01*
X2277109Y4496815D01*
X2292604Y4491736D01*
X2303018Y4481321D01*
X2308097Y4460494D01*
X2308097Y4434586D01*
X2303018Y4408423D01*
X2292604Y4392929D01*
X2277109Y4387850D01*
X2266695Y4387850D01*
X2250947Y4392929D01*
X2245868Y4403344D01*
X7115985Y2591810D02*
G01*
X7115985Y2482844D01*
X7115985Y2591810D02*
G01*
X7183549Y2591810D01*
X7115985Y2539994D02*
G01*
X7157641Y2539994D01*
X7217839Y2591810D02*
G01*
X7217839Y2482844D01*
X7217839Y2482844D02*
G01*
X7280069Y2482844D01*
X8386000Y2591810D02*
G01*
X8386000Y2482844D01*
X8386000Y2591810D02*
G01*
X8453564Y2591810D01*
X8386000Y2539994D02*
G01*
X8427656Y2539994D01*
X8487854Y2591810D02*
G01*
X8487854Y2482844D01*
X8487854Y2591810D02*
G01*
X8534590Y2591810D01*
X8550084Y2586730D01*
X8555418Y2581396D01*
X8560498Y2570982D01*
X8560498Y2560568D01*
X8555418Y2550154D01*
X8550084Y2545074D01*
X8534590Y2539994D01*
X8487854Y2539994D01*
X8524176Y2539994D02*
G01*
X8560498Y2482844D01*
X9656000Y2591810D02*
G01*
X9656000Y2482844D01*
X9656000Y2591810D02*
G01*
X9702736Y2591810D01*
X9718230Y2586730D01*
X9723564Y2581396D01*
X9728644Y2570982D01*
X9728644Y2560568D01*
X9723564Y2550154D01*
X9718230Y2545074D01*
X9702736Y2539994D01*
X9656000Y2539994D01*
X9692322Y2539994D02*
G01*
X9728644Y2482844D01*
X9762934Y2591810D02*
G01*
X9762934Y2482844D01*
X9762934Y2482844D02*
G01*
X9825418Y2482844D01*
X10926000Y2591810D02*
G01*
X10926000Y2482844D01*
X10926000Y2591810D02*
G01*
X10972736Y2591810D01*
X10988230Y2586730D01*
X10993564Y2581396D01*
X10998644Y2570982D01*
X10998644Y2560568D01*
X10993564Y2550154D01*
X10988230Y2545074D01*
X10972736Y2539994D01*
X10926000Y2539994D01*
X10962322Y2539994D02*
G01*
X10998644Y2482844D01*
X11032934Y2591810D02*
G01*
X11032934Y2482844D01*
X11032934Y2591810D02*
G01*
X11079670Y2591810D01*
X11095418Y2586730D01*
X11100498Y2581396D01*
X11105832Y2570982D01*
X11105832Y2560568D01*
X11100498Y2550154D01*
X11095418Y2545074D01*
X11079670Y2539994D01*
X11032934Y2539994D01*
X11069510Y2539994D02*
G01*
X11105832Y2482844D01*
X12232322Y2591810D02*
G01*
X12232322Y2482844D01*
X12196000Y2591810D02*
G01*
X12268644Y2591810D01*
X12344590Y2591810D02*
G01*
X12302934Y2482844D01*
X12344590Y2591810D02*
G01*
X12386246Y2482844D01*
X12318682Y2519166D02*
G01*
X12370498Y2519166D01*
X12420536Y2591810D02*
G01*
X12420536Y2482844D01*
X12420536Y2591810D02*
G01*
X12493180Y2482844D01*
X12493180Y2591810D02*
G01*
X12493180Y2482844D01*
X12527470Y2591810D02*
G01*
X12527470Y2482844D01*
X12600114Y2591810D02*
G01*
X12527470Y2519166D01*
X12553378Y2545074D02*
G01*
X12600114Y2482844D01*
X12203684Y3974236D02*
G01*
X12208763Y3963822D01*
X12219177Y3953408D01*
X12229591Y3948074D01*
X12245340Y3942994D01*
X12271247Y3942994D01*
X12286741Y3948074D01*
X12297156Y3953408D01*
X12307570Y3963822D01*
X12312650Y3974236D01*
X12312650Y3995064D01*
X12307570Y4005224D01*
X12297156Y4015638D01*
X12286741Y4020972D01*
X12271247Y4026052D01*
X12245340Y4026052D01*
X12229591Y4020972D01*
X12219177Y4015638D01*
X12208763Y4005224D01*
X12203684Y3995064D01*
X12203684Y3974236D01*
X12203684Y4060342D02*
G01*
X12312650Y4060342D01*
X12312650Y4060342D02*
G01*
X12312650Y4122826D01*
X12203684Y4157116D02*
G01*
X12312650Y4157116D01*
X12203684Y4157116D02*
G01*
X12203684Y4224680D01*
X12255500Y4157116D02*
G01*
X12255500Y4198518D01*
X12312650Y4157116D02*
G01*
X12312650Y4224680D01*
X12203684Y4258970D02*
G01*
X12312650Y4258970D01*
X12203684Y4258970D02*
G01*
X12203684Y4295292D01*
X12208763Y4310786D01*
X12219177Y4321200D01*
X12229591Y4326534D01*
X12245340Y4331614D01*
X12271247Y4331614D01*
X12286741Y4326534D01*
X12297156Y4321200D01*
X12307570Y4310786D01*
X12312650Y4295292D01*
X12312650Y4258970D01*
X2222494Y3277610D02*
G01*
X2222494Y3168644D01*
X2222494Y3277610D02*
G01*
X2269230Y3277610D01*
X2284724Y3272530D01*
X2290058Y3267196D01*
X2295138Y3256782D01*
X2295138Y3241288D01*
X2290058Y3230874D01*
X2284724Y3225794D01*
X2269230Y3220460D01*
X2222494Y3220460D01*
X2329428Y3256782D02*
G01*
X2339842Y3262116D01*
X2355590Y3277610D01*
X2355590Y3168644D01*
X3485641Y9525998D02*
G01*
X3475227Y9520918D01*
X3464813Y9510504D01*
X3459479Y9500090D01*
X3454400Y9484342D01*
X3454400Y9458434D01*
X3459479Y9442940D01*
X3464813Y9432526D01*
X3475227Y9422112D01*
X3485641Y9417032D01*
X3506470Y9417032D01*
X3516629Y9422112D01*
X3527043Y9432526D01*
X3532377Y9442940D01*
X3537458Y9458434D01*
X3537458Y9484342D01*
X3532377Y9500090D01*
X3527043Y9510504D01*
X3516629Y9520918D01*
X3506470Y9525998D01*
X3485641Y9525998D01*
X3501136Y9437606D02*
G01*
X3532377Y9406618D01*
X3571747Y9505170D02*
G01*
X3582161Y9510504D01*
X3597909Y9525998D01*
X3597909Y9417032D01*
X4755641Y9513298D02*
G01*
X4745227Y9508218D01*
X4734813Y9497804D01*
X4729479Y9487390D01*
X4724400Y9471642D01*
X4724400Y9445734D01*
X4729479Y9430240D01*
X4734813Y9419826D01*
X4745227Y9409412D01*
X4755641Y9404332D01*
X4776470Y9404332D01*
X4786629Y9409412D01*
X4797043Y9419826D01*
X4802377Y9430240D01*
X4807458Y9445734D01*
X4807458Y9471642D01*
X4802377Y9487390D01*
X4797043Y9497804D01*
X4786629Y9508218D01*
X4776470Y9513298D01*
X4755641Y9513298D01*
X4771136Y9424906D02*
G01*
X4802377Y9393918D01*
X4847081Y9487390D02*
G01*
X4847081Y9492470D01*
X4852161Y9502884D01*
X4857495Y9508218D01*
X4867909Y9513298D01*
X4888484Y9513298D01*
X4898897Y9508218D01*
X4904231Y9502884D01*
X4909311Y9492470D01*
X4909311Y9482056D01*
X4904231Y9471642D01*
X4893818Y9456148D01*
X4841747Y9404332D01*
X4914645Y9404332D01*
X6025641Y9513298D02*
G01*
X6015227Y9508218D01*
X6004813Y9497804D01*
X5999479Y9487390D01*
X5994400Y9471642D01*
X5994400Y9445734D01*
X5999479Y9430240D01*
X6004813Y9419826D01*
X6015227Y9409412D01*
X6025641Y9404332D01*
X6046470Y9404332D01*
X6056629Y9409412D01*
X6067043Y9419826D01*
X6072377Y9430240D01*
X6077458Y9445734D01*
X6077458Y9471642D01*
X6072377Y9487390D01*
X6067043Y9497804D01*
X6056629Y9508218D01*
X6046470Y9513298D01*
X6025641Y9513298D01*
X6041136Y9424906D02*
G01*
X6072377Y9393918D01*
X6122161Y9513298D02*
G01*
X6179311Y9513298D01*
X6148070Y9471642D01*
X6163818Y9471642D01*
X6174231Y9466562D01*
X6179311Y9461482D01*
X6184645Y9445734D01*
X6184645Y9435320D01*
X6179311Y9419826D01*
X6168897Y9409412D01*
X6153404Y9404332D01*
X6137909Y9404332D01*
X6122161Y9409412D01*
X6117081Y9414492D01*
X6111747Y9424906D01*
X7295641Y9513298D02*
G01*
X7285227Y9508218D01*
X7274813Y9497804D01*
X7269479Y9487390D01*
X7264400Y9471642D01*
X7264400Y9445734D01*
X7269479Y9430240D01*
X7274813Y9419826D01*
X7285227Y9409412D01*
X7295641Y9404332D01*
X7316470Y9404332D01*
X7326629Y9409412D01*
X7337043Y9419826D01*
X7342377Y9430240D01*
X7347458Y9445734D01*
X7347458Y9471642D01*
X7342377Y9487390D01*
X7337043Y9497804D01*
X7326629Y9508218D01*
X7316470Y9513298D01*
X7295641Y9513298D01*
X7311136Y9424906D02*
G01*
X7342377Y9393918D01*
X7433818Y9513298D02*
G01*
X7381747Y9440654D01*
X7459725Y9440654D01*
X7433818Y9513298D02*
G01*
X7433818Y9404332D01*
X8565641Y9513298D02*
G01*
X8555227Y9508218D01*
X8544813Y9497804D01*
X8539479Y9487390D01*
X8534400Y9471642D01*
X8534400Y9445734D01*
X8539479Y9430240D01*
X8544813Y9419826D01*
X8555227Y9409412D01*
X8565641Y9404332D01*
X8586470Y9404332D01*
X8596629Y9409412D01*
X8607043Y9419826D01*
X8612377Y9430240D01*
X8617458Y9445734D01*
X8617458Y9471642D01*
X8612377Y9487390D01*
X8607043Y9497804D01*
X8596629Y9508218D01*
X8586470Y9513298D01*
X8565641Y9513298D01*
X8581136Y9424906D02*
G01*
X8612377Y9393918D01*
X8714231Y9513298D02*
G01*
X8662161Y9513298D01*
X8657081Y9466562D01*
X8662161Y9471642D01*
X8677909Y9476976D01*
X8693404Y9476976D01*
X8708897Y9471642D01*
X8719311Y9461482D01*
X8724645Y9445734D01*
X8724645Y9435320D01*
X8719311Y9419826D01*
X8708897Y9409412D01*
X8693404Y9404332D01*
X8677909Y9404332D01*
X8662161Y9409412D01*
X8657081Y9414492D01*
X8651747Y9424906D01*
X9848341Y9513298D02*
G01*
X9837927Y9508218D01*
X9827513Y9497804D01*
X9822179Y9487390D01*
X9817100Y9471642D01*
X9817100Y9445734D01*
X9822179Y9430240D01*
X9827513Y9419826D01*
X9837927Y9409412D01*
X9848341Y9404332D01*
X9869170Y9404332D01*
X9879329Y9409412D01*
X9889743Y9419826D01*
X9895077Y9430240D01*
X9900158Y9445734D01*
X9900158Y9471642D01*
X9895077Y9487390D01*
X9889743Y9497804D01*
X9879329Y9508218D01*
X9869170Y9513298D01*
X9848341Y9513298D01*
X9863836Y9424906D02*
G01*
X9895077Y9393918D01*
X9996931Y9497804D02*
G01*
X9991597Y9508218D01*
X9976104Y9513298D01*
X9965690Y9513298D01*
X9950195Y9508218D01*
X9939781Y9492470D01*
X9934447Y9466562D01*
X9934447Y9440654D01*
X9939781Y9419826D01*
X9950195Y9409412D01*
X9965690Y9404332D01*
X9970770Y9404332D01*
X9986518Y9409412D01*
X9996931Y9419826D01*
X10002011Y9435320D01*
X10002011Y9440654D01*
X9996931Y9456148D01*
X9986518Y9466562D01*
X9970770Y9471642D01*
X9965690Y9471642D01*
X9950195Y9466562D01*
X9939781Y9456148D01*
X9934447Y9440654D01*
X11105641Y9513298D02*
G01*
X11095227Y9508218D01*
X11084813Y9497804D01*
X11079479Y9487390D01*
X11074400Y9471642D01*
X11074400Y9445734D01*
X11079479Y9430240D01*
X11084813Y9419826D01*
X11095227Y9409412D01*
X11105641Y9404332D01*
X11126470Y9404332D01*
X11136629Y9409412D01*
X11147043Y9419826D01*
X11152377Y9430240D01*
X11157458Y9445734D01*
X11157458Y9471642D01*
X11152377Y9487390D01*
X11147043Y9497804D01*
X11136629Y9508218D01*
X11126470Y9513298D01*
X11105641Y9513298D01*
X11121136Y9424906D02*
G01*
X11152377Y9393918D01*
X11264645Y9513298D02*
G01*
X11212575Y9404332D01*
X11191747Y9513298D02*
G01*
X11264645Y9513298D01*
X12375641Y9513298D02*
G01*
X12365227Y9508218D01*
X12354813Y9497804D01*
X12349479Y9487390D01*
X12344400Y9471642D01*
X12344400Y9445734D01*
X12349479Y9430240D01*
X12354813Y9419826D01*
X12365227Y9409412D01*
X12375641Y9404332D01*
X12396470Y9404332D01*
X12406629Y9409412D01*
X12417043Y9419826D01*
X12422377Y9430240D01*
X12427458Y9445734D01*
X12427458Y9471642D01*
X12422377Y9487390D01*
X12417043Y9497804D01*
X12406629Y9508218D01*
X12396470Y9513298D01*
X12375641Y9513298D01*
X12391136Y9424906D02*
G01*
X12422377Y9393918D01*
X12487909Y9513298D02*
G01*
X12472161Y9508218D01*
X12467081Y9497804D01*
X12467081Y9487390D01*
X12472161Y9476976D01*
X12482575Y9471642D01*
X12503404Y9466562D01*
X12518897Y9461482D01*
X12529311Y9451068D01*
X12534645Y9440654D01*
X12534645Y9424906D01*
X12529311Y9414492D01*
X12524231Y9409412D01*
X12508484Y9404332D01*
X12487909Y9404332D01*
X12472161Y9409412D01*
X12467081Y9414492D01*
X12461747Y9424906D01*
X12461747Y9440654D01*
X12467081Y9451068D01*
X12477495Y9461482D01*
X12492990Y9466562D01*
X12513818Y9471642D01*
X12524231Y9476976D01*
X12529311Y9487390D01*
X12529311Y9497804D01*
X12524231Y9508218D01*
X12508484Y9513298D01*
X12487909Y9513298D01*
X2177541Y9525998D02*
G01*
X2167127Y9520918D01*
X2156713Y9510504D01*
X2151379Y9500090D01*
X2146300Y9484342D01*
X2146300Y9458434D01*
X2151379Y9442940D01*
X2156713Y9432526D01*
X2167127Y9422112D01*
X2177541Y9417032D01*
X2198370Y9417032D01*
X2208529Y9422112D01*
X2218943Y9432526D01*
X2224277Y9442940D01*
X2229358Y9458434D01*
X2229358Y9484342D01*
X2224277Y9500090D01*
X2218943Y9510504D01*
X2208529Y9520918D01*
X2198370Y9525998D01*
X2177541Y9525998D01*
X2193036Y9437606D02*
G01*
X2224277Y9406618D01*
X2331211Y9489676D02*
G01*
X2326131Y9474182D01*
X2315718Y9463768D01*
X2299970Y9458434D01*
X2294890Y9458434D01*
X2279395Y9463768D01*
X2268981Y9474182D01*
X2263647Y9489676D01*
X2263647Y9494756D01*
X2268981Y9510504D01*
X2279395Y9520918D01*
X2294890Y9525998D01*
X2299970Y9525998D01*
X2315718Y9520918D01*
X2326131Y9510504D01*
X2331211Y9489676D01*
X2331211Y9463768D01*
X2326131Y9437606D01*
X2315718Y9422112D01*
X2299970Y9417032D01*
X2289809Y9417032D01*
X2274061Y9422112D01*
X2268981Y9432526D01*
X3492500Y7811515D02*
G01*
X3492500Y7702550D01*
X3492500Y7811515D02*
G01*
X3539236Y7811515D01*
X3554729Y7806436D01*
X3560063Y7801102D01*
X3565143Y7790687D01*
X3565143Y7780273D01*
X3560063Y7769860D01*
X3554729Y7764779D01*
X3539236Y7759700D01*
X3492500Y7759700D01*
X3528822Y7759700D02*
G01*
X3565143Y7702550D01*
X3599434Y7790687D02*
G01*
X3609847Y7796021D01*
X3625595Y7811515D01*
X3625595Y7702550D01*
X4749800Y7811515D02*
G01*
X4749800Y7702550D01*
X4749800Y7811515D02*
G01*
X4796536Y7811515D01*
X4812029Y7806436D01*
X4817363Y7801102D01*
X4822443Y7790687D01*
X4822443Y7780273D01*
X4817363Y7769860D01*
X4812029Y7764779D01*
X4796536Y7759700D01*
X4749800Y7759700D01*
X4786122Y7759700D02*
G01*
X4822443Y7702550D01*
X4862068Y7785608D02*
G01*
X4862068Y7790687D01*
X4867147Y7801102D01*
X4872481Y7806436D01*
X4882895Y7811515D01*
X4903470Y7811515D01*
X4913884Y7806436D01*
X4919218Y7801102D01*
X4924297Y7790687D01*
X4924297Y7780273D01*
X4919218Y7769860D01*
X4908804Y7754365D01*
X4856734Y7702550D01*
X4929631Y7702550D01*
X6007100Y7811515D02*
G01*
X6007100Y7702550D01*
X6007100Y7811515D02*
G01*
X6053836Y7811515D01*
X6069329Y7806436D01*
X6074663Y7801102D01*
X6079743Y7790687D01*
X6079743Y7780273D01*
X6074663Y7769860D01*
X6069329Y7764779D01*
X6053836Y7759700D01*
X6007100Y7759700D01*
X6043422Y7759700D02*
G01*
X6079743Y7702550D01*
X6124447Y7811515D02*
G01*
X6181597Y7811515D01*
X6150609Y7769860D01*
X6166104Y7769860D01*
X6176518Y7764779D01*
X6181597Y7759700D01*
X6186931Y7743952D01*
X6186931Y7733537D01*
X6181597Y7718044D01*
X6171184Y7707629D01*
X6155690Y7702550D01*
X6140195Y7702550D01*
X6124447Y7707629D01*
X6119368Y7712710D01*
X6114034Y7723123D01*
X7289800Y7811515D02*
G01*
X7289800Y7702550D01*
X7289800Y7811515D02*
G01*
X7336536Y7811515D01*
X7352029Y7806436D01*
X7357363Y7801102D01*
X7362443Y7790687D01*
X7362443Y7780273D01*
X7357363Y7769860D01*
X7352029Y7764779D01*
X7336536Y7759700D01*
X7289800Y7759700D01*
X7326122Y7759700D02*
G01*
X7362443Y7702550D01*
X7448804Y7811515D02*
G01*
X7396734Y7738871D01*
X7474711Y7738871D01*
X7448804Y7811515D02*
G01*
X7448804Y7702550D01*
X8559800Y7811515D02*
G01*
X8559800Y7702550D01*
X8559800Y7811515D02*
G01*
X8606536Y7811515D01*
X8622029Y7806436D01*
X8627363Y7801102D01*
X8632443Y7790687D01*
X8632443Y7780273D01*
X8627363Y7769860D01*
X8622029Y7764779D01*
X8606536Y7759700D01*
X8559800Y7759700D01*
X8596122Y7759700D02*
G01*
X8632443Y7702550D01*
X8729218Y7811515D02*
G01*
X8677147Y7811515D01*
X8672068Y7764779D01*
X8677147Y7769860D01*
X8692895Y7775194D01*
X8708390Y7775194D01*
X8723884Y7769860D01*
X8734297Y7759700D01*
X8739631Y7743952D01*
X8739631Y7733537D01*
X8734297Y7718044D01*
X8723884Y7707629D01*
X8708390Y7702550D01*
X8692895Y7702550D01*
X8677147Y7707629D01*
X8672068Y7712710D01*
X8666734Y7723123D01*
X9829800Y7811515D02*
G01*
X9829800Y7702550D01*
X9829800Y7811515D02*
G01*
X9876536Y7811515D01*
X9892029Y7806436D01*
X9897363Y7801102D01*
X9902443Y7790687D01*
X9902443Y7780273D01*
X9897363Y7769860D01*
X9892029Y7764779D01*
X9876536Y7759700D01*
X9829800Y7759700D01*
X9866122Y7759700D02*
G01*
X9902443Y7702550D01*
X9999218Y7796021D02*
G01*
X9993884Y7806436D01*
X9978390Y7811515D01*
X9967975Y7811515D01*
X9952481Y7806436D01*
X9942068Y7790687D01*
X9936734Y7764779D01*
X9936734Y7738871D01*
X9942068Y7718044D01*
X9952481Y7707629D01*
X9967975Y7702550D01*
X9973309Y7702550D01*
X9988804Y7707629D01*
X9999218Y7718044D01*
X10004297Y7733537D01*
X10004297Y7738871D01*
X9999218Y7754365D01*
X9988804Y7764779D01*
X9973309Y7769860D01*
X9967975Y7769860D01*
X9952481Y7764779D01*
X9942068Y7754365D01*
X9936734Y7738871D01*
X11099800Y7811515D02*
G01*
X11099800Y7702550D01*
X11099800Y7811515D02*
G01*
X11146536Y7811515D01*
X11162029Y7806436D01*
X11167363Y7801102D01*
X11172443Y7790687D01*
X11172443Y7780273D01*
X11167363Y7769860D01*
X11162029Y7764779D01*
X11146536Y7759700D01*
X11099800Y7759700D01*
X11136122Y7759700D02*
G01*
X11172443Y7702550D01*
X11279631Y7811515D02*
G01*
X11227561Y7702550D01*
X11206734Y7811515D02*
G01*
X11279631Y7811515D01*
X12369800Y7811515D02*
G01*
X12369800Y7702550D01*
X12369800Y7811515D02*
G01*
X12416536Y7811515D01*
X12432029Y7806436D01*
X12437363Y7801102D01*
X12442443Y7790687D01*
X12442443Y7780273D01*
X12437363Y7769860D01*
X12432029Y7764779D01*
X12416536Y7759700D01*
X12369800Y7759700D01*
X12406122Y7759700D02*
G01*
X12442443Y7702550D01*
X12502895Y7811515D02*
G01*
X12487147Y7806436D01*
X12482068Y7796021D01*
X12482068Y7785608D01*
X12487147Y7775194D01*
X12497561Y7769860D01*
X12518390Y7764779D01*
X12533884Y7759700D01*
X12544297Y7749286D01*
X12549631Y7738871D01*
X12549631Y7723123D01*
X12544297Y7712710D01*
X12539218Y7707629D01*
X12523470Y7702550D01*
X12502895Y7702550D01*
X12487147Y7707629D01*
X12482068Y7712710D01*
X12476734Y7723123D01*
X12476734Y7738871D01*
X12482068Y7749286D01*
X12492481Y7759700D01*
X12507975Y7764779D01*
X12528804Y7769860D01*
X12539218Y7775194D01*
X12544297Y7785608D01*
X12544297Y7796021D01*
X12539218Y7806436D01*
X12523470Y7811515D01*
X12502895Y7811515D01*
X3479800Y7430515D02*
G01*
X3479800Y7321550D01*
X3479800Y7430515D02*
G01*
X3526536Y7430515D01*
X3542029Y7425436D01*
X3547363Y7420102D01*
X3552443Y7409687D01*
X3552443Y7399273D01*
X3547363Y7388860D01*
X3542029Y7383779D01*
X3526536Y7378700D01*
X3479800Y7378700D01*
X3516122Y7378700D02*
G01*
X3552443Y7321550D01*
X3654297Y7394194D02*
G01*
X3649218Y7378700D01*
X3638804Y7368286D01*
X3623309Y7362952D01*
X3617975Y7362952D01*
X3602481Y7368286D01*
X3592068Y7378700D01*
X3586734Y7394194D01*
X3586734Y7399273D01*
X3592068Y7415021D01*
X3602481Y7425436D01*
X3617975Y7430515D01*
X3623309Y7430515D01*
X3638804Y7425436D01*
X3649218Y7415021D01*
X3654297Y7394194D01*
X3654297Y7368286D01*
X3649218Y7342123D01*
X3638804Y7326629D01*
X3623309Y7321550D01*
X3612895Y7321550D01*
X3597147Y7326629D01*
X3592068Y7337044D01*
X4724400Y7417815D02*
G01*
X4724400Y7308850D01*
X4724400Y7417815D02*
G01*
X4771136Y7417815D01*
X4786629Y7412736D01*
X4791963Y7407402D01*
X4797043Y7396987D01*
X4797043Y7386573D01*
X4791963Y7376160D01*
X4786629Y7371079D01*
X4771136Y7366000D01*
X4724400Y7366000D01*
X4760722Y7366000D02*
G01*
X4797043Y7308850D01*
X4831334Y7396987D02*
G01*
X4841747Y7402321D01*
X4857495Y7417815D01*
X4857495Y7308850D01*
X4922774Y7417815D02*
G01*
X4907279Y7412736D01*
X4896865Y7396987D01*
X4891786Y7371079D01*
X4891786Y7355586D01*
X4896865Y7329423D01*
X4907279Y7313929D01*
X4922774Y7308850D01*
X4933188Y7308850D01*
X4948936Y7313929D01*
X4959350Y7329423D01*
X4964429Y7355586D01*
X4964429Y7371079D01*
X4959350Y7396987D01*
X4948936Y7412736D01*
X4933188Y7417815D01*
X4922774Y7417815D01*
X6007100Y7417815D02*
G01*
X6007100Y7308850D01*
X6007100Y7417815D02*
G01*
X6053836Y7417815D01*
X6069329Y7412736D01*
X6074663Y7407402D01*
X6079743Y7396987D01*
X6079743Y7386573D01*
X6074663Y7376160D01*
X6069329Y7371079D01*
X6053836Y7366000D01*
X6007100Y7366000D01*
X6043422Y7366000D02*
G01*
X6079743Y7308850D01*
X6114034Y7396987D02*
G01*
X6124447Y7402321D01*
X6140195Y7417815D01*
X6140195Y7308850D01*
X6174486Y7396987D02*
G01*
X6184900Y7402321D01*
X6200393Y7417815D01*
X6200393Y7308850D01*
X7264400Y7417815D02*
G01*
X7264400Y7308850D01*
X7264400Y7417815D02*
G01*
X7311136Y7417815D01*
X7326629Y7412736D01*
X7331963Y7407402D01*
X7337043Y7396987D01*
X7337043Y7386573D01*
X7331963Y7376160D01*
X7326629Y7371079D01*
X7311136Y7366000D01*
X7264400Y7366000D01*
X7300722Y7366000D02*
G01*
X7337043Y7308850D01*
X7371334Y7396987D02*
G01*
X7381747Y7402321D01*
X7397495Y7417815D01*
X7397495Y7308850D01*
X7436865Y7391908D02*
G01*
X7436865Y7396987D01*
X7442200Y7407402D01*
X7447279Y7412736D01*
X7457693Y7417815D01*
X7478522Y7417815D01*
X7488936Y7412736D01*
X7494015Y7407402D01*
X7499350Y7396987D01*
X7499350Y7386573D01*
X7494015Y7376160D01*
X7483602Y7360665D01*
X7431786Y7308850D01*
X7504429Y7308850D01*
X8534400Y7417815D02*
G01*
X8534400Y7308850D01*
X8534400Y7417815D02*
G01*
X8581136Y7417815D01*
X8596629Y7412736D01*
X8601963Y7407402D01*
X8607043Y7396987D01*
X8607043Y7386573D01*
X8601963Y7376160D01*
X8596629Y7371079D01*
X8581136Y7366000D01*
X8534400Y7366000D01*
X8570722Y7366000D02*
G01*
X8607043Y7308850D01*
X8641334Y7396987D02*
G01*
X8651747Y7402321D01*
X8667495Y7417815D01*
X8667495Y7308850D01*
X8712200Y7417815D02*
G01*
X8769350Y7417815D01*
X8738108Y7376160D01*
X8753602Y7376160D01*
X8764015Y7371079D01*
X8769350Y7366000D01*
X8774429Y7350252D01*
X8774429Y7339837D01*
X8769350Y7324344D01*
X8758936Y7313929D01*
X8743188Y7308850D01*
X8727693Y7308850D01*
X8712200Y7313929D01*
X8706865Y7319010D01*
X8701786Y7329423D01*
X9791700Y7417815D02*
G01*
X9791700Y7308850D01*
X9791700Y7417815D02*
G01*
X9838436Y7417815D01*
X9853929Y7412736D01*
X9859263Y7407402D01*
X9864343Y7396987D01*
X9864343Y7386573D01*
X9859263Y7376160D01*
X9853929Y7371079D01*
X9838436Y7366000D01*
X9791700Y7366000D01*
X9828022Y7366000D02*
G01*
X9864343Y7308850D01*
X9898634Y7396987D02*
G01*
X9909047Y7402321D01*
X9924795Y7417815D01*
X9924795Y7308850D01*
X10010902Y7417815D02*
G01*
X9959086Y7345171D01*
X10036809Y7345171D01*
X10010902Y7417815D02*
G01*
X10010902Y7308850D01*
X11061700Y7417815D02*
G01*
X11061700Y7308850D01*
X11061700Y7417815D02*
G01*
X11108436Y7417815D01*
X11123929Y7412736D01*
X11129263Y7407402D01*
X11134343Y7396987D01*
X11134343Y7386573D01*
X11129263Y7376160D01*
X11123929Y7371079D01*
X11108436Y7366000D01*
X11061700Y7366000D01*
X11098022Y7366000D02*
G01*
X11134343Y7308850D01*
X11168634Y7396987D02*
G01*
X11179047Y7402321D01*
X11194795Y7417815D01*
X11194795Y7308850D01*
X11291315Y7417815D02*
G01*
X11239500Y7417815D01*
X11234165Y7371079D01*
X11239500Y7376160D01*
X11254993Y7381494D01*
X11270488Y7381494D01*
X11286236Y7376160D01*
X11296650Y7366000D01*
X11301729Y7350252D01*
X11301729Y7339837D01*
X11296650Y7324344D01*
X11286236Y7313929D01*
X11270488Y7308850D01*
X11254993Y7308850D01*
X11239500Y7313929D01*
X11234165Y7319010D01*
X11229086Y7329423D01*
X12344400Y7417815D02*
G01*
X12344400Y7308850D01*
X12344400Y7417815D02*
G01*
X12391136Y7417815D01*
X12406629Y7412736D01*
X12411963Y7407402D01*
X12417043Y7396987D01*
X12417043Y7386573D01*
X12411963Y7376160D01*
X12406629Y7371079D01*
X12391136Y7366000D01*
X12344400Y7366000D01*
X12380722Y7366000D02*
G01*
X12417043Y7308850D01*
X12451334Y7396987D02*
G01*
X12461747Y7402321D01*
X12477495Y7417815D01*
X12477495Y7308850D01*
X12574015Y7402321D02*
G01*
X12568936Y7412736D01*
X12553188Y7417815D01*
X12542774Y7417815D01*
X12527279Y7412736D01*
X12516865Y7396987D01*
X12511786Y7371079D01*
X12511786Y7345171D01*
X12516865Y7324344D01*
X12527279Y7313929D01*
X12542774Y7308850D01*
X12548108Y7308850D01*
X12563602Y7313929D01*
X12574015Y7324344D01*
X12579350Y7339837D01*
X12579350Y7345171D01*
X12574015Y7360665D01*
X12563602Y7371079D01*
X12548108Y7376160D01*
X12542774Y7376160D01*
X12527279Y7371079D01*
X12516865Y7360665D01*
X12511786Y7345171D01*
X2133600Y7430515D02*
G01*
X2133600Y7321550D01*
X2133600Y7430515D02*
G01*
X2180336Y7430515D01*
X2195829Y7425436D01*
X2201163Y7420102D01*
X2206243Y7409687D01*
X2206243Y7399273D01*
X2201163Y7388860D01*
X2195829Y7383779D01*
X2180336Y7378700D01*
X2133600Y7378700D01*
X2169922Y7378700D02*
G01*
X2206243Y7321550D01*
X2240534Y7409687D02*
G01*
X2250947Y7415021D01*
X2266695Y7430515D01*
X2266695Y7321550D01*
X2373629Y7430515D02*
G01*
X2321559Y7321550D01*
X2300986Y7430515D02*
G01*
X2373629Y7430515D01*
X2120900Y7811515D02*
G01*
X2120900Y7702550D01*
X2120900Y7811515D02*
G01*
X2167636Y7811515D01*
X2183129Y7806436D01*
X2188463Y7801102D01*
X2193543Y7790687D01*
X2193543Y7780273D01*
X2188463Y7769860D01*
X2183129Y7764779D01*
X2167636Y7759700D01*
X2120900Y7759700D01*
X2157222Y7759700D02*
G01*
X2193543Y7702550D01*
X2227834Y7790687D02*
G01*
X2238247Y7796021D01*
X2253995Y7811515D01*
X2253995Y7702550D01*
X2314193Y7811515D02*
G01*
X2298700Y7806436D01*
X2293365Y7796021D01*
X2293365Y7785608D01*
X2298700Y7775194D01*
X2308859Y7769860D01*
X2329688Y7764779D01*
X2345436Y7759700D01*
X2355850Y7749286D01*
X2360929Y7738871D01*
X2360929Y7723123D01*
X2355850Y7712710D01*
X2350515Y7707629D01*
X2335022Y7702550D01*
X2314193Y7702550D01*
X2298700Y7707629D01*
X2293365Y7712710D01*
X2288286Y7723123D01*
X2288286Y7738871D01*
X2293365Y7749286D01*
X2303779Y7759700D01*
X2319274Y7764779D01*
X2340102Y7769860D01*
X2350515Y7775194D01*
X2355850Y7785608D01*
X2355850Y7796021D01*
X2350515Y7806436D01*
X2335022Y7811515D01*
X2314193Y7811515D01*
X11634215Y4978400D02*
G01*
X11525250Y4978400D01*
X11634215Y4978400D02*
G01*
X11634215Y4931663D01*
X11629136Y4916170D01*
X11623802Y4910836D01*
X11613388Y4905755D01*
X11602974Y4905755D01*
X11592559Y4910836D01*
X11587479Y4916170D01*
X11582400Y4931663D01*
X11582400Y4978400D01*
X11582400Y4942078D02*
G01*
X11525250Y4905755D01*
X11613388Y4871465D02*
G01*
X11618722Y4861052D01*
X11634215Y4845304D01*
X11525250Y4845304D01*
X11597893Y4743450D02*
G01*
X11582400Y4748784D01*
X11571986Y4759197D01*
X11566652Y4774692D01*
X11566652Y4780026D01*
X11571986Y4795520D01*
X11582400Y4805934D01*
X11597893Y4811013D01*
X11602974Y4811013D01*
X11618722Y4805934D01*
X11629136Y4795520D01*
X11634215Y4780026D01*
X11634215Y4774692D01*
X11629136Y4759197D01*
X11618722Y4748784D01*
X11597893Y4743450D01*
X11571986Y4743450D01*
X11545824Y4748784D01*
X11530329Y4759197D01*
X11525250Y4774692D01*
X11525250Y4785105D01*
X11530329Y4800600D01*
X11540743Y4805934D01*
X10135615Y6248400D02*
G01*
X10026650Y6248400D01*
X10135615Y6248400D02*
G01*
X10135615Y6201663D01*
X10130536Y6186170D01*
X10125202Y6180836D01*
X10114788Y6175755D01*
X10104374Y6175755D01*
X10093959Y6180836D01*
X10088879Y6186170D01*
X10083800Y6201663D01*
X10083800Y6248400D01*
X10083800Y6212078D02*
G01*
X10026650Y6175755D01*
X10109708Y6136131D02*
G01*
X10114788Y6136131D01*
X10125202Y6131052D01*
X10130536Y6125718D01*
X10135615Y6115304D01*
X10135615Y6094729D01*
X10130536Y6084315D01*
X10125202Y6078981D01*
X10114788Y6073902D01*
X10104374Y6073902D01*
X10093959Y6078981D01*
X10078465Y6089395D01*
X10026650Y6141465D01*
X10026650Y6068568D01*
X10135615Y6003289D02*
G01*
X10130536Y6018784D01*
X10114788Y6029197D01*
X10088879Y6034278D01*
X10073386Y6034278D01*
X10047224Y6029197D01*
X10031729Y6018784D01*
X10026650Y6003289D01*
X10026650Y5992876D01*
X10031729Y5977128D01*
X10047224Y5966713D01*
X10073386Y5961634D01*
X10088879Y5961634D01*
X10114788Y5966713D01*
X10130536Y5977128D01*
X10135615Y5992876D01*
X10135615Y6003289D01*
X10122915Y4965700D02*
G01*
X10013950Y4965700D01*
X10122915Y4965700D02*
G01*
X10122915Y4918963D01*
X10117836Y4903470D01*
X10112502Y4898136D01*
X10102088Y4893055D01*
X10091674Y4893055D01*
X10081259Y4898136D01*
X10076179Y4903470D01*
X10071100Y4918963D01*
X10071100Y4965700D01*
X10071100Y4929378D02*
G01*
X10013950Y4893055D01*
X10097008Y4853431D02*
G01*
X10102088Y4853431D01*
X10112502Y4848352D01*
X10117836Y4843018D01*
X10122915Y4832604D01*
X10122915Y4812029D01*
X10117836Y4801615D01*
X10112502Y4796281D01*
X10102088Y4791202D01*
X10091674Y4791202D01*
X10081259Y4796281D01*
X10065765Y4806695D01*
X10013950Y4858765D01*
X10013950Y4785868D01*
X10102088Y4751578D02*
G01*
X10107422Y4741163D01*
X10122915Y4725670D01*
X10013950Y4725670D01*
X10618215Y5003800D02*
G01*
X10509250Y5003800D01*
X10618215Y5003800D02*
G01*
X10618215Y4957063D01*
X10613136Y4941570D01*
X10607802Y4936236D01*
X10597388Y4931155D01*
X10586974Y4931155D01*
X10576559Y4936236D01*
X10571479Y4941570D01*
X10566400Y4957063D01*
X10566400Y5003800D01*
X10566400Y4967478D02*
G01*
X10509250Y4931155D01*
X10592308Y4891531D02*
G01*
X10597388Y4891531D01*
X10607802Y4886452D01*
X10613136Y4881118D01*
X10618215Y4870704D01*
X10618215Y4850129D01*
X10613136Y4839715D01*
X10607802Y4834381D01*
X10597388Y4829302D01*
X10586974Y4829302D01*
X10576559Y4834381D01*
X10561065Y4844795D01*
X10509250Y4896865D01*
X10509250Y4823968D01*
X10592308Y4784597D02*
G01*
X10597388Y4784597D01*
X10607802Y4779263D01*
X10613136Y4774184D01*
X10618215Y4763770D01*
X10618215Y4742942D01*
X10613136Y4732528D01*
X10607802Y4727447D01*
X10597388Y4722113D01*
X10586974Y4722113D01*
X10576559Y4727447D01*
X10561065Y4737862D01*
X10509250Y4789678D01*
X10509250Y4717034D01*
X11151615Y6248400D02*
G01*
X11042650Y6248400D01*
X11151615Y6248400D02*
G01*
X11151615Y6201663D01*
X11146536Y6186170D01*
X11141202Y6180836D01*
X11130788Y6175755D01*
X11120374Y6175755D01*
X11109959Y6180836D01*
X11104879Y6186170D01*
X11099800Y6201663D01*
X11099800Y6248400D01*
X11099800Y6212078D02*
G01*
X11042650Y6175755D01*
X11125708Y6136131D02*
G01*
X11130788Y6136131D01*
X11141202Y6131052D01*
X11146536Y6125718D01*
X11151615Y6115304D01*
X11151615Y6094729D01*
X11146536Y6084315D01*
X11141202Y6078981D01*
X11130788Y6073902D01*
X11120374Y6073902D01*
X11109959Y6078981D01*
X11094465Y6089395D01*
X11042650Y6141465D01*
X11042650Y6068568D01*
X11151615Y6023863D02*
G01*
X11151615Y5966713D01*
X11109959Y5997955D01*
X11109959Y5982462D01*
X11104879Y5972047D01*
X11099800Y5966713D01*
X11084052Y5961634D01*
X11073638Y5961634D01*
X11058143Y5966713D01*
X11047729Y5977128D01*
X11042650Y5992876D01*
X11042650Y6008370D01*
X11047729Y6023863D01*
X11052809Y6029197D01*
X11063224Y6034278D01*
X9511284Y5956300D02*
G01*
X9620250Y5956300D01*
X9511284Y5956300D02*
G01*
X9511284Y6003036D01*
X9516363Y6018529D01*
X9521697Y6023863D01*
X9532111Y6028944D01*
X9542525Y6028944D01*
X9552940Y6023863D01*
X9558020Y6018529D01*
X9563100Y6003036D01*
X9563100Y5956300D01*
X9563100Y5992621D02*
G01*
X9620250Y6028944D01*
X9537191Y6068568D02*
G01*
X9532111Y6068568D01*
X9521697Y6073647D01*
X9516363Y6078981D01*
X9511284Y6089395D01*
X9511284Y6109970D01*
X9516363Y6120384D01*
X9521697Y6125718D01*
X9532111Y6130797D01*
X9542525Y6130797D01*
X9552940Y6125718D01*
X9568434Y6115304D01*
X9620250Y6063234D01*
X9620250Y6136131D01*
X9511284Y6222237D02*
G01*
X9583927Y6170421D01*
X9583927Y6248400D01*
X9511284Y6222237D02*
G01*
X9620250Y6222237D01*
X10539984Y5969000D02*
G01*
X10648950Y5969000D01*
X10539984Y5969000D02*
G01*
X10539984Y6015736D01*
X10545063Y6031229D01*
X10550397Y6036563D01*
X10560811Y6041644D01*
X10571225Y6041644D01*
X10581640Y6036563D01*
X10586720Y6031229D01*
X10591800Y6015736D01*
X10591800Y5969000D01*
X10591800Y6005321D02*
G01*
X10648950Y6041644D01*
X10565891Y6081268D02*
G01*
X10560811Y6081268D01*
X10550397Y6086347D01*
X10545063Y6091681D01*
X10539984Y6102095D01*
X10539984Y6122670D01*
X10545063Y6133084D01*
X10550397Y6138418D01*
X10560811Y6143497D01*
X10571225Y6143497D01*
X10581640Y6138418D01*
X10597134Y6128004D01*
X10648950Y6075934D01*
X10648950Y6148831D01*
X10539984Y6245352D02*
G01*
X10539984Y6193536D01*
X10586720Y6188202D01*
X10581640Y6193536D01*
X10576306Y6209029D01*
X10576306Y6224523D01*
X10581640Y6240271D01*
X10591800Y6250686D01*
X10607547Y6255765D01*
X10617961Y6255765D01*
X10633456Y6250686D01*
X10643870Y6240271D01*
X10648950Y6224523D01*
X10648950Y6209029D01*
X10643870Y6193536D01*
X10638790Y6188202D01*
X10628375Y6183121D01*
X9498584Y4724400D02*
G01*
X9607550Y4724400D01*
X9498584Y4724400D02*
G01*
X9498584Y4771136D01*
X9503663Y4786629D01*
X9508997Y4791963D01*
X9519411Y4797044D01*
X9529825Y4797044D01*
X9540240Y4791963D01*
X9545320Y4786629D01*
X9550400Y4771136D01*
X9550400Y4724400D01*
X9550400Y4760721D02*
G01*
X9607550Y4797044D01*
X9524491Y4836668D02*
G01*
X9519411Y4836668D01*
X9508997Y4841747D01*
X9503663Y4847081D01*
X9498584Y4857495D01*
X9498584Y4878070D01*
X9503663Y4888484D01*
X9508997Y4893818D01*
X9519411Y4898897D01*
X9529825Y4898897D01*
X9540240Y4893818D01*
X9555734Y4883404D01*
X9607550Y4831334D01*
X9607550Y4904231D01*
X9514077Y5000752D02*
G01*
X9503663Y4995671D01*
X9498584Y4979923D01*
X9498584Y4969510D01*
X9503663Y4954015D01*
X9519411Y4943602D01*
X9545320Y4938521D01*
X9571227Y4938521D01*
X9592056Y4943602D01*
X9602470Y4954015D01*
X9607550Y4969510D01*
X9607550Y4974844D01*
X9602470Y4990337D01*
X9592056Y5000752D01*
X9576561Y5006086D01*
X9571227Y5006086D01*
X9555734Y5000752D01*
X9545320Y4990337D01*
X9540240Y4974844D01*
X9540240Y4969510D01*
X9545320Y4954015D01*
X9555734Y4943602D01*
X9571227Y4938521D01*
X11009884Y4737100D02*
G01*
X11118850Y4737100D01*
X11009884Y4737100D02*
G01*
X11009884Y4783836D01*
X11014963Y4799329D01*
X11020297Y4804663D01*
X11030711Y4809744D01*
X11041125Y4809744D01*
X11051540Y4804663D01*
X11056620Y4799329D01*
X11061700Y4783836D01*
X11061700Y4737100D01*
X11061700Y4773421D02*
G01*
X11118850Y4809744D01*
X11035791Y4849368D02*
G01*
X11030711Y4849368D01*
X11020297Y4854447D01*
X11014963Y4859781D01*
X11009884Y4870195D01*
X11009884Y4890770D01*
X11014963Y4901184D01*
X11020297Y4906518D01*
X11030711Y4911597D01*
X11041125Y4911597D01*
X11051540Y4906518D01*
X11067034Y4896104D01*
X11118850Y4844034D01*
X11118850Y4916931D01*
X11009884Y5023865D02*
G01*
X11118850Y4972050D01*
X11009884Y4951221D02*
G01*
X11009884Y5023865D01*
X11543284Y5956300D02*
G01*
X11652250Y5956300D01*
X11543284Y5956300D02*
G01*
X11543284Y6003036D01*
X11548363Y6018529D01*
X11553697Y6023863D01*
X11564111Y6028944D01*
X11574525Y6028944D01*
X11584940Y6023863D01*
X11590020Y6018529D01*
X11595100Y6003036D01*
X11595100Y5956300D01*
X11595100Y5992621D02*
G01*
X11652250Y6028944D01*
X11569191Y6068568D02*
G01*
X11564111Y6068568D01*
X11553697Y6073647D01*
X11548363Y6078981D01*
X11543284Y6089395D01*
X11543284Y6109970D01*
X11548363Y6120384D01*
X11553697Y6125718D01*
X11564111Y6130797D01*
X11574525Y6130797D01*
X11584940Y6125718D01*
X11600434Y6115304D01*
X11652250Y6063234D01*
X11652250Y6136131D01*
X11543284Y6196329D02*
G01*
X11548363Y6180836D01*
X11558777Y6175502D01*
X11569191Y6175502D01*
X11579606Y6180836D01*
X11584940Y6191250D01*
X11590020Y6211823D01*
X11595100Y6227571D01*
X11605513Y6237986D01*
X11615927Y6243065D01*
X11631675Y6243065D01*
X11642090Y6237986D01*
X11647170Y6232652D01*
X11652250Y6217157D01*
X11652250Y6196329D01*
X11647170Y6180836D01*
X11642090Y6175502D01*
X11631675Y6170421D01*
X11615927Y6170421D01*
X11605513Y6175502D01*
X11595100Y6185915D01*
X11590020Y6201410D01*
X11584940Y6222237D01*
X11579606Y6232652D01*
X11569191Y6237986D01*
X11558777Y6237986D01*
X11548363Y6232652D01*
X11543284Y6217157D01*
X11543284Y6196329D01*
X1510284Y5740400D02*
G01*
X1588262Y5740400D01*
X1603755Y5745479D01*
X1614170Y5755894D01*
X1619250Y5771642D01*
X1619250Y5782055D01*
X1614170Y5797550D01*
X1603755Y5807963D01*
X1588262Y5813044D01*
X1510284Y5813044D01*
X1531112Y5847334D02*
G01*
X1525778Y5857747D01*
X1510284Y5873495D01*
X1619250Y5873495D01*
D11*
X2210815Y4948499D02*
G01*
X2354072Y4948499D01*
X2210815Y4993457D02*
G01*
X2354072Y4993457D01*
X2210815Y4993457D02*
G01*
X2354072Y5088961D01*
X2210815Y5088961D02*
G01*
X2354072Y5088961D01*
X2210815Y6233993D02*
G01*
X2217674Y6220277D01*
X2231390Y6206815D01*
X2244852Y6199957D01*
X2265425Y6193099D01*
X2299461Y6193099D01*
X2320036Y6199957D01*
X2333497Y6206815D01*
X2347213Y6220277D01*
X2354072Y6233993D01*
X2354072Y6261171D01*
X2347213Y6274887D01*
X2333497Y6288603D01*
X2320036Y6295461D01*
X2299461Y6302065D01*
X2265425Y6302065D01*
X2244852Y6295461D01*
X2231390Y6288603D01*
X2217674Y6274887D01*
X2210815Y6261171D01*
X2210815Y6233993D01*
X2210815Y6347277D02*
G01*
X2313177Y6347277D01*
X2333497Y6354135D01*
X2347213Y6367597D01*
X2354072Y6388171D01*
X2354072Y6401633D01*
X2347213Y6422207D01*
X2333497Y6435923D01*
X2313177Y6442527D01*
X2210815Y6442527D01*
X2210815Y6535491D02*
G01*
X2354072Y6535491D01*
X2210815Y6487739D02*
G01*
X2210815Y6582989D01*
X2663190Y5225867D02*
G01*
X2785872Y5225867D01*
X2724404Y5164399D02*
G01*
X2724404Y5287081D01*
X2650490Y6279967D02*
G01*
X2773172Y6279967D01*
X2711704Y6218499D02*
G01*
X2711704Y6341181D01*
X1886204Y5164399D02*
G01*
X1886204Y5287081D01*
X1886204Y6218499D02*
G01*
X1886204Y6341181D01*
D10*
X8621877Y5676737D02*
G01*
X8543899Y5676737D01*
X8528405Y5671657D01*
X8517991Y5661243D01*
X8512911Y5645495D01*
X8512911Y5635081D01*
X8517991Y5619587D01*
X8528405Y5609173D01*
X8543899Y5604093D01*
X8621877Y5604093D01*
X8595969Y5564469D02*
G01*
X8601049Y5564469D01*
X8611463Y5559389D01*
X8616797Y5554055D01*
X8621877Y5543641D01*
X8621877Y5523067D01*
X8616797Y5512653D01*
X8611463Y5507319D01*
X8601049Y5502239D01*
X8590635Y5502239D01*
X8580221Y5507319D01*
X8564727Y5517733D01*
X8512911Y5569803D01*
X8512911Y5496905D01*
D12*
X3923525Y6642115D02*
G01*
X3828275Y6642115D01*
X3923525Y6642115D02*
G01*
X3923525Y6582933D01*
X3878059Y6642115D02*
G01*
X3878059Y6605793D01*
X3828275Y6642115D02*
G01*
X3828275Y6582933D01*
X3891775Y6552961D02*
G01*
X3828275Y6552961D01*
X3873741Y6552961D02*
G01*
X3887203Y6539499D01*
X3891775Y6530355D01*
X3891775Y6516639D01*
X3887203Y6507495D01*
X3873741Y6502923D01*
X3828275Y6502923D01*
X3891775Y6418595D02*
G01*
X3828275Y6418595D01*
X3878059Y6418595D02*
G01*
X3887203Y6427485D01*
X3891775Y6436629D01*
X3891775Y6450345D01*
X3887203Y6459489D01*
X3878059Y6468379D01*
X3864597Y6472951D01*
X3855453Y6472951D01*
X3841737Y6468379D01*
X3832593Y6459489D01*
X3828275Y6450345D01*
X3828275Y6436629D01*
X3832593Y6427485D01*
X3841737Y6418595D01*
X3923525Y6388369D02*
G01*
X3828275Y6388369D01*
X3878059Y6388369D02*
G01*
X3887203Y6379479D01*
X3891775Y6370335D01*
X3891775Y6356619D01*
X3887203Y6347475D01*
X3878059Y6338585D01*
X3864597Y6334013D01*
X3855453Y6334013D01*
X3841737Y6338585D01*
X3832593Y6347475D01*
X3828275Y6356619D01*
X3828275Y6370335D01*
X3832593Y6379479D01*
X3841737Y6388369D01*
X3923525Y6304041D02*
G01*
X3828275Y6304041D01*
X3864597Y6273815D02*
G01*
X3864597Y6219459D01*
X3873741Y6219459D01*
X3882631Y6224031D01*
X3887203Y6228603D01*
X3891775Y6237493D01*
X3891775Y6251209D01*
X3887203Y6260353D01*
X3878059Y6269497D01*
X3864597Y6273815D01*
X3855453Y6273815D01*
X3841737Y6269497D01*
X3832593Y6260353D01*
X3828275Y6251209D01*
X3828275Y6237493D01*
X3832593Y6228603D01*
X3841737Y6219459D01*
X3923525Y5041915D02*
G01*
X3828275Y5041915D01*
X3923525Y5041915D02*
G01*
X3923525Y5001021D01*
X3918953Y4987305D01*
X3914635Y4982733D01*
X3905491Y4978161D01*
X3896347Y4978161D01*
X3887203Y4982733D01*
X3882631Y4987305D01*
X3878059Y5001021D01*
X3878059Y5041915D02*
G01*
X3878059Y5001021D01*
X3873741Y4987305D01*
X3869169Y4982733D01*
X3860025Y4978161D01*
X3846309Y4978161D01*
X3837165Y4982733D01*
X3832593Y4987305D01*
X3828275Y5001021D01*
X3828275Y5041915D01*
X3891775Y4925583D02*
G01*
X3887203Y4934727D01*
X3878059Y4943617D01*
X3864597Y4948189D01*
X3855453Y4948189D01*
X3841737Y4943617D01*
X3832593Y4934727D01*
X3828275Y4925583D01*
X3828275Y4911867D01*
X3832593Y4902723D01*
X3841737Y4893833D01*
X3855453Y4889261D01*
X3864597Y4889261D01*
X3878059Y4893833D01*
X3887203Y4902723D01*
X3891775Y4911867D01*
X3891775Y4925583D01*
X3891775Y4836429D02*
G01*
X3887203Y4845573D01*
X3878059Y4854717D01*
X3864597Y4859289D01*
X3855453Y4859289D01*
X3841737Y4854717D01*
X3832593Y4845573D01*
X3828275Y4836429D01*
X3828275Y4822713D01*
X3832593Y4813823D01*
X3841737Y4804679D01*
X3855453Y4800107D01*
X3864597Y4800107D01*
X3878059Y4804679D01*
X3887203Y4813823D01*
X3891775Y4822713D01*
X3891775Y4836429D01*
X3923525Y4756419D02*
G01*
X3846309Y4756419D01*
X3832593Y4751847D01*
X3828275Y4742703D01*
X3828275Y4733813D01*
X3891775Y4770135D02*
G01*
X3891775Y4738385D01*
X3613137Y5771377D02*
G01*
X3545065Y5771377D01*
X3531349Y5767059D01*
X3522205Y5757915D01*
X3517887Y5744199D01*
X3517887Y5735055D01*
X3522205Y5721593D01*
X3531349Y5712449D01*
X3545065Y5707877D01*
X3613137Y5707877D01*
X3599675Y5614151D02*
G01*
X3608565Y5623295D01*
X3613137Y5637011D01*
X3613137Y5655045D01*
X3608565Y5668761D01*
X3599675Y5677905D01*
X3590531Y5677905D01*
X3581387Y5673333D01*
X3576815Y5668761D01*
X3572243Y5659617D01*
X3563353Y5632439D01*
X3558781Y5623295D01*
X3554209Y5618723D01*
X3545065Y5614151D01*
X3531349Y5614151D01*
X3522205Y5623295D01*
X3517887Y5637011D01*
X3517887Y5655045D01*
X3522205Y5668761D01*
X3531349Y5677905D01*
X3613137Y5584179D02*
G01*
X3517887Y5584179D01*
X3613137Y5584179D02*
G01*
X3613137Y5543285D01*
X3608565Y5529569D01*
X3604247Y5525251D01*
X3595103Y5520679D01*
X3585959Y5520679D01*
X3576815Y5525251D01*
X3572243Y5529569D01*
X3567671Y5543285D01*
X3567671Y5584179D02*
G01*
X3567671Y5543285D01*
X3563353Y5529569D01*
X3558781Y5525251D01*
X3549637Y5520679D01*
X3535921Y5520679D01*
X3526777Y5525251D01*
X3522205Y5529569D01*
X3517887Y5543285D01*
X3517887Y5584179D01*
D11*
X7896263Y6794604D02*
G01*
X7800759Y6794604D01*
X7896263Y6794604D02*
G01*
X7896263Y6735422D01*
X7850797Y6794604D02*
G01*
X7850797Y6758028D01*
X7800759Y6794604D02*
G01*
X7800759Y6735422D01*
X7896263Y6705450D02*
G01*
X7800759Y6705450D01*
X7896263Y6705450D02*
G01*
X7800759Y6641696D01*
X7896263Y6641696D02*
G01*
X7800759Y6641696D01*
X7642199Y6794591D02*
G01*
X7546695Y6758015D01*
X7642199Y6721693D02*
G01*
X7546695Y6758015D01*
X7642199Y6691721D02*
G01*
X7546695Y6691721D01*
X7642199Y6691721D02*
G01*
X7642199Y6650827D01*
X7637627Y6637111D01*
X7633055Y6632793D01*
X7623911Y6628221D01*
X7610449Y6628221D01*
X7601305Y6632793D01*
X7596733Y6637111D01*
X7592161Y6650827D01*
X7592161Y6691721D01*
X7660487Y6446357D02*
G01*
X7514945Y6528145D01*
X7642199Y6309959D02*
G01*
X7546695Y6346281D01*
X7642199Y6309959D02*
G01*
X7546695Y6273637D01*
X7578445Y6332565D02*
G01*
X7578445Y6287099D01*
X7642199Y6198199D02*
G01*
X7578445Y6243665D01*
X7578445Y6175339D01*
X7642199Y6198199D02*
G01*
X7546695Y6198199D01*
X7587589Y6145367D02*
G01*
X7587589Y6063579D01*
X7642199Y6024463D02*
G01*
X7642199Y5974425D01*
X7605877Y6001857D01*
X7605877Y5988141D01*
X7601305Y5978997D01*
X7596733Y5974425D01*
X7583017Y5969853D01*
X7574127Y5969853D01*
X7560411Y5974425D01*
X7551267Y5983569D01*
X7546695Y5997285D01*
X7546695Y6010747D01*
X7551267Y6024463D01*
X7555839Y6029035D01*
X7564983Y6033607D01*
X7628483Y5885525D02*
G01*
X7637627Y5889843D01*
X7642199Y5903559D01*
X7642199Y5912703D01*
X7637627Y5926419D01*
X7623911Y5935309D01*
X7601305Y5939881D01*
X7578445Y5939881D01*
X7560411Y5935309D01*
X7551267Y5926419D01*
X7546695Y5912703D01*
X7546695Y5908131D01*
X7551267Y5894415D01*
X7560411Y5885525D01*
X7574127Y5880953D01*
X7578445Y5880953D01*
X7592161Y5885525D01*
X7601305Y5894415D01*
X7605877Y5908131D01*
X7605877Y5912703D01*
X7601305Y5926419D01*
X7592161Y5935309D01*
X7578445Y5939881D01*
X7388199Y6794591D02*
G01*
X7292695Y6758015D01*
X7388199Y6721693D02*
G01*
X7292695Y6758015D01*
X7388199Y6691721D02*
G01*
X7292695Y6691721D01*
X7388199Y6691721D02*
G01*
X7292695Y6628221D01*
X7388199Y6628221D02*
G01*
X7292695Y6628221D01*
X7406487Y6446357D02*
G01*
X7260945Y6528145D01*
X7388199Y6309959D02*
G01*
X7292695Y6346281D01*
X7388199Y6309959D02*
G01*
X7292695Y6273637D01*
X7324445Y6332565D02*
G01*
X7324445Y6287099D01*
X7388199Y6179911D02*
G01*
X7292695Y6225377D01*
X7388199Y6243665D02*
G01*
X7388199Y6179911D01*
X7134199Y6794591D02*
G01*
X7038695Y6794591D01*
X7134199Y6794591D02*
G01*
X7134199Y6762587D01*
X7129627Y6749125D01*
X7120483Y6739981D01*
X7111593Y6735409D01*
X7097877Y6730837D01*
X7075017Y6730837D01*
X7061555Y6735409D01*
X7052411Y6739981D01*
X7043267Y6749125D01*
X7038695Y6762587D01*
X7038695Y6794591D01*
X7134199Y6691721D02*
G01*
X7134199Y6641683D01*
X7097877Y6669115D01*
X7097877Y6655399D01*
X7093305Y6646255D01*
X7088733Y6641683D01*
X7075017Y6637111D01*
X7066127Y6637111D01*
X7052411Y6641683D01*
X7043267Y6650827D01*
X7038695Y6664543D01*
X7038695Y6678005D01*
X7043267Y6691721D01*
X7047839Y6696293D01*
X7056983Y6700865D01*
X7134199Y6561673D02*
G01*
X7070445Y6607139D01*
X7070445Y6539067D01*
X7134199Y6561673D02*
G01*
X7038695Y6561673D01*
X7152487Y6357203D02*
G01*
X7006945Y6438991D01*
X7134199Y6220805D02*
G01*
X7038695Y6257127D01*
X7134199Y6220805D02*
G01*
X7038695Y6184483D01*
X7070445Y6243665D02*
G01*
X7070445Y6198199D01*
X7111593Y6149939D02*
G01*
X7115911Y6149939D01*
X7125055Y6145367D01*
X7129627Y6140795D01*
X7134199Y6131651D01*
X7134199Y6113617D01*
X7129627Y6104473D01*
X7125055Y6099901D01*
X7115911Y6095329D01*
X7107021Y6095329D01*
X7097877Y6099901D01*
X7084161Y6109045D01*
X7038695Y6154511D01*
X7038695Y6090757D01*
X6880199Y6794591D02*
G01*
X6784695Y6794591D01*
X6880199Y6794591D02*
G01*
X6880199Y6762587D01*
X6875627Y6749125D01*
X6866483Y6739981D01*
X6857593Y6735409D01*
X6843877Y6730837D01*
X6821017Y6730837D01*
X6807555Y6735409D01*
X6798411Y6739981D01*
X6789267Y6749125D01*
X6784695Y6762587D01*
X6784695Y6794591D01*
X6880199Y6691721D02*
G01*
X6880199Y6641683D01*
X6843877Y6669115D01*
X6843877Y6655399D01*
X6839305Y6646255D01*
X6834733Y6641683D01*
X6821017Y6637111D01*
X6812127Y6637111D01*
X6798411Y6641683D01*
X6789267Y6650827D01*
X6784695Y6664543D01*
X6784695Y6678005D01*
X6789267Y6691721D01*
X6793839Y6696293D01*
X6802983Y6700865D01*
X6880199Y6552783D02*
G01*
X6880199Y6598249D01*
X6839305Y6602567D01*
X6843877Y6598249D01*
X6848449Y6584533D01*
X6848449Y6570817D01*
X6843877Y6557101D01*
X6834733Y6548211D01*
X6821017Y6543639D01*
X6812127Y6543639D01*
X6798411Y6548211D01*
X6789267Y6557101D01*
X6784695Y6570817D01*
X6784695Y6584533D01*
X6789267Y6598249D01*
X6793839Y6602567D01*
X6802983Y6607139D01*
X6898487Y6361775D02*
G01*
X6752945Y6443563D01*
X6880199Y6225377D02*
G01*
X6784695Y6261699D01*
X6880199Y6225377D02*
G01*
X6784695Y6189055D01*
X6816445Y6248237D02*
G01*
X6816445Y6202771D01*
X6880199Y6149939D02*
G01*
X6880199Y6099901D01*
X6843877Y6127333D01*
X6843877Y6113617D01*
X6839305Y6104473D01*
X6834733Y6099901D01*
X6821017Y6095329D01*
X6812127Y6095329D01*
X6798411Y6099901D01*
X6789267Y6109045D01*
X6784695Y6122761D01*
X6784695Y6136223D01*
X6789267Y6149939D01*
X6793839Y6154511D01*
X6802983Y6159083D01*
X6626199Y6794591D02*
G01*
X6530695Y6794591D01*
X6626199Y6794591D02*
G01*
X6626199Y6762587D01*
X6621627Y6749125D01*
X6612483Y6739981D01*
X6603593Y6735409D01*
X6589877Y6730837D01*
X6567017Y6730837D01*
X6553555Y6735409D01*
X6544411Y6739981D01*
X6535267Y6749125D01*
X6530695Y6762587D01*
X6530695Y6794591D01*
X6626199Y6691721D02*
G01*
X6626199Y6641683D01*
X6589877Y6669115D01*
X6589877Y6655399D01*
X6585305Y6646255D01*
X6580733Y6641683D01*
X6567017Y6637111D01*
X6558127Y6637111D01*
X6544411Y6641683D01*
X6535267Y6650827D01*
X6530695Y6664543D01*
X6530695Y6678005D01*
X6535267Y6691721D01*
X6539839Y6696293D01*
X6548983Y6700865D01*
X6603593Y6602567D02*
G01*
X6607911Y6602567D01*
X6617055Y6598249D01*
X6621627Y6593677D01*
X6626199Y6584533D01*
X6626199Y6566245D01*
X6621627Y6557101D01*
X6617055Y6552783D01*
X6607911Y6548211D01*
X6599021Y6548211D01*
X6589877Y6552783D01*
X6576161Y6561673D01*
X6530695Y6607139D01*
X6530695Y6543639D01*
X6644487Y6361775D02*
G01*
X6498945Y6443563D01*
X6626199Y6225377D02*
G01*
X6530695Y6261699D01*
X6626199Y6225377D02*
G01*
X6530695Y6189055D01*
X6562445Y6248237D02*
G01*
X6562445Y6202771D01*
X6626199Y6131651D02*
G01*
X6621627Y6145367D01*
X6607911Y6154511D01*
X6585305Y6159083D01*
X6571589Y6159083D01*
X6548983Y6154511D01*
X6535267Y6145367D01*
X6530695Y6131651D01*
X6530695Y6122761D01*
X6535267Y6109045D01*
X6548983Y6099901D01*
X6571589Y6095329D01*
X6585305Y6095329D01*
X6607911Y6099901D01*
X6621627Y6109045D01*
X6626199Y6122761D01*
X6626199Y6131651D01*
X6372199Y6794591D02*
G01*
X6276695Y6794591D01*
X6372199Y6794591D02*
G01*
X6372199Y6762587D01*
X6367627Y6749125D01*
X6358483Y6739981D01*
X6349593Y6735409D01*
X6335877Y6730837D01*
X6313017Y6730837D01*
X6299555Y6735409D01*
X6290411Y6739981D01*
X6281267Y6749125D01*
X6276695Y6762587D01*
X6276695Y6794591D01*
X6372199Y6691721D02*
G01*
X6372199Y6641683D01*
X6335877Y6669115D01*
X6335877Y6655399D01*
X6331305Y6646255D01*
X6326733Y6641683D01*
X6313017Y6637111D01*
X6304127Y6637111D01*
X6290411Y6641683D01*
X6281267Y6650827D01*
X6276695Y6664543D01*
X6276695Y6678005D01*
X6281267Y6691721D01*
X6285839Y6696293D01*
X6294983Y6700865D01*
X6372199Y6598249D02*
G01*
X6372199Y6548211D01*
X6335877Y6575389D01*
X6335877Y6561673D01*
X6331305Y6552783D01*
X6326733Y6548211D01*
X6313017Y6543639D01*
X6304127Y6543639D01*
X6290411Y6548211D01*
X6281267Y6557101D01*
X6276695Y6570817D01*
X6276695Y6584533D01*
X6281267Y6598249D01*
X6285839Y6602567D01*
X6294983Y6607139D01*
X6390487Y6361775D02*
G01*
X6244945Y6443563D01*
X6372199Y6225377D02*
G01*
X6276695Y6261699D01*
X6372199Y6225377D02*
G01*
X6276695Y6189055D01*
X6308445Y6248237D02*
G01*
X6308445Y6202771D01*
X6353911Y6159083D02*
G01*
X6358483Y6149939D01*
X6372199Y6136223D01*
X6276695Y6136223D01*
X4873663Y6794604D02*
G01*
X4778159Y6794604D01*
X4873663Y6794604D02*
G01*
X4873663Y6762600D01*
X4869091Y6749138D01*
X4859947Y6739994D01*
X4850803Y6735422D01*
X4837341Y6730850D01*
X4814481Y6730850D01*
X4801019Y6735422D01*
X4791875Y6739994D01*
X4782731Y6749138D01*
X4778159Y6762600D01*
X4778159Y6794604D01*
X4855375Y6700878D02*
G01*
X4859947Y6691734D01*
X4873663Y6678272D01*
X4778159Y6678272D01*
X4873663Y6639156D02*
G01*
X4873663Y6589118D01*
X4837341Y6616296D01*
X4837341Y6602580D01*
X4832769Y6593690D01*
X4828197Y6589118D01*
X4814481Y6584546D01*
X4805337Y6584546D01*
X4791875Y6589118D01*
X4782731Y6598262D01*
X4778159Y6611724D01*
X4778159Y6625440D01*
X4782731Y6639156D01*
X4787303Y6643728D01*
X4796447Y6648046D01*
X5102263Y6794604D02*
G01*
X5006759Y6794604D01*
X5102263Y6794604D02*
G01*
X5102263Y6762600D01*
X5097691Y6749138D01*
X5088547Y6739994D01*
X5079403Y6735422D01*
X5065941Y6730850D01*
X5043081Y6730850D01*
X5029619Y6735422D01*
X5020475Y6739994D01*
X5011331Y6749138D01*
X5006759Y6762600D01*
X5006759Y6794604D01*
X5083975Y6700878D02*
G01*
X5088547Y6691734D01*
X5102263Y6678272D01*
X5006759Y6678272D01*
X5079403Y6643728D02*
G01*
X5083975Y6643728D01*
X5093119Y6639156D01*
X5097691Y6634584D01*
X5102263Y6625440D01*
X5102263Y6607152D01*
X5097691Y6598262D01*
X5093119Y6593690D01*
X5083975Y6589118D01*
X5074831Y6589118D01*
X5065941Y6593690D01*
X5052225Y6602580D01*
X5006759Y6648046D01*
X5006759Y6584546D01*
X5356263Y6794604D02*
G01*
X5260759Y6794604D01*
X5356263Y6794604D02*
G01*
X5356263Y6762600D01*
X5351691Y6749138D01*
X5342547Y6739994D01*
X5333403Y6735422D01*
X5319941Y6730850D01*
X5297081Y6730850D01*
X5283619Y6735422D01*
X5274475Y6739994D01*
X5265331Y6749138D01*
X5260759Y6762600D01*
X5260759Y6794604D01*
X5337975Y6700878D02*
G01*
X5342547Y6691734D01*
X5356263Y6678272D01*
X5260759Y6678272D01*
X5356263Y6602580D02*
G01*
X5292509Y6648046D01*
X5292509Y6579974D01*
X5356263Y6602580D02*
G01*
X5260759Y6602580D01*
X5610263Y6794604D02*
G01*
X5514759Y6794604D01*
X5610263Y6794604D02*
G01*
X5610263Y6762600D01*
X5605691Y6749138D01*
X5596547Y6739994D01*
X5587403Y6735422D01*
X5573941Y6730850D01*
X5551081Y6730850D01*
X5537619Y6735422D01*
X5528475Y6739994D01*
X5519331Y6749138D01*
X5514759Y6762600D01*
X5514759Y6794604D01*
X5587403Y6696306D02*
G01*
X5591975Y6696306D01*
X5601119Y6691734D01*
X5605691Y6687162D01*
X5610263Y6678272D01*
X5610263Y6659984D01*
X5605691Y6650840D01*
X5601119Y6646268D01*
X5591975Y6641696D01*
X5582831Y6641696D01*
X5573941Y6646268D01*
X5560225Y6655412D01*
X5514759Y6700878D01*
X5514759Y6637124D01*
X5610263Y6543652D02*
G01*
X5514759Y6589118D01*
X5610263Y6607152D02*
G01*
X5610263Y6543652D01*
X5864263Y6794604D02*
G01*
X5768759Y6794604D01*
X5864263Y6794604D02*
G01*
X5864263Y6762600D01*
X5859691Y6749138D01*
X5850547Y6739994D01*
X5841403Y6735422D01*
X5827941Y6730850D01*
X5805081Y6730850D01*
X5791619Y6735422D01*
X5782475Y6739994D01*
X5773331Y6749138D01*
X5768759Y6762600D01*
X5768759Y6794604D01*
X5841403Y6696306D02*
G01*
X5845975Y6696306D01*
X5855119Y6691734D01*
X5859691Y6687162D01*
X5864263Y6678272D01*
X5864263Y6659984D01*
X5859691Y6650840D01*
X5855119Y6646268D01*
X5845975Y6641696D01*
X5836831Y6641696D01*
X5827941Y6646268D01*
X5814225Y6655412D01*
X5768759Y6700878D01*
X5768759Y6637124D01*
X5850547Y6552796D02*
G01*
X5859691Y6557368D01*
X5864263Y6570830D01*
X5864263Y6579974D01*
X5859691Y6593690D01*
X5845975Y6602580D01*
X5823369Y6607152D01*
X5800509Y6607152D01*
X5782475Y6602580D01*
X5773331Y6593690D01*
X5768759Y6579974D01*
X5768759Y6575402D01*
X5773331Y6561686D01*
X5782475Y6552796D01*
X5795937Y6548224D01*
X5800509Y6548224D01*
X5814225Y6552796D01*
X5823369Y6561686D01*
X5827941Y6575402D01*
X5827941Y6579974D01*
X5823369Y6593690D01*
X5814225Y6602580D01*
X5800509Y6607152D01*
X6118263Y6794604D02*
G01*
X6022759Y6794604D01*
X6118263Y6794604D02*
G01*
X6118263Y6762600D01*
X6113691Y6749138D01*
X6104547Y6739994D01*
X6095403Y6735422D01*
X6081941Y6730850D01*
X6059081Y6730850D01*
X6045619Y6735422D01*
X6036475Y6739994D01*
X6027331Y6749138D01*
X6022759Y6762600D01*
X6022759Y6794604D01*
X6095403Y6696306D02*
G01*
X6099975Y6696306D01*
X6109119Y6691734D01*
X6113691Y6687162D01*
X6118263Y6678272D01*
X6118263Y6659984D01*
X6113691Y6650840D01*
X6109119Y6646268D01*
X6099975Y6641696D01*
X6090831Y6641696D01*
X6081941Y6646268D01*
X6068225Y6655412D01*
X6022759Y6700878D01*
X6022759Y6637124D01*
X6118263Y6552796D02*
G01*
X6118263Y6598262D01*
X6077369Y6602580D01*
X6081941Y6598262D01*
X6086513Y6584546D01*
X6086513Y6570830D01*
X6081941Y6557368D01*
X6072797Y6548224D01*
X6059081Y6543652D01*
X6049937Y6543652D01*
X6036475Y6548224D01*
X6027331Y6557368D01*
X6022759Y6570830D01*
X6022759Y6584546D01*
X6027331Y6598262D01*
X6031903Y6602580D01*
X6041047Y6607152D01*
X6118263Y4762604D02*
G01*
X6022759Y4762604D01*
X6118263Y4762604D02*
G01*
X6118263Y4730600D01*
X6113691Y4717138D01*
X6104547Y4707994D01*
X6095403Y4703422D01*
X6081941Y4698850D01*
X6059081Y4698850D01*
X6045619Y4703422D01*
X6036475Y4707994D01*
X6027331Y4717138D01*
X6022759Y4730600D01*
X6022759Y4762604D01*
X6118263Y4641700D02*
G01*
X6113691Y4655162D01*
X6099975Y4664306D01*
X6077369Y4668878D01*
X6063653Y4668878D01*
X6041047Y4664306D01*
X6027331Y4655162D01*
X6022759Y4641700D01*
X6022759Y4632556D01*
X6027331Y4618840D01*
X6041047Y4609696D01*
X6063653Y4605124D01*
X6077369Y4605124D01*
X6099975Y4609696D01*
X6113691Y4618840D01*
X6118263Y4632556D01*
X6118263Y4641700D01*
X6118263Y4520796D02*
G01*
X6118263Y4566262D01*
X6077369Y4570580D01*
X6081941Y4566262D01*
X6086513Y4552546D01*
X6086513Y4538830D01*
X6081941Y4525368D01*
X6072797Y4516224D01*
X6059081Y4511652D01*
X6049937Y4511652D01*
X6036475Y4516224D01*
X6027331Y4525368D01*
X6022759Y4538830D01*
X6022759Y4552546D01*
X6027331Y4566262D01*
X6031903Y4570580D01*
X6041047Y4575152D01*
X5879401Y5245204D02*
G01*
X5783897Y5245204D01*
X5879401Y5245204D02*
G01*
X5879401Y5213200D01*
X5874829Y5199738D01*
X5865685Y5190594D01*
X5856795Y5186022D01*
X5843079Y5181450D01*
X5820219Y5181450D01*
X5806757Y5186022D01*
X5797613Y5190594D01*
X5788469Y5199738D01*
X5783897Y5213200D01*
X5783897Y5245204D01*
X5861113Y5151478D02*
G01*
X5865685Y5142334D01*
X5879401Y5128618D01*
X5783897Y5128618D01*
X5879401Y5035146D02*
G01*
X5783897Y5080612D01*
X5879401Y5098646D02*
G01*
X5879401Y5035146D01*
X5897689Y4853282D02*
G01*
X5752147Y4935070D01*
X5879401Y4721456D02*
G01*
X5783897Y4721456D01*
X5879401Y4753206D02*
G01*
X5879401Y4689706D01*
X5879401Y4659734D02*
G01*
X5783897Y4595980D01*
X5879401Y4595980D02*
G01*
X5783897Y4659734D01*
X5856795Y4561436D02*
G01*
X5861113Y4561436D01*
X5870257Y4556864D01*
X5874829Y4552292D01*
X5879401Y4543402D01*
X5879401Y4525114D01*
X5874829Y4515970D01*
X5870257Y4511398D01*
X5861113Y4506826D01*
X5852223Y4506826D01*
X5843079Y4511398D01*
X5829363Y4520542D01*
X5783897Y4566008D01*
X5783897Y4502254D01*
X5625401Y5245204D02*
G01*
X5529897Y5245204D01*
X5625401Y5245204D02*
G01*
X5625401Y5213200D01*
X5620829Y5199738D01*
X5611685Y5190594D01*
X5602795Y5186022D01*
X5589079Y5181450D01*
X5566219Y5181450D01*
X5552757Y5186022D01*
X5543613Y5190594D01*
X5534469Y5199738D01*
X5529897Y5213200D01*
X5529897Y5245204D01*
X5607113Y5151478D02*
G01*
X5611685Y5142334D01*
X5625401Y5128618D01*
X5529897Y5128618D01*
X5611685Y5044290D02*
G01*
X5620829Y5048862D01*
X5625401Y5062324D01*
X5625401Y5071468D01*
X5620829Y5085184D01*
X5607113Y5094074D01*
X5584507Y5098646D01*
X5561647Y5098646D01*
X5543613Y5094074D01*
X5534469Y5085184D01*
X5529897Y5071468D01*
X5529897Y5066896D01*
X5534469Y5053180D01*
X5543613Y5044290D01*
X5557329Y5039718D01*
X5561647Y5039718D01*
X5575363Y5044290D01*
X5584507Y5053180D01*
X5589079Y5066896D01*
X5589079Y5071468D01*
X5584507Y5085184D01*
X5575363Y5094074D01*
X5561647Y5098646D01*
X5643689Y4857854D02*
G01*
X5498147Y4939642D01*
X5625401Y4757778D02*
G01*
X5529897Y4757778D01*
X5625401Y4757778D02*
G01*
X5625401Y4716884D01*
X5620829Y4703168D01*
X5616257Y4698850D01*
X5607113Y4694278D01*
X5598223Y4694278D01*
X5589079Y4698850D01*
X5584507Y4703168D01*
X5579935Y4716884D01*
X5579935Y4757778D01*
X5579935Y4726028D02*
G01*
X5529897Y4694278D01*
X5625401Y4664306D02*
G01*
X5529897Y4600552D01*
X5625401Y4600552D02*
G01*
X5529897Y4664306D01*
X5602795Y4566008D02*
G01*
X5607113Y4566008D01*
X5616257Y4561436D01*
X5620829Y4556864D01*
X5625401Y4547720D01*
X5625401Y4529686D01*
X5620829Y4520542D01*
X5616257Y4515970D01*
X5607113Y4511398D01*
X5598223Y4511398D01*
X5589079Y4515970D01*
X5575363Y4525114D01*
X5529897Y4570580D01*
X5529897Y4506826D01*
X5356263Y4762604D02*
G01*
X5260759Y4762604D01*
X5356263Y4762604D02*
G01*
X5356263Y4730600D01*
X5351691Y4717138D01*
X5342547Y4707994D01*
X5333403Y4703422D01*
X5319941Y4698850D01*
X5297081Y4698850D01*
X5283619Y4703422D01*
X5274475Y4707994D01*
X5265331Y4717138D01*
X5260759Y4730600D01*
X5260759Y4762604D01*
X5356263Y4641700D02*
G01*
X5351691Y4655162D01*
X5337975Y4664306D01*
X5315369Y4668878D01*
X5301653Y4668878D01*
X5279047Y4664306D01*
X5265331Y4655162D01*
X5260759Y4641700D01*
X5260759Y4632556D01*
X5265331Y4618840D01*
X5279047Y4609696D01*
X5301653Y4605124D01*
X5315369Y4605124D01*
X5337975Y4609696D01*
X5351691Y4618840D01*
X5356263Y4632556D01*
X5356263Y4641700D01*
X5356263Y4529686D02*
G01*
X5292509Y4575152D01*
X5292509Y4507080D01*
X5356263Y4529686D02*
G01*
X5260759Y4529686D01*
X5102263Y4762604D02*
G01*
X5006759Y4762604D01*
X5102263Y4762604D02*
G01*
X5102263Y4730600D01*
X5097691Y4717138D01*
X5088547Y4707994D01*
X5079403Y4703422D01*
X5065941Y4698850D01*
X5043081Y4698850D01*
X5029619Y4703422D01*
X5020475Y4707994D01*
X5011331Y4717138D01*
X5006759Y4730600D01*
X5006759Y4762604D01*
X5102263Y4641700D02*
G01*
X5097691Y4655162D01*
X5083975Y4664306D01*
X5061369Y4668878D01*
X5047653Y4668878D01*
X5025047Y4664306D01*
X5011331Y4655162D01*
X5006759Y4641700D01*
X5006759Y4632556D01*
X5011331Y4618840D01*
X5025047Y4609696D01*
X5047653Y4605124D01*
X5061369Y4605124D01*
X5083975Y4609696D01*
X5097691Y4618840D01*
X5102263Y4632556D01*
X5102263Y4641700D01*
X5079403Y4570580D02*
G01*
X5083975Y4570580D01*
X5093119Y4566262D01*
X5097691Y4561690D01*
X5102263Y4552546D01*
X5102263Y4534258D01*
X5097691Y4525368D01*
X5093119Y4520796D01*
X5083975Y4516224D01*
X5074831Y4516224D01*
X5065941Y4520796D01*
X5052225Y4529686D01*
X5006759Y4575152D01*
X5006759Y4511652D01*
X4873663Y4762604D02*
G01*
X4778159Y4762604D01*
X4873663Y4762604D02*
G01*
X4873663Y4730600D01*
X4869091Y4717138D01*
X4859947Y4707994D01*
X4850803Y4703422D01*
X4837341Y4698850D01*
X4814481Y4698850D01*
X4801019Y4703422D01*
X4791875Y4707994D01*
X4782731Y4717138D01*
X4778159Y4730600D01*
X4778159Y4762604D01*
X4855375Y4668878D02*
G01*
X4859947Y4659734D01*
X4873663Y4646272D01*
X4778159Y4646272D01*
X4873663Y4561690D02*
G01*
X4873663Y4607156D01*
X4832769Y4611728D01*
X4837341Y4607156D01*
X4841913Y4593440D01*
X4841913Y4579724D01*
X4837341Y4566262D01*
X4828197Y4557118D01*
X4814481Y4552546D01*
X4805337Y4552546D01*
X4791875Y4557118D01*
X4782731Y4566262D01*
X4778159Y4579724D01*
X4778159Y4593440D01*
X4782731Y4607156D01*
X4787303Y4611728D01*
X4796447Y4616046D01*
X6372263Y4762604D02*
G01*
X6276759Y4762604D01*
X6372263Y4762604D02*
G01*
X6372263Y4730600D01*
X6367691Y4717138D01*
X6358547Y4707994D01*
X6349403Y4703422D01*
X6335941Y4698850D01*
X6313081Y4698850D01*
X6299619Y4703422D01*
X6290475Y4707994D01*
X6281331Y4717138D01*
X6276759Y4730600D01*
X6276759Y4762604D01*
X6353975Y4668878D02*
G01*
X6358547Y4659734D01*
X6372263Y4646272D01*
X6276759Y4646272D01*
X6372263Y4593440D02*
G01*
X6367691Y4607156D01*
X6358547Y4611728D01*
X6349403Y4611728D01*
X6340513Y4607156D01*
X6335941Y4598012D01*
X6331369Y4579724D01*
X6326797Y4566262D01*
X6317653Y4557118D01*
X6308509Y4552546D01*
X6295047Y4552546D01*
X6285903Y4557118D01*
X6281331Y4561690D01*
X6276759Y4575152D01*
X6276759Y4593440D01*
X6281331Y4607156D01*
X6285903Y4611728D01*
X6295047Y4616046D01*
X6308509Y4616046D01*
X6317653Y4611728D01*
X6326797Y4602584D01*
X6331369Y4588868D01*
X6335941Y4570580D01*
X6340513Y4561690D01*
X6349403Y4557118D01*
X6358547Y4557118D01*
X6367691Y4561690D01*
X6372263Y4575152D01*
X6372263Y4593440D01*
X6626263Y4762604D02*
G01*
X6530759Y4762604D01*
X6626263Y4762604D02*
G01*
X6626263Y4730600D01*
X6621691Y4717138D01*
X6612547Y4707994D01*
X6603403Y4703422D01*
X6589941Y4698850D01*
X6567081Y4698850D01*
X6553619Y4703422D01*
X6544475Y4707994D01*
X6535331Y4717138D01*
X6530759Y4730600D01*
X6530759Y4762604D01*
X6607975Y4668878D02*
G01*
X6612547Y4659734D01*
X6626263Y4646272D01*
X6530759Y4646272D01*
X6594513Y4557118D02*
G01*
X6580797Y4561690D01*
X6571653Y4570580D01*
X6567081Y4584296D01*
X6567081Y4588868D01*
X6571653Y4602584D01*
X6580797Y4611728D01*
X6594513Y4616046D01*
X6598831Y4616046D01*
X6612547Y4611728D01*
X6621691Y4602584D01*
X6626263Y4588868D01*
X6626263Y4584296D01*
X6621691Y4570580D01*
X6612547Y4561690D01*
X6594513Y4557118D01*
X6571653Y4557118D01*
X6549047Y4561690D01*
X6535331Y4570580D01*
X6530759Y4584296D01*
X6530759Y4593440D01*
X6535331Y4607156D01*
X6544475Y4611728D01*
X6880263Y4762604D02*
G01*
X6784759Y4762604D01*
X6880263Y4762604D02*
G01*
X6880263Y4730600D01*
X6875691Y4717138D01*
X6866547Y4707994D01*
X6857403Y4703422D01*
X6843941Y4698850D01*
X6821081Y4698850D01*
X6807619Y4703422D01*
X6798475Y4707994D01*
X6789331Y4717138D01*
X6784759Y4730600D01*
X6784759Y4762604D01*
X6857403Y4664306D02*
G01*
X6861975Y4664306D01*
X6871119Y4659734D01*
X6875691Y4655162D01*
X6880263Y4646272D01*
X6880263Y4627984D01*
X6875691Y4618840D01*
X6871119Y4614268D01*
X6861975Y4609696D01*
X6852831Y4609696D01*
X6843941Y4614268D01*
X6830225Y4623412D01*
X6784759Y4668878D01*
X6784759Y4605124D01*
X6861975Y4575152D02*
G01*
X6866547Y4566262D01*
X6880263Y4552546D01*
X6784759Y4552546D01*
X7149401Y5702404D02*
G01*
X7053897Y5702404D01*
X7149401Y5702404D02*
G01*
X7149401Y5661510D01*
X7144829Y5647794D01*
X7140257Y5643222D01*
X7131113Y5638650D01*
X7122223Y5638650D01*
X7113079Y5643222D01*
X7108507Y5647794D01*
X7103935Y5661510D01*
X7103935Y5702404D01*
X7103935Y5670400D02*
G01*
X7053897Y5638650D01*
X7149401Y5608678D02*
G01*
X7053897Y5544924D01*
X7149401Y5544924D02*
G01*
X7053897Y5608678D01*
X7149401Y5514952D02*
G01*
X7053897Y5514952D01*
X7149401Y5514952D02*
G01*
X7149401Y5483202D01*
X7144829Y5469486D01*
X7135685Y5460596D01*
X7126795Y5456024D01*
X7113079Y5451452D01*
X7090219Y5451452D01*
X7076757Y5456024D01*
X7067613Y5460596D01*
X7058469Y5469486D01*
X7053897Y5483202D01*
X7053897Y5514952D01*
X7149401Y5394048D02*
G01*
X7144829Y5407764D01*
X7131113Y5416908D01*
X7108507Y5421480D01*
X7094791Y5421480D01*
X7072185Y5416908D01*
X7058469Y5407764D01*
X7053897Y5394048D01*
X7053897Y5384904D01*
X7058469Y5371442D01*
X7072185Y5362298D01*
X7094791Y5357726D01*
X7108507Y5357726D01*
X7131113Y5362298D01*
X7144829Y5371442D01*
X7149401Y5384904D01*
X7149401Y5394048D01*
X7167689Y5245966D02*
G01*
X7022147Y5327754D01*
X7149401Y5215994D02*
G01*
X7053897Y5215994D01*
X7149401Y5215994D02*
G01*
X7149401Y5184244D01*
X7144829Y5170528D01*
X7135685Y5161384D01*
X7126795Y5156812D01*
X7113079Y5152240D01*
X7090219Y5152240D01*
X7076757Y5156812D01*
X7067613Y5161384D01*
X7058469Y5170528D01*
X7053897Y5184244D01*
X7053897Y5215994D01*
X7149401Y5113124D02*
G01*
X7149401Y5063086D01*
X7113079Y5090518D01*
X7113079Y5076802D01*
X7108507Y5067658D01*
X7103935Y5063086D01*
X7090219Y5058768D01*
X7081329Y5058768D01*
X7067613Y5063086D01*
X7058469Y5072230D01*
X7053897Y5085946D01*
X7053897Y5099662D01*
X7058469Y5113124D01*
X7063041Y5117696D01*
X7072185Y5122268D01*
X7167689Y4876904D02*
G01*
X7022147Y4958692D01*
X7149401Y4776828D02*
G01*
X7053897Y4776828D01*
X7149401Y4776828D02*
G01*
X7149401Y4735934D01*
X7144829Y4722218D01*
X7140257Y4717646D01*
X7131113Y4713328D01*
X7122223Y4713328D01*
X7113079Y4717646D01*
X7108507Y4722218D01*
X7103935Y4735934D01*
X7103935Y4776828D01*
X7103935Y4745078D02*
G01*
X7053897Y4713328D01*
X7149401Y4683102D02*
G01*
X7053897Y4619602D01*
X7149401Y4619602D02*
G01*
X7053897Y4683102D01*
X7149401Y4562198D02*
G01*
X7144829Y4575914D01*
X7131113Y4585058D01*
X7108507Y4589630D01*
X7094791Y4589630D01*
X7072185Y4585058D01*
X7058469Y4575914D01*
X7053897Y4562198D01*
X7053897Y4553308D01*
X7058469Y4539592D01*
X7072185Y4530448D01*
X7094791Y4525876D01*
X7108507Y4525876D01*
X7131113Y4530448D01*
X7144829Y4539592D01*
X7149401Y4553308D01*
X7149401Y4562198D01*
X7403401Y5619600D02*
G01*
X7307897Y5619600D01*
X7403401Y5651604D02*
G01*
X7403401Y5587850D01*
X7403401Y5557878D02*
G01*
X7307897Y5494124D01*
X7403401Y5494124D02*
G01*
X7307897Y5557878D01*
X7403401Y5464152D02*
G01*
X7307897Y5464152D01*
X7403401Y5464152D02*
G01*
X7403401Y5432402D01*
X7398829Y5418686D01*
X7389685Y5409796D01*
X7380795Y5405224D01*
X7367079Y5400652D01*
X7344219Y5400652D01*
X7330757Y5405224D01*
X7321613Y5409796D01*
X7312469Y5418686D01*
X7307897Y5432402D01*
X7307897Y5464152D01*
X7403401Y5343248D02*
G01*
X7398829Y5356964D01*
X7385113Y5366108D01*
X7362507Y5370680D01*
X7348791Y5370680D01*
X7326185Y5366108D01*
X7312469Y5356964D01*
X7307897Y5343248D01*
X7307897Y5334104D01*
X7312469Y5320642D01*
X7326185Y5311498D01*
X7348791Y5306926D01*
X7362507Y5306926D01*
X7385113Y5311498D01*
X7398829Y5320642D01*
X7403401Y5334104D01*
X7403401Y5343248D01*
X7421689Y5195166D02*
G01*
X7276147Y5276954D01*
X7403401Y5165194D02*
G01*
X7307897Y5165194D01*
X7403401Y5165194D02*
G01*
X7403401Y5133444D01*
X7398829Y5119728D01*
X7389685Y5110584D01*
X7380795Y5106012D01*
X7367079Y5101440D01*
X7344219Y5101440D01*
X7330757Y5106012D01*
X7321613Y5110584D01*
X7312469Y5119728D01*
X7307897Y5133444D01*
X7307897Y5165194D01*
X7385113Y5071468D02*
G01*
X7389685Y5062324D01*
X7403401Y5048862D01*
X7307897Y5048862D01*
X7421689Y4866998D02*
G01*
X7276147Y4948786D01*
X7403401Y4735172D02*
G01*
X7307897Y4735172D01*
X7403401Y4766922D02*
G01*
X7403401Y4703422D01*
X7403401Y4673196D02*
G01*
X7307897Y4609696D01*
X7403401Y4609696D02*
G01*
X7307897Y4673196D01*
X7403401Y4552292D02*
G01*
X7398829Y4566008D01*
X7385113Y4575152D01*
X7362507Y4579724D01*
X7348791Y4579724D01*
X7326185Y4575152D01*
X7312469Y4566008D01*
X7307897Y4552292D01*
X7307897Y4543402D01*
X7312469Y4529686D01*
X7326185Y4520542D01*
X7348791Y4515970D01*
X7362507Y4515970D01*
X7385113Y4520542D01*
X7398829Y4529686D01*
X7403401Y4543402D01*
X7403401Y4552292D01*
X7642263Y4762604D02*
G01*
X7546759Y4762604D01*
X7642263Y4762604D02*
G01*
X7642263Y4730600D01*
X7637691Y4717138D01*
X7628547Y4707994D01*
X7619403Y4703422D01*
X7605941Y4698850D01*
X7583081Y4698850D01*
X7569619Y4703422D01*
X7560475Y4707994D01*
X7551331Y4717138D01*
X7546759Y4730600D01*
X7546759Y4762604D01*
X7619403Y4664306D02*
G01*
X7623975Y4664306D01*
X7633119Y4659734D01*
X7637691Y4655162D01*
X7642263Y4646272D01*
X7642263Y4627984D01*
X7637691Y4618840D01*
X7633119Y4614268D01*
X7623975Y4609696D01*
X7614831Y4609696D01*
X7605941Y4614268D01*
X7592225Y4623412D01*
X7546759Y4668878D01*
X7546759Y4605124D01*
X7619403Y4570580D02*
G01*
X7623975Y4570580D01*
X7633119Y4566262D01*
X7637691Y4561690D01*
X7642263Y4552546D01*
X7642263Y4534258D01*
X7637691Y4525368D01*
X7633119Y4520796D01*
X7623975Y4516224D01*
X7614831Y4516224D01*
X7605941Y4520796D01*
X7592225Y4529686D01*
X7546759Y4575152D01*
X7546759Y4511652D01*
X7896263Y4762604D02*
G01*
X7800759Y4762604D01*
X7896263Y4762604D02*
G01*
X7896263Y4730600D01*
X7891691Y4717138D01*
X7882547Y4707994D01*
X7873403Y4703422D01*
X7859941Y4698850D01*
X7837081Y4698850D01*
X7823619Y4703422D01*
X7814475Y4707994D01*
X7805331Y4717138D01*
X7800759Y4730600D01*
X7800759Y4762604D01*
X7873403Y4664306D02*
G01*
X7877975Y4664306D01*
X7887119Y4659734D01*
X7891691Y4655162D01*
X7896263Y4646272D01*
X7896263Y4627984D01*
X7891691Y4618840D01*
X7887119Y4614268D01*
X7877975Y4609696D01*
X7868831Y4609696D01*
X7859941Y4614268D01*
X7846225Y4623412D01*
X7800759Y4668878D01*
X7800759Y4605124D01*
X7896263Y4566262D02*
G01*
X7896263Y4516224D01*
X7859941Y4543402D01*
X7859941Y4529686D01*
X7855369Y4520796D01*
X7850797Y4516224D01*
X7837081Y4511652D01*
X7827937Y4511652D01*
X7814475Y4516224D01*
X7805331Y4525368D01*
X7800759Y4538830D01*
X7800759Y4552546D01*
X7805331Y4566262D01*
X7809903Y4570580D01*
X7819047Y4575152D01*
X4571403Y4694278D02*
G01*
X4580547Y4698850D01*
X4589691Y4707994D01*
X4594263Y4717138D01*
X4594263Y4735172D01*
X4589691Y4744316D01*
X4580547Y4753460D01*
X4571403Y4758032D01*
X4557941Y4762604D01*
X4535081Y4762604D01*
X4521619Y4758032D01*
X4512475Y4753460D01*
X4503331Y4744316D01*
X4498759Y4735172D01*
X4498759Y4717138D01*
X4503331Y4707994D01*
X4512475Y4698850D01*
X4521619Y4694278D01*
X4535081Y4694278D01*
X4535081Y4717138D02*
G01*
X4535081Y4694278D01*
X4594263Y4664306D02*
G01*
X4498759Y4664306D01*
X4594263Y4664306D02*
G01*
X4498759Y4600806D01*
X4594263Y4600806D02*
G01*
X4498759Y4600806D01*
X4594263Y4570580D02*
G01*
X4498759Y4570580D01*
X4594263Y4570580D02*
G01*
X4594263Y4538830D01*
X4589691Y4525368D01*
X4580547Y4516224D01*
X4571403Y4511652D01*
X4557941Y4507080D01*
X4535081Y4507080D01*
X4521619Y4511652D01*
X4512475Y4516224D01*
X4503331Y4525368D01*
X4498759Y4538830D01*
X4498759Y4570580D01*
X4340263Y4753460D02*
G01*
X4340263Y4703422D01*
X4303941Y4730600D01*
X4303941Y4717138D01*
X4299369Y4707994D01*
X4294797Y4703422D01*
X4281081Y4698850D01*
X4271937Y4698850D01*
X4258475Y4703422D01*
X4249331Y4712566D01*
X4244759Y4726028D01*
X4244759Y4739744D01*
X4249331Y4753460D01*
X4253903Y4758032D01*
X4263047Y4762604D01*
X4340263Y4668878D02*
G01*
X4244759Y4632556D01*
X4340263Y4596234D02*
G01*
X4244759Y4632556D01*
X4340263Y4557118D02*
G01*
X4340263Y4507080D01*
X4303941Y4534258D01*
X4303941Y4520796D01*
X4299369Y4511652D01*
X4294797Y4507080D01*
X4281081Y4502508D01*
X4271937Y4502508D01*
X4258475Y4507080D01*
X4249331Y4516224D01*
X4244759Y4529686D01*
X4244759Y4543402D01*
X4249331Y4557118D01*
X4253903Y4561690D01*
X4263047Y4566262D01*
X4340263Y6794604D02*
G01*
X4244759Y6758028D01*
X4340263Y6721706D02*
G01*
X4244759Y6758028D01*
X4340263Y6691734D02*
G01*
X4244759Y6691734D01*
X4340263Y6661762D02*
G01*
X4244759Y6661762D01*
X4340263Y6661762D02*
G01*
X4244759Y6598262D01*
X4340263Y6598262D02*
G01*
X4244759Y6598262D01*
X4571403Y6726278D02*
G01*
X4580547Y6730850D01*
X4589691Y6739994D01*
X4594263Y6749138D01*
X4594263Y6767172D01*
X4589691Y6776316D01*
X4580547Y6785460D01*
X4571403Y6790032D01*
X4557941Y6794604D01*
X4535081Y6794604D01*
X4521619Y6790032D01*
X4512475Y6785460D01*
X4503331Y6776316D01*
X4498759Y6767172D01*
X4498759Y6749138D01*
X4503331Y6739994D01*
X4512475Y6730850D01*
X4521619Y6726278D01*
X4535081Y6726278D01*
X4535081Y6749138D02*
G01*
X4535081Y6726278D01*
X4594263Y6696306D02*
G01*
X4498759Y6696306D01*
X4594263Y6696306D02*
G01*
X4498759Y6632806D01*
X4594263Y6632806D02*
G01*
X4498759Y6632806D01*
X4594263Y6602580D02*
G01*
X4498759Y6602580D01*
X4594263Y6602580D02*
G01*
X4594263Y6570830D01*
X4589691Y6557368D01*
X4580547Y6548224D01*
X4571403Y6543652D01*
X4557941Y6539080D01*
X4535081Y6539080D01*
X4521619Y6543652D01*
X4512475Y6548224D01*
X4503331Y6557368D01*
X4498759Y6570830D01*
X4498759Y6602580D01*
D10*
X4698989Y3036310D02*
G01*
X4771633Y2927344D01*
X4771633Y3036310D02*
G01*
X4698989Y2927344D01*
X4805923Y3015482D02*
G01*
X4816337Y3020816D01*
X4832085Y3036310D01*
X4832085Y2927344D01*
X2133600Y4014215D02*
G01*
X2133600Y3905250D01*
X2133600Y4014215D02*
G01*
X2169922Y4014215D01*
X2185670Y4009136D01*
X2195829Y3998721D01*
X2201163Y3988307D01*
X2206243Y3972560D01*
X2206243Y3946652D01*
X2201163Y3931157D01*
X2195829Y3920744D01*
X2185670Y3910329D01*
X2169922Y3905250D01*
X2133600Y3905250D01*
X2240534Y3993387D02*
G01*
X2250947Y3998721D01*
X2266695Y4014215D01*
X2266695Y3905250D01*
X2331974Y4014215D02*
G01*
X2316479Y4009136D01*
X2306065Y3993387D01*
X2300986Y3967479D01*
X2300986Y3951986D01*
X2306065Y3925823D01*
X2316479Y3910329D01*
X2331974Y3905250D01*
X2342388Y3905250D01*
X2358136Y3910329D01*
X2368550Y3925823D01*
X2373629Y3951986D01*
X2373629Y3967479D01*
X2368550Y3993387D01*
X2358136Y4009136D01*
X2342388Y4014215D01*
X2331974Y4014215D01*
D13*
X3454699Y3758173D02*
G01*
X3174700Y3758173D01*
X3454699Y3854099D02*
G01*
X3174700Y3854099D01*
X3174700Y3854099D02*
G01*
X3174700Y3334100D01*
X3454699Y3334100D02*
G01*
X3174700Y3334100D01*
X3454699Y3854099D02*
G01*
X3454699Y3334100D01*
X3962699Y3758173D02*
G01*
X3682700Y3758173D01*
X3962699Y3854099D02*
G01*
X3682700Y3854099D01*
X3682700Y3854099D02*
G01*
X3682700Y3334100D01*
X3962699Y3334100D02*
G01*
X3682700Y3334100D01*
X3962699Y3854099D02*
G01*
X3962699Y3334100D01*
X4470699Y3758173D02*
G01*
X4190700Y3758173D01*
X4470699Y3854099D02*
G01*
X4190700Y3854099D01*
X4190700Y3854099D02*
G01*
X4190700Y3334100D01*
X4470699Y3334100D02*
G01*
X4190700Y3334100D01*
X4470699Y3854099D02*
G01*
X4470699Y3334100D01*
X4978699Y3758173D02*
G01*
X4698700Y3758173D01*
X4978699Y3854099D02*
G01*
X4698700Y3854099D01*
X4698700Y3854099D02*
G01*
X4698700Y3334100D01*
X4978699Y3334100D02*
G01*
X4698700Y3334100D01*
X4978699Y3854099D02*
G01*
X4978699Y3334100D01*
X5486699Y3758173D02*
G01*
X5206700Y3758173D01*
X5486699Y3854099D02*
G01*
X5206700Y3854099D01*
X5206700Y3854099D02*
G01*
X5206700Y3334100D01*
X5486699Y3334100D02*
G01*
X5206700Y3334100D01*
X5486699Y3854099D02*
G01*
X5486699Y3334100D01*
X5994699Y3758173D02*
G01*
X5714700Y3758173D01*
X5994699Y3854099D02*
G01*
X5714700Y3854099D01*
X5714700Y3854099D02*
G01*
X5714700Y3334100D01*
X5994699Y3334100D02*
G01*
X5714700Y3334100D01*
X5994699Y3854099D02*
G01*
X5994699Y3334100D01*
X6502699Y3758173D02*
G01*
X6222700Y3758173D01*
X6502699Y3854099D02*
G01*
X6222700Y3854099D01*
X6222700Y3854099D02*
G01*
X6222700Y3334100D01*
X6502699Y3334100D02*
G01*
X6222700Y3334100D01*
X6502699Y3854099D02*
G01*
X6502699Y3334100D01*
X7010699Y3758173D02*
G01*
X6730700Y3758173D01*
X7010699Y3854099D02*
G01*
X6730700Y3854099D01*
X6730700Y3854099D02*
G01*
X6730700Y3334100D01*
X7010699Y3334100D02*
G01*
X6730700Y3334100D01*
X7010699Y3854099D02*
G01*
X7010699Y3334100D01*
X2437373Y4305000D02*
G01*
X2437373Y4584999D01*
X2533299Y4305000D02*
G01*
X2533299Y4584999D01*
X2533299Y4584999D02*
G01*
X2013300Y4584999D01*
X2013300Y4305000D02*
G01*
X2013300Y4584999D01*
X2533299Y4305000D02*
G01*
X2013300Y4305000D01*
X6624685Y1603037D02*
G01*
X7624683Y1603037D01*
X7624668Y2347145D02*
G01*
X7624668Y1602999D01*
X7624668Y2347145D02*
G01*
X7472763Y2347145D01*
X6624685Y2343030D02*
G01*
X6624685Y1603037D01*
X6776572Y2347142D02*
G01*
X6624685Y2347142D01*
X7026612Y2347142D02*
G01*
X6972800Y2347142D01*
X7276599Y2347142D02*
G01*
X7222782Y2347142D01*
X6827288Y2006594D02*
G01*
X6992388Y2006594D01*
X6992388Y1612894D01*
X6827288Y1612894D01*
X6827288Y2006594D01*
X7256980Y2006594D02*
G01*
X7422080Y2006594D01*
X7422080Y1612894D01*
X7256980Y1612894D01*
X7256980Y2006594D01*
X7894700Y1603037D02*
G01*
X8894699Y1603037D01*
X8894683Y2347145D02*
G01*
X8894683Y1602999D01*
X8894683Y2347145D02*
G01*
X8742779Y2347145D01*
X7894700Y2343030D02*
G01*
X7894700Y1603037D01*
X8046587Y2347142D02*
G01*
X7894700Y2347142D01*
X8296628Y2347142D02*
G01*
X8242815Y2347142D01*
X8546614Y2347142D02*
G01*
X8492797Y2347142D01*
X8097304Y2006594D02*
G01*
X8262404Y2006594D01*
X8262404Y1612894D01*
X8097304Y1612894D01*
X8097304Y2006594D01*
X8526995Y2006594D02*
G01*
X8692095Y2006594D01*
X8692095Y1612894D01*
X8526995Y1612894D01*
X8526995Y2006594D01*
X9164700Y1603037D02*
G01*
X10164699Y1603037D01*
X10164683Y2347145D02*
G01*
X10164683Y1602999D01*
X10164683Y2347145D02*
G01*
X10012779Y2347145D01*
X9164700Y2343030D02*
G01*
X9164700Y1603037D01*
X9316587Y2347142D02*
G01*
X9164700Y2347142D01*
X9566628Y2347142D02*
G01*
X9512815Y2347142D01*
X9816614Y2347142D02*
G01*
X9762797Y2347142D01*
X9367304Y2006594D02*
G01*
X9532404Y2006594D01*
X9532404Y1612894D01*
X9367304Y1612894D01*
X9367304Y2006594D01*
X9796995Y2006594D02*
G01*
X9962095Y2006594D01*
X9962095Y1612894D01*
X9796995Y1612894D01*
X9796995Y2006594D01*
X10434700Y1603037D02*
G01*
X11434699Y1603037D01*
X11434683Y2347145D02*
G01*
X11434683Y1602999D01*
X11434683Y2347145D02*
G01*
X11282779Y2347145D01*
X10434700Y2343030D02*
G01*
X10434700Y1603037D01*
X10586587Y2347142D02*
G01*
X10434700Y2347142D01*
X10836628Y2347142D02*
G01*
X10782815Y2347142D01*
X11086614Y2347142D02*
G01*
X11032797Y2347142D01*
X10637304Y2006594D02*
G01*
X10802404Y2006594D01*
X10802404Y1612894D01*
X10637304Y1612894D01*
X10637304Y2006594D01*
X11066995Y2006594D02*
G01*
X11232095Y2006594D01*
X11232095Y1612894D01*
X11066995Y1612894D01*
X11066995Y2006594D01*
X11704700Y1603037D02*
G01*
X12704699Y1603037D01*
X12704683Y2347145D02*
G01*
X12704683Y1602999D01*
X12704683Y2347145D02*
G01*
X12552779Y2347145D01*
X11704700Y2343030D02*
G01*
X11704700Y1603037D01*
X11856587Y2347142D02*
G01*
X11704700Y2347142D01*
X12106628Y2347142D02*
G01*
X12052815Y2347142D01*
X12356614Y2347142D02*
G01*
X12302797Y2347142D01*
X11907304Y2006594D02*
G01*
X12072404Y2006594D01*
X12072404Y1612894D01*
X11907304Y1612894D01*
X11907304Y2006594D01*
X12336995Y2006594D02*
G01*
X12502095Y2006594D01*
X12502095Y1612894D01*
X12336995Y1612894D01*
X12336995Y2006594D01*
X12944398Y3337394D02*
G01*
X12944398Y4587394D01*
X12354402Y4420090D02*
G01*
X12433300Y4420090D01*
X12354402Y4356590D02*
G01*
X12433300Y4356590D01*
X12560300Y4487092D02*
G01*
X12560300Y4587389D01*
X12944401Y4587389D02*
G01*
X12354402Y4587389D01*
X12354399Y3577516D02*
G01*
X12433300Y3577516D01*
X12354399Y3515829D02*
G01*
X12433300Y3515829D01*
X12565959Y3337394D02*
G01*
X12565959Y3437694D01*
X12354399Y3337394D02*
G01*
X12354399Y4587394D01*
X12944398Y3337394D02*
G01*
X12354399Y3337394D01*
X12433300Y3438397D02*
G01*
X12433300Y4483100D01*
X12865100Y4483100D01*
X12865100Y3438397D01*
X12433300Y3438397D01*
X1806000Y2875198D02*
G01*
X2765993Y2875198D01*
X2765993Y1595191D01*
X1806000Y1595191D01*
X1806000Y2875198D01*
X2076002Y1815205D02*
G01*
X2495991Y1815205D01*
X2495991Y1595191D01*
X2076002Y1595191D01*
X2076002Y1815205D01*
X3068700Y8591176D02*
G01*
X4068699Y8591176D01*
X4068699Y8141164D01*
X3068700Y8141164D01*
X3068700Y8591176D01*
X3068700Y10231178D02*
G01*
X4068699Y10231178D01*
X4068699Y8461179D01*
X3068700Y8461179D01*
X3068700Y10231178D01*
X4338700Y8591176D02*
G01*
X5338699Y8591176D01*
X5338699Y8141164D01*
X4338700Y8141164D01*
X4338700Y8591176D01*
X4338700Y10231178D02*
G01*
X5338699Y10231178D01*
X5338699Y8461179D01*
X4338700Y8461179D01*
X4338700Y10231178D01*
X5608700Y8591176D02*
G01*
X6608699Y8591176D01*
X6608699Y8141164D01*
X5608700Y8141164D01*
X5608700Y8591176D01*
X5608700Y10231178D02*
G01*
X6608699Y10231178D01*
X6608699Y8461179D01*
X5608700Y8461179D01*
X5608700Y10231178D01*
X6878700Y8591176D02*
G01*
X7878699Y8591176D01*
X7878699Y8141164D01*
X6878700Y8141164D01*
X6878700Y8591176D01*
X6878700Y10231178D02*
G01*
X7878699Y10231178D01*
X7878699Y8461179D01*
X6878700Y8461179D01*
X6878700Y10231178D01*
X8148700Y8591176D02*
G01*
X9148699Y8591176D01*
X9148699Y8141164D01*
X8148700Y8141164D01*
X8148700Y8591176D01*
X8148700Y10231178D02*
G01*
X9148699Y10231178D01*
X9148699Y8461179D01*
X8148700Y8461179D01*
X8148700Y10231178D01*
X9418700Y8591176D02*
G01*
X10418699Y8591176D01*
X10418699Y8141164D01*
X9418700Y8141164D01*
X9418700Y8591176D01*
X9418700Y10231178D02*
G01*
X10418699Y10231178D01*
X10418699Y8461179D01*
X9418700Y8461179D01*
X9418700Y10231178D01*
X10688700Y8591176D02*
G01*
X11688699Y8591176D01*
X11688699Y8141164D01*
X10688700Y8141164D01*
X10688700Y8591176D01*
X10688700Y10231178D02*
G01*
X11688699Y10231178D01*
X11688699Y8461179D01*
X10688700Y8461179D01*
X10688700Y10231178D01*
X11958700Y8591176D02*
G01*
X12958699Y8591176D01*
X12958699Y8141164D01*
X11958700Y8141164D01*
X11958700Y8591176D01*
X11958700Y10231178D02*
G01*
X12958699Y10231178D01*
X12958699Y8461179D01*
X11958700Y8461179D01*
X11958700Y10231178D01*
X1735201Y8591176D02*
G01*
X2735199Y8591176D01*
X2735199Y8141164D01*
X1735201Y8141164D01*
X1735201Y8591176D01*
X1735201Y10231178D02*
G01*
X2735199Y10231178D01*
X2735199Y8461179D01*
X1735201Y8461179D01*
X1735201Y10231178D01*
X3302000Y7861300D02*
G01*
X3810000Y7861300D01*
X3810000Y7658100D01*
X3302000Y7658100D01*
X3302000Y7861300D01*
X4572000Y7861300D02*
G01*
X5080000Y7861300D01*
X5080000Y7658100D01*
X4572000Y7658100D01*
X4572000Y7861300D01*
X5842000Y7861300D02*
G01*
X6350000Y7861300D01*
X6350000Y7658100D01*
X5842000Y7658100D01*
X5842000Y7861300D01*
X7112000Y7861300D02*
G01*
X7620000Y7861300D01*
X7620000Y7658100D01*
X7112000Y7658100D01*
X7112000Y7861300D01*
X8382000Y7861300D02*
G01*
X8890000Y7861300D01*
X8890000Y7658100D01*
X8382000Y7658100D01*
X8382000Y7861300D01*
X9652000Y7861300D02*
G01*
X10160000Y7861300D01*
X10160000Y7658100D01*
X9652000Y7658100D01*
X9652000Y7861300D01*
X10922000Y7861300D02*
G01*
X11430000Y7861300D01*
X11430000Y7658100D01*
X10922000Y7658100D01*
X10922000Y7861300D01*
X12192000Y7861300D02*
G01*
X12700000Y7861300D01*
X12700000Y7658100D01*
X12192000Y7658100D01*
X12192000Y7861300D01*
X3302000Y7467600D02*
G01*
X3810000Y7467600D01*
X3810000Y7264400D01*
X3302000Y7264400D01*
X3302000Y7467600D01*
X4572000Y7467600D02*
G01*
X5080000Y7467600D01*
X5080000Y7264400D01*
X4572000Y7264400D01*
X4572000Y7467600D01*
X5842000Y7467600D02*
G01*
X6350000Y7467600D01*
X6350000Y7264400D01*
X5842000Y7264400D01*
X5842000Y7467600D01*
X7112000Y7467600D02*
G01*
X7620000Y7467600D01*
X7620000Y7264400D01*
X7112000Y7264400D01*
X7112000Y7467600D01*
X8382000Y7467600D02*
G01*
X8890000Y7467600D01*
X8890000Y7264400D01*
X8382000Y7264400D01*
X8382000Y7467600D01*
X9652000Y7467600D02*
G01*
X10160000Y7467600D01*
X10160000Y7264400D01*
X9652000Y7264400D01*
X9652000Y7467600D01*
X10922000Y7467600D02*
G01*
X11430000Y7467600D01*
X11430000Y7264400D01*
X10922000Y7264400D01*
X10922000Y7467600D01*
X12192000Y7467600D02*
G01*
X12700000Y7467600D01*
X12700000Y7264400D01*
X12192000Y7264400D01*
X12192000Y7467600D01*
X1981200Y7467600D02*
G01*
X2489200Y7467600D01*
X2489200Y7264400D01*
X1981200Y7264400D01*
X1981200Y7467600D01*
X1981200Y7861300D02*
G01*
X2489200Y7861300D01*
X2489200Y7658100D01*
X1981200Y7658100D01*
X1981200Y7861300D01*
X11684000Y5118100D02*
G01*
X11684000Y4610100D01*
X11480800Y4610100D01*
X11480800Y5118100D01*
X11684000Y5118100D01*
X10185400Y6362700D02*
G01*
X10185400Y5854700D01*
X9982200Y5854700D01*
X9982200Y6362700D01*
X10185400Y6362700D01*
X10160000Y5118100D02*
G01*
X10160000Y4610100D01*
X9956800Y4610100D01*
X9956800Y5118100D01*
X10160000Y5118100D01*
X10655300Y5118100D02*
G01*
X10655300Y4610100D01*
X10452100Y4610100D01*
X10452100Y5118100D01*
X10655300Y5118100D01*
X11201400Y6362700D02*
G01*
X11201400Y5854700D01*
X10998200Y5854700D01*
X10998200Y6362700D01*
X11201400Y6362700D01*
X9461500Y5854700D02*
G01*
X9461500Y6362700D01*
X9664700Y6362700D01*
X9664700Y5854700D01*
X9461500Y5854700D01*
X10490200Y5854700D02*
G01*
X10490200Y6362700D01*
X10693400Y6362700D01*
X10693400Y5854700D01*
X10490200Y5854700D01*
X9448800Y4610100D02*
G01*
X9448800Y5118100D01*
X9652000Y5118100D01*
X9652000Y4610100D01*
X9448800Y4610100D01*
X10972800Y4610100D02*
G01*
X10972800Y5118100D01*
X11176000Y5118100D01*
X11176000Y4610100D01*
X10972800Y4610100D01*
X11493500Y5854700D02*
G01*
X11493500Y6362700D01*
X11696700Y6362700D01*
X11696700Y5854700D01*
X11493500Y5854700D01*
X1651000Y4851400D02*
G01*
X1651000Y6629400D01*
X2921000Y6629400D01*
X2921000Y4851400D01*
X1651000Y4851400D01*
D14*
X3517836Y4257725D02*
G01*
X8293087Y4254502D01*
X3314687Y6057902D02*
G01*
X3914686Y6057902D01*
X3914686Y5257904D01*
X3314687Y5257904D01*
X3390887Y6540502D02*
G01*
X3771887Y6540502D01*
X3771887Y6286502D01*
X3390887Y6286502D01*
X3390887Y6540502D01*
X3771887Y4762502D02*
G01*
X3390887Y4762502D01*
X3390887Y5016502D01*
X3771887Y5016502D01*
X3771887Y4762502D01*
X3314687Y6845302D02*
G01*
X3314687Y4457702D01*
X8293234Y7049551D02*
G01*
X3517887Y7048502D01*
X8465299Y6851512D02*
G01*
X8463559Y4458340D01*
X7878221Y4813302D02*
G01*
X7886687Y6489702D01*
X8369287Y6489702D01*
X8369287Y4813302D01*
X8369287Y4813302D02*
G01*
X7886687Y4813302D01*
X8302675Y5143502D02*
G01*
X7947075Y5143502D01*
X7947075Y6413502D02*
G01*
X8302675Y6413502D01*
X8302675Y6159502D01*
X8099475Y6159502D01*
X8099475Y5905502D01*
X8302675Y5905502D01*
X8302675Y5651502D01*
X8099475Y5651502D01*
X8099475Y5397502D01*
X8302675Y5397502D01*
X8302675Y4889502D01*
X7947075Y4889502D01*
D13*
X3898991Y2588381D02*
G01*
X3898991Y2407381D01*
X5498988Y2407381D01*
X5498988Y2588381D01*
X5656493Y2588381D01*
X5656493Y2428387D01*
X5631500Y2428387D01*
X5631500Y1817390D01*
X5448975Y1597400D01*
X3949004Y1597400D01*
X3766479Y1807408D01*
X3766479Y2428387D01*
X3741486Y2428387D01*
X3741486Y2588381D01*
X3898991Y2588381D01*
X5498988Y2588381D01*
D15*
X4216491Y2588381D02*
G01*
X3898991Y2588381D01*
D13*
X4638995Y1817390D02*
G01*
X4758984Y1817390D01*
X4758984Y1757395D01*
X4758984Y1657395D01*
X4638995Y1657395D01*
X4638995Y1757395D01*
X4638995Y1817390D01*
X4638995Y1757395D02*
G01*
X4758984Y1757395D01*
X2450073Y3822400D02*
G01*
X2450073Y4102399D01*
X2545999Y3822400D02*
G01*
X2545999Y4102399D01*
X2545999Y4102399D02*
G01*
X2026000Y4102399D01*
X2026000Y3822400D02*
G01*
X2026000Y4102399D01*
X2545999Y3822400D02*
G01*
X2026000Y3822400D01*
D16*
G75*
G01*
X3575825Y4839503D02*
G03*
X3575266Y4839528I1990J49947D01*
G75*
G01*
X3575825Y6363503D02*
G03*
X3575266Y6363503I-280J49986D01*
D14*
G75*
G01*
X8465299Y6851513D02*
G03*
X8293235Y7049552I-199999J-1D01*
G75*
G01*
X3517590Y7048490D02*
G03*
X3315012Y6845300I-2604J-199983D01*
G75*
G01*
X3314687Y4457703D02*
G03*
X3517837Y4257726I200000J-2D01*
G75*
G01*
X8293087Y4254503D02*
G03*
X8463559Y4458340I-29437J197821D01*
D13*
G75*
G01
X8411388Y4483100D02*
G03X8411388Y4483100I-143688J0D01*
G75*
G01
X8394700Y6819900D02*
G03X8394700Y6819900I-127000J0D01*
G75*
G01
X3661588Y6819900D02*
G03X3661588Y6819900I-143688J0D01*
G75*
G01
X3644900Y4483100D02*
G03X3644900Y4483100I-127000J0D01*
M02*
