G04 Layer: BottomLayer*
G04 EasyEDA v6.5.39, 2024-09-29 20:51:04*
G04 9dd5da30d42b491596d51ff902fabefb,51e75598fcfa43b1b8b7fc2dab888f2e,10*
G04 Gerber Generator version 0.2*
G04 Scale: 100 percent, Rotated: No, Reflected: No *
G04 Dimensions in millimeters *
G04 leading zeros omitted , absolute positions ,4 integer and 5 decimal *
%FSLAX45Y45*%
%MOMM*%

%ADD10C,1.0000*%
%ADD11C,1.8000*%
%ADD12C,1.5000*%
%ADD13R,1.5000X1.5000*%
%ADD14R,2.2000X2.2000*%
%ADD15C,2.2000*%
%ADD16C,1.7000*%
%ADD17C,1.6510*%
%ADD18C,1.5240*%
%ADD19R,1.5240X1.5240*%
%ADD20R,1.5301X1.5301*%
%ADD21C,1.5301*%
%ADD22C,0.6100*%
%ADD23C,0.0116*%

%LPD*%
D10*
X6045758Y4977053D02*
G01*
X5575300Y4506595D01*
X5575300Y4381500D01*
X10294899Y5245735D02*
G01*
X10294899Y6547332D01*
X10612704Y6865137D01*
X3937000Y7366000D02*
G01*
X4133850Y7562850D01*
X4648200Y7562850D01*
X5014899Y7929549D01*
X6022797Y7929549D01*
X6423609Y7528737D01*
X6553581Y7528737D01*
X6643598Y7438720D01*
X6643598Y7227798D01*
X6337300Y6921500D01*
X6071768Y7319111D02*
G01*
X5940120Y7187463D01*
X5385536Y7187463D01*
X5207000Y7366000D01*
X6874713Y2349500D02*
G01*
X6874713Y2524582D01*
X9414713Y2349500D02*
G01*
X9579152Y2513939D01*
X10345191Y2513939D01*
X10509631Y2349500D01*
X10684713Y2349500D02*
G01*
X10509631Y2349500D01*
X6874713Y2524582D02*
G01*
X6874713Y2607055D01*
X6699631Y2782138D01*
X6699631Y3427348D01*
X5914745Y4212234D01*
X4250588Y4212234D01*
X2701899Y5760923D01*
X2701899Y6477000D01*
X11099800Y5727700D02*
G01*
X11242675Y5584825D01*
X11242675Y4420565D01*
X9679254Y2857144D01*
X8902369Y2857144D01*
X8394725Y2349500D01*
X5829300Y4381500D02*
G01*
X5829300Y4414062D01*
X8953474Y7538237D01*
X10114762Y7538237D01*
X10287000Y7366000D01*
X11174196Y5900902D02*
G01*
X11372900Y5702198D01*
X11372900Y2303373D01*
X11263579Y2194052D01*
X9820173Y2194052D01*
X9664725Y2349500D01*
X2721000Y3962400D02*
G01*
X2708300Y3975100D01*
X2708300Y4445000D01*
X2701899Y5012004D02*
G01*
X2708300Y5005603D01*
X2708300Y4445000D01*
X2706065Y2965195D02*
G01*
X2706065Y3947464D01*
X2721000Y3962400D01*
X2496007Y2965195D02*
G01*
X2706065Y2965195D01*
X5298998Y2489403D02*
G01*
X5521325Y2711729D01*
X5521325Y3775100D01*
X5854700Y4029100D02*
G01*
X5600700Y3775100D01*
X5521325Y3775100D01*
X5521325Y3775100D02*
G01*
X5346700Y3949725D01*
X5346700Y4029100D01*
X4330700Y4029100D02*
G01*
X3822700Y4029100D01*
X4813300Y6921500D02*
G01*
X4651781Y6759981D01*
X3222218Y6759981D01*
X2616200Y7366000D01*
X5715000Y7366000D02*
G01*
X5715000Y7759700D01*
X2235200Y8331200D02*
G01*
X2235200Y3776014D01*
X2496007Y3515207D01*
X10058400Y4483100D02*
G01*
X9802672Y4483100D01*
X7506715Y2187143D01*
X7287082Y2187143D01*
X7124725Y2349500D01*
X10934725Y2349500D02*
G01*
X11219510Y2634284D01*
X11219510Y4177385D01*
X11201552Y4195343D01*
X11582400Y4483100D02*
G01*
X12204725Y3860774D01*
X12204725Y2349500D01*
X3175000Y7366000D02*
G01*
X3175000Y7759700D01*
X3175000Y7759700D02*
G01*
X3314700Y7899400D01*
X3314700Y8331200D01*
X4445000Y7759700D02*
G01*
X4584700Y7899400D01*
X4584700Y8331200D01*
X6985000Y7366000D02*
G01*
X6985000Y7759700D01*
X6985000Y7759700D02*
G01*
X7124700Y7899400D01*
X7124700Y8331200D01*
X8255000Y7759700D02*
G01*
X8255000Y8191500D01*
X8394700Y8331200D01*
X10795000Y7366000D02*
G01*
X10795000Y7759700D01*
X10795000Y7759700D02*
G01*
X10934700Y7899400D01*
X10934700Y8331200D01*
X12065000Y7366000D02*
G01*
X12065000Y7759700D01*
X12065000Y7759700D02*
G01*
X12204700Y7899400D01*
X12204700Y8331200D01*
X1981200Y8331200D02*
G01*
X1981200Y7886700D01*
X1854200Y7759700D01*
X6337300Y4381500D02*
G01*
X7038187Y5082387D01*
X9617836Y5082387D01*
X9713112Y5177662D01*
X9713112Y5312537D01*
X9163075Y5862573D01*
X9163050Y5862573D01*
X9163050Y7219950D01*
X9017000Y7366000D01*
X7607300Y4381500D02*
G01*
X7607300Y2582087D01*
X7374712Y2349500D01*
X4559300Y6921500D02*
G01*
X4559300Y7112000D01*
X5207000Y7759700D01*
X1866900Y6477000D02*
G01*
X1866900Y5012004D01*
X1866900Y5012004D02*
G01*
X2012848Y4866055D01*
X2012848Y4124248D01*
X1850999Y3962400D01*
X9850348Y5082362D02*
G01*
X9850348Y5440451D01*
X9563100Y5727700D01*
X10718876Y5082362D02*
G01*
X10718876Y5363286D01*
X10591800Y5490362D01*
X10591800Y5727700D01*
X11074400Y4483100D02*
G01*
X11074400Y4726838D01*
X10718876Y5082362D01*
X10718876Y5082362D02*
G01*
X9850348Y5082362D01*
X2616200Y7759700D02*
G01*
X2489200Y7886700D01*
X2489200Y8331200D01*
X12827000Y7759700D02*
G01*
X12712700Y7874000D01*
X12712700Y8331200D01*
X11595100Y5727700D02*
G01*
X11763857Y5896457D01*
X11763857Y7552842D01*
X11557000Y7759700D01*
X11557000Y7759700D02*
G01*
X11442700Y7874000D01*
X11442700Y8331200D01*
X7747000Y7759700D02*
G01*
X7632700Y7874000D01*
X7632700Y8331200D01*
X6477000Y7759700D02*
G01*
X6362700Y7874000D01*
X6362700Y8331200D01*
X9550400Y4539335D02*
G01*
X7765135Y4539335D01*
X7607300Y4381500D01*
X9550400Y4483100D02*
G01*
X9550400Y4539335D01*
X9550400Y4539335D02*
G01*
X9850348Y4839284D01*
X9850348Y5082362D01*
X3937000Y7759700D02*
G01*
X3822700Y7874000D01*
X3822700Y8331200D01*
X3822700Y8331200D02*
G01*
X3990086Y8498586D01*
X4925313Y8498586D01*
X5092700Y8331200D01*
X1850999Y3962400D02*
G01*
X2076018Y3737381D01*
X2076018Y3515207D01*
X2076018Y3515207D02*
G01*
X2076018Y2965195D01*
X12598400Y3837431D02*
G01*
X12624104Y3837431D01*
X12765989Y3695547D01*
X12765989Y2660777D01*
X12454712Y2349500D01*
X4399000Y2789402D02*
G01*
X4241647Y2946755D01*
X3527043Y2946755D01*
X3314700Y3159099D01*
X3568700Y8331200D02*
G01*
X3568700Y7513269D01*
X3248939Y7193508D01*
X3117367Y7193508D01*
X2782163Y7528712D01*
X2537231Y7528712D01*
X2387650Y7379131D01*
X2387650Y5612968D01*
X3005454Y4995163D01*
X3005454Y3468344D01*
X3314700Y3159099D01*
X5829300Y6921500D02*
G01*
X5858281Y6921500D01*
X6302781Y7366000D01*
X6477000Y7366000D01*
X9550400Y5245100D02*
G01*
X8986900Y5808598D01*
X8986900Y6748653D01*
X8667445Y7068108D01*
X7353300Y6921500D02*
G01*
X7600975Y7169175D01*
X7782636Y7169175D01*
X8142224Y7528763D01*
X8333841Y7528763D01*
X8731377Y7926298D01*
X10351871Y7926298D01*
X10449737Y7828432D01*
X10449737Y7212203D01*
X10842625Y6819315D01*
X10842625Y5476875D01*
X11074400Y5245100D01*
X4630420Y4706620D02*
G01*
X4305300Y4381500D01*
X6362700Y3159099D02*
G01*
X5528614Y2325014D01*
X4863388Y2325014D01*
X4699000Y2489403D01*
X6362700Y3159099D02*
G01*
X6362700Y2934944D01*
X6594398Y2703245D01*
X6845300Y6921500D02*
G01*
X7454391Y6312407D01*
X6591300Y6921500D02*
G01*
X7002322Y6510477D01*
X4167352Y4479569D02*
G01*
X4168038Y4480255D01*
X4168038Y5560415D01*
X2517825Y7210628D01*
X5298998Y2789402D02*
G01*
X4929301Y3159099D01*
X4838700Y3159099D01*
X4279087Y3517112D02*
G01*
X4083608Y3517112D01*
X3607282Y3993438D01*
X3607282Y4156735D01*
X3607257Y4156735D01*
X3168827Y4595164D01*
X5346700Y3159099D02*
G01*
X5176520Y3329279D01*
X3730091Y3329279D01*
X3603777Y3202965D01*
X3603777Y3101060D01*
X4099001Y2489403D02*
G01*
X2265730Y2489403D01*
X1653336Y3101797D01*
X1653336Y8250885D01*
X2233117Y8830665D01*
X11503075Y5043373D02*
G01*
X11631980Y5043373D01*
X11902262Y5313654D01*
X11902262Y8112912D01*
X11518798Y8496376D01*
X10636224Y8496376D01*
X10293934Y8154085D01*
X10095814Y8154085D01*
X9918700Y8331200D01*
X6054750Y2049932D02*
G01*
X7553629Y2049932D01*
X8491042Y2987344D01*
X8802801Y2987344D01*
X10428198Y4612741D01*
X10428198Y4918989D01*
X6054750Y2049932D02*
G01*
X5831154Y1826336D01*
X4970297Y1826336D01*
X4399000Y2397632D01*
X4399000Y2489403D01*
X6054750Y2049932D02*
G01*
X6054750Y2580157D01*
X6011316Y2623591D01*
X12458700Y8331200D02*
G01*
X12425451Y8297951D01*
X12425451Y3200069D01*
D11*
G01*
X3314700Y3159099D03*
G01*
X3314700Y4029100D03*
G01*
X3822700Y3159099D03*
G01*
X3822700Y4029100D03*
G01*
X4330700Y3159099D03*
G01*
X4330700Y4029100D03*
G01*
X4838700Y3159099D03*
G01*
X4838700Y4029100D03*
G01*
X5346700Y3159099D03*
G01*
X5346700Y4029100D03*
G01*
X5854700Y3159099D03*
G01*
X5854700Y4029100D03*
G01*
X6362700Y3159099D03*
G01*
X6362700Y4029100D03*
G01*
X6870700Y3159099D03*
G01*
X6870700Y4029100D03*
G01*
X1838299Y4445000D03*
G01*
X2708300Y4445000D03*
D12*
G01*
X7374686Y2349500D03*
G01*
X7124700Y2349500D03*
D13*
G01*
X6874687Y2349500D03*
D12*
G01*
X8644712Y2349500D03*
G01*
X8394725Y2349500D03*
D13*
G01*
X8144713Y2349500D03*
D12*
G01*
X9914712Y2349500D03*
G01*
X9664725Y2349500D03*
D13*
G01*
X9414713Y2349500D03*
D12*
G01*
X11184712Y2349500D03*
G01*
X10934725Y2349500D03*
D13*
G01*
X10684713Y2349500D03*
D12*
G01*
X12454712Y2349500D03*
G01*
X12204725Y2349500D03*
D13*
G01*
X11954713Y2349500D03*
G01*
X12598400Y3587394D03*
D12*
G01*
X12598400Y3837431D03*
G01*
X12598400Y4087418D03*
G01*
X12598400Y4337430D03*
D14*
G01*
X2495981Y2965195D03*
D15*
G01*
X2076018Y2965195D03*
G01*
X2496007Y3515207D03*
G01*
X2076018Y3515207D03*
D16*
G01*
X3314700Y8331174D03*
G01*
X3568700Y8331174D03*
G01*
X3822700Y8331174D03*
G01*
X4584700Y8331174D03*
G01*
X4838700Y8331174D03*
G01*
X5092700Y8331174D03*
G01*
X5854700Y8331174D03*
G01*
X6108700Y8331174D03*
G01*
X6362700Y8331174D03*
G01*
X7124700Y8331174D03*
G01*
X7378700Y8331174D03*
G01*
X7632700Y8331174D03*
G01*
X8394700Y8331174D03*
G01*
X8648700Y8331174D03*
G01*
X8902700Y8331174D03*
G01*
X9664700Y8331174D03*
G01*
X9918700Y8331174D03*
G01*
X10172700Y8331174D03*
G01*
X10934700Y8331174D03*
G01*
X11188700Y8331174D03*
G01*
X11442700Y8331174D03*
G01*
X12204700Y8331174D03*
G01*
X12458700Y8331174D03*
G01*
X12712700Y8331174D03*
G01*
X1981200Y8331174D03*
G01*
X2235200Y8331174D03*
G01*
X2489200Y8331174D03*
D17*
G01*
X3175000Y7759700D03*
G01*
X3937000Y7759700D03*
G01*
X4445000Y7759700D03*
G01*
X5207000Y7759700D03*
G01*
X5715000Y7759700D03*
G01*
X6477000Y7759700D03*
G01*
X6985000Y7759700D03*
G01*
X7747000Y7759700D03*
G01*
X8255000Y7759700D03*
G01*
X9017000Y7759700D03*
G01*
X9525000Y7759700D03*
G01*
X10287000Y7759700D03*
G01*
X10795000Y7759700D03*
G01*
X11557000Y7759700D03*
G01*
X12065000Y7759700D03*
G01*
X12827000Y7759700D03*
G01*
X3175000Y7366000D03*
G01*
X3937000Y7366000D03*
G01*
X4445000Y7366000D03*
G01*
X5207000Y7366000D03*
G01*
X5715000Y7366000D03*
G01*
X6477000Y7366000D03*
G01*
X6985000Y7366000D03*
G01*
X7747000Y7366000D03*
G01*
X8255000Y7366000D03*
G01*
X9017000Y7366000D03*
G01*
X9525000Y7366000D03*
G01*
X10287000Y7366000D03*
G01*
X10795000Y7366000D03*
G01*
X11557000Y7366000D03*
G01*
X12065000Y7366000D03*
G01*
X12827000Y7366000D03*
G01*
X1854200Y7366000D03*
G01*
X2616200Y7366000D03*
G01*
X1854200Y7759700D03*
G01*
X2616200Y7759700D03*
G01*
X11582400Y5245100D03*
G01*
X11582400Y4483100D03*
G01*
X10083800Y6489700D03*
G01*
X10083800Y5727700D03*
G01*
X10058400Y5245100D03*
G01*
X10058400Y4483100D03*
G01*
X10553700Y5245100D03*
G01*
X10553700Y4483100D03*
G01*
X11099800Y6489700D03*
G01*
X11099800Y5727700D03*
G01*
X9563100Y5727700D03*
G01*
X9563100Y6489700D03*
G01*
X10591800Y5727700D03*
G01*
X10591800Y6489700D03*
G01*
X9550400Y4483100D03*
G01*
X9550400Y5245100D03*
G01*
X11074400Y4483100D03*
G01*
X11074400Y5245100D03*
G01*
X11595100Y5727700D03*
G01*
X11595100Y6489700D03*
D18*
G01*
X1866900Y5012004D03*
G01*
X2701899Y5012004D03*
G01*
X2701899Y6477000D03*
G01*
X1866900Y6477000D03*
D19*
G01*
X7861325Y6921500D03*
D18*
G01*
X7607300Y6921500D03*
G01*
X7353300Y6921500D03*
G01*
X7099300Y6921500D03*
G01*
X6845300Y6921500D03*
G01*
X6591300Y6921500D03*
G01*
X6337300Y6921500D03*
G01*
X6083300Y6921500D03*
G01*
X5829300Y6921500D03*
G01*
X5575300Y6921500D03*
G01*
X5321300Y6921500D03*
G01*
X5067300Y6921500D03*
G01*
X4813300Y6921500D03*
G01*
X4559300Y6921500D03*
G01*
X4305300Y6921500D03*
G01*
X4305300Y4381500D03*
G01*
X4559300Y4381500D03*
G01*
X4813300Y4381500D03*
G01*
X5067300Y4381500D03*
G01*
X5321300Y4381500D03*
G01*
X5575300Y4381500D03*
G01*
X5829300Y4381500D03*
G01*
X6083300Y4381500D03*
G01*
X6337300Y4381500D03*
G01*
X6591300Y4381500D03*
G01*
X6845300Y4381500D03*
G01*
X7099300Y4381500D03*
G01*
X7353300Y4381500D03*
G01*
X7607300Y4381500D03*
G01*
X7861300Y4381500D03*
D20*
G01*
X5298998Y2489403D03*
D21*
G01*
X4998999Y2489403D03*
G01*
X4699000Y2489403D03*
G01*
X4399000Y2489403D03*
G01*
X4099001Y2489403D03*
G01*
X5298998Y2789402D03*
G01*
X4998999Y2789402D03*
G01*
X4699000Y2789402D03*
G01*
X4399000Y2789402D03*
G01*
X4099001Y2789402D03*
D11*
G01*
X1850999Y3962400D03*
G01*
X2721000Y3962400D03*
D22*
G01*
X12425451Y3200069D03*
G01*
X11503075Y5043373D03*
G01*
X10428198Y4918989D03*
G01*
X6011316Y2623591D03*
G01*
X2233117Y8830665D03*
G01*
X3603777Y3101060D03*
G01*
X3168827Y4595164D03*
G01*
X4279087Y3517112D03*
G01*
X2517825Y7210628D03*
G01*
X4167352Y4479569D03*
G01*
X7002322Y6510477D03*
G01*
X7454391Y6312407D03*
G01*
X6594398Y2703245D03*
G01*
X4630420Y4706620D03*
G01*
X8667445Y7068108D03*
G01*
X11201552Y4195343D03*
G01*
X11174196Y5900902D03*
G01*
X6071768Y7319111D03*
G01*
X6045758Y4977053D03*
G01*
X10294899Y5245735D03*
G01*
X10612704Y6865137D03*
M02*
